<svg id="Warstwa_1" data-name="Warstwa 1" xmlns="http://www.w3.org/2000/svg" viewBox="0 0 24 24"><defs>
<!-- <style>.cls-1{fill:#969c9e;}</style> -->
</defs><path class="cls-1" d="M21,6H19.0006V4.0016a1,1,0,0,0-1-1L6,3.0013a1,1,0,0,0-1,1V6H3A1,1,0,0,0,2,7L2,17a1,1,0,0,0,1,1H5v2.0006a1,1,0,0,0,1,1l12.0007,0a1,1,0,0,0,1-1V18H21a1,1,0,0,0,1-1L22,7A1,1,0,0,0,21,6ZM5.9986,4.0013H6l12.0007,0V6H5.9988ZM18.0006,7V17H6L5.9989,7ZM3,17,3,7H5V17Zm15.0008,3.001L6,20.0006V18H18.0006ZM21,17H19.0006V7H21Z"/></svg>