<svg width="20" height="20" id="Layer_2" data-name="Layer 2" xmlns="http://www.w3.org/2000/svg" viewBox="0 0 40 40">
    <g id="audiomixer"><path d="M11.25,4.84H7.08A2.24,2.24,0,0,0,4.83,7.08v4.17A2.25,2.25,0,0,0,7.08,13.5H8.17V34.07a1,1,0,1,0,2,0V13.5h1.08a2.25,2.25,0,0,0,2.25-2.25V7.08A2.24,2.24,0,0,0,11.25,4.84ZM8.17,11.5H7.08a.25.25,0,0,1-.25-.25V7.08a.25.25,0,0,1,.25-.25h4.17a.25.25,0,0,1,.25.25v4.17a.25.25,0,0,1-.25.25H8.17Z"/>
        <path d="M32.92,26.5H31.83V5.93a1,1,0,1,0-2,0V26.5H28.75a2.25,2.25,0,0,0-2.25,2.25v4.17a2.24,2.24,0,0,0,2.25,2.24h4.17a2.24,2.24,0,0,0,2.25-2.24V28.75A2.25,2.25,0,0,0,32.92,26.5ZM28.5,28.75a.25.25,0,0,1,.25-.25h4.17a.25.25,0,0,1,.25.25v4.17a.25.25,0,0,1-.25.25H28.75a.25.25,0,0,1-.25-.25Z"/>
        <path d="M22.08,15.67H21V5.93a1,1,0,1,0-2,0v9.74H17.92a2.25,2.25,0,0,0-2.25,2.25v4.16a2.25,2.25,0,0,0,2.25,2.25H19v9.74a1,1,0,1,0,2,0V24.33h1.08a2.25,2.25,0,0,0,2.25-2.25V17.92A2.25,2.25,0,0,0,22.08,15.67ZM19,22.33H17.92a.25.25,0,0,1-.25-.25V17.92a.25.25,0,0,1,.25-.25h4.16a.26.26,0,0,1,.26.25v4.16a.26.26,0,0,1-.26.25H19Z"/>
    </g>
</svg>