<svg xmlns="http://www.w3.org/2000/svg" width="18.133" height="17" viewBox="0 0 18.133 17">
  <g data-name="Group 1711" transform="translate(-639 -398)">
    <path  data-name="Path 2231" d="M14.179,16.99a3.121,3.121,0,0,1-.736-.067,1.74,1.74,0,0,1-1.351-1.732q-.022-2.466,0-4.933a1.8,1.8,0,0,1,3.461-.706.246.246,0,0,0,.175.111c.385.025.772.036,1.181.052A7.734,7.734,0,0,0,13.487,2.6a7.384,7.384,0,0,0-8.185-.4A7.744,7.744,0,0,0,1.227,9.714c.424-.016.828-.028,1.232-.052a.211.211,0,0,0,.134-.113,1.8,1.8,0,0,1,3.1-.354A1.753,1.753,0,0,1,6.055,10.3c0,1.617.008,3.235,0,4.853A1.8,1.8,0,0,1,4.68,16.941,1.74,1.74,0,0,1,2.706,16.1a.526.526,0,0,0-.589-.312,1.949,1.949,0,0,1-1.412-.4,1.757,1.757,0,0,1-.674-1.4C.023,12.2-.044,10.42.05,8.647A8.828,8.828,0,0,1,4.469,1.271,8.5,8.5,0,0,1,8.353.033,1.162,1.162,0,0,0,8.509,0H9.634c.357.051.716.092,1.07.155a9.031,9.031,0,0,1,7.4,8.49c.058,1.777.025,3.557.011,5.335a1.767,1.767,0,0,1-1.624,1.787,6.715,6.715,0,0,1-.783,0c0,.568-.842,1.218-1.525,1.218M4.85,12.728c0-.8,0-1.6,0-2.4a.611.611,0,0,0-.37-.614.6.6,0,0,0-.834.574c-.007.785,0,1.571,0,2.356,0,.826,0,1.651,0,2.477a.61.61,0,0,0,.37.614.6.6,0,0,0,.835-.594c0-.805,0-1.611,0-2.416m8.442-.02c0,.805,0,1.611,0,2.416a.611.611,0,0,0,.37.614.6.6,0,0,0,.835-.573c.007-.765,0-1.53,0-2.3,0-.846,0-1.691,0-2.537a.611.611,0,0,0-.37-.614.6.6,0,0,0-.836.594c0,.8,0,1.6,0,2.4M2.43,10.876c-.216,0-.41-.006-.6,0a.589.589,0,0,0-.591.589q-.012,1.267,0,2.533a.552.552,0,0,0,.462.556,5.368,5.368,0,0,0,.731.007Zm13.281,3.7c.226,0,.433.011.639,0a.583.583,0,0,0,.556-.58q.012-1.267,0-2.533a.57.57,0,0,0-.5-.572,6.277,6.277,0,0,0-.7-.005Z" transform="translate(639 398)" />
  </g>
</svg>
