<svg id="Layer_1" data-name="Layer 1" xmlns="http://www.w3.org/2000/svg" viewBox="0 0 10.2 9.426"><defs><style>.cls-1{fill:#3e8acd;stroke-width:0.2px;}.cls-1,.cls-2{stroke:#3e8acd;}.cls-2{fill:none;stroke-linecap:round;stroke-width:0.8px;}</style></defs><g id="Group_741" data-name="Group 741"><g id="calendar_01" data-name="calendar 01"><path id="Path_2039" data-name="Path 2039" class="cls-1" d="M9.35,1.068H7.91V.523A.428.428,0,0,0,7.487.1H7.343A.4289.4289,0,0,0,6.92.523v.544H3.329V.523A.428.428,0,0,0,2.906.1H2.762a.428.428,0,0,0-.423.423v.544H.85a.75.75,0,0,0-.75.75h0V8.576a.75.75,0,0,0,.75.75h8.5a.75.75,0,0,0,.75-.75V1.817A.75.75,0,0,0,9.35,1.068ZM.863,1.515H2.352v.4a.4279.4279,0,0,0,.419.422h.142a.428.428,0,0,0,.423-.423v-.4H6.919v.4a.4289.4289,0,0,0,.423.423h.143a.428.428,0,0,0,.423-.423v-.4H9.371a.3.3,0,0,1,.3.3h0V3.326H.56V1.817a.3.3,0,0,1,.3-.3h0ZM9.35,8.879H.863a.3.3,0,0,1-.3-.3h0V3.773H9.656v4.8a.3.3,0,0,1-.3.3h0Z"/></g><line id="Line_45" data-name="Line 45" class="cls-2" x1="2.6" y1="5.419" x2="7.887" y2="5.419"/><line id="Line_46" data-name="Line 46" class="cls-2" x1="2.6" y1="7.061" x2="7.887" y2="7.061"/></g></svg>
