<?xml version="1.0" encoding="utf-8"?>
<!-- Generator: Adobe Illustrator 26.2.1, SVG Export Plug-In . SVG Version: 6.00 Build 0)  -->
<svg version="1.1" id="Layer_1" xmlns:serif="http://www.serif.com/"
	 xmlns="http://www.w3.org/2000/svg" xmlns:xlink="http://www.w3.org/1999/xlink" x="0px" y="0px" viewBox="0 0 40 40"
	 style="enable-background:new 0 0 40 40;" xml:space="preserve">
<g>
	<path d="M20,29.9c-4.3,0-8.6,0-12.9,0c-2.3,0-3.8-1.3-3.8-3.1c0-4.5,0-9,0-13.4c0-1.9,1.5-3.1,3.8-3.1c8.6,0,17.1,0,25.7,0
		c2.3,0,3.8,1.3,3.8,3.1c0,4.5,0,9,0,13.4c0,1.9-1.5,3.1-3.8,3.1C28.6,29.9,24.3,29.9,20,29.9z M20.3,27.9c4.3,0,9.3,0,13.6,0
		c0.9,0,1.4-0.4,1.4-1.1c0-4.5,0-9,0-13.5c0-0.8-0.5-1.1-1.4-1.1c-8.6,0-18.9,0-27.4,0c-0.9,0-1.4,0.4-1.4,1.1c0,4.5,0,9,0,13.5
		c0,0.8,0.4,1.2,1.4,1.2C10.7,27.9,16,27.9,20.3,27.9z"/>
	<path d="M10.6,17.5c0.2-1.4,1.7-2.4,3.3-2.4c0.8,0,1.7,0,2.5,0c0.7,0,1.2,0.4,1.2,1c0,0.5-0.5,1-1.2,1c-0.8,0-1.5,0-2.3,0
		c-0.8,0-1.3,0.4-1.3,1.1c0,1.3,0,2.5,0,3.8c0,0.6,0.5,1,1.3,1c0.7,0,1.5,0,2.2,0c0.7,0,1.3,0.4,1.3,1c0,0.6-0.5,1-1.3,1
		c-1,0-2,0-2.9-0.1c-1.7-0.2-2.9-1.4-2.9-2.8C10.5,21.4,10.5,18.3,10.6,17.5z"/>
	<path d="M22.5,17.5c0.2-1.4,1.7-2.4,3.4-2.4c0.8,0,1.7,0,2.5,0c0.7,0,1.2,0.4,1.2,1c0,0.5-0.5,1-1.2,1c-0.8,0-1.5,0-2.3,0
		c-0.8,0-1.3,0.4-1.3,1.1c0,1.3,0,2.5,0,3.8c0,0.6,0.5,1,1.3,1c0.7,0,1.5,0,2.2,0c0.7,0,1.3,0.4,1.3,1c0,0.6-0.5,1-1.2,1
		c-1,0-2,0-2.9-0.1c-1.7-0.2-2.9-1.4-3-2.8C22.4,21.4,22.3,18.3,22.5,17.5z"/>
</g>
</svg>
