<svg id="Layer_1" data-name="Layer 1" xmlns="http://www.w3.org/2000/svg" viewBox="0 0 20 20"><defs><style>.cls-1{fill:#231f20;}</style></defs><path class="cls-1" d="M5.76,7.42,19,4.49,18.09.58.52,4.48l.74,3.35V19.42h18v-12Zm6.45,3,2-2h3.12l-2,2Zm.35-5.54-3.05.68L7.13,4l3-.67Zm-1-1.82,3-.67,2.38,1.52-3,.67ZM8.13,5.87l-3,.67L2.71,5l3-.67Zm-4.42,1L2.14,7.2,1.79,5.63ZM2.26,8.42H3.78L2.26,9.94Zm2.94,0H8.27l-2,2H3.2Zm4.45,0H12.8l-2,2H7.68l2-2Zm8-5.24L15.93,2.09l1.4-.31Zm.62,15.24h-16v-7h16Zm-1.52-8L18.26,8.9v1.52Z"/><path class="cls-1" d="M8.67,12.37v5.09l4.17-2.54Zm.8,1.43,1.83,1.12L9.47,16Z"/></svg>