<?xml version="1.0" encoding="UTF-8" standalone="no"?>
<!DOCTYPE svg PUBLIC "-//W3C//DTD SVG 1.1//EN" "http://www.w3.org/Graphics/SVG/1.1/DTD/svg11.dtd">
<svg width="100%" height="100%" viewBox="0 0 48 48" version="1.1" xmlns="http://www.w3.org/2000/svg" xmlns:xlink="http://www.w3.org/1999/xlink" xml:space="preserve" xmlns:serif="http://www.serif.com/" style="fill-rule:evenodd;clip-rule:evenodd;stroke-linejoin:round;stroke-miterlimit:2;">
    <g id="close_icon" transform="matrix(2.41667,0,0,2.41667,9.5,9.5)">
        <g transform="matrix(1.03448,0,0,1.03448,-0.206897,-0.206897)">
            <path d="M11.151,-0.849L-0.849,11.151C-1.317,11.62 -1.317,12.38 -0.849,12.849C-0.38,13.317 0.38,13.317 0.849,12.849L12.849,0.849C13.317,0.38 13.317,-0.38 12.849,-0.849C12.38,-1.317 11.62,-1.317 11.151,-0.849Z"/>
        </g>
        <g transform="matrix(1.03448,0,0,1.03448,-0.206897,-0.206897)">
            <path d="M-0.849,0.849L11.151,12.849C11.62,13.317 12.38,13.317 12.849,12.849C13.317,12.38 13.317,11.62 12.849,11.151L0.849,-0.849C0.38,-1.317 -0.38,-1.317 -0.849,-0.849C-1.317,-0.38 -1.317,0.38 -0.849,0.849Z"/>
        </g>
    </g>
</svg>
