<svg id="Warstwa_2" data-name="Warstwa 2" xmlns="http://www.w3.org/2000/svg" viewBox="0 0 40 40"><g id="settings_icon"><path d="M20,25.62A5.62,5.62,0,1,1,25.62,20,5.62,5.62,0,0,1,20,25.62Zm0-9.25A3.63,3.63,0,1,0,23.63,20,3.64,3.64,0,0,0,20,16.37Z"/><path d="M17.43,36.74a2.51,2.51,0,0,1-2.5-2.21l-.44-2.78a16,16,0,0,1-1.68-.92l-2.64,1a2.51,2.51,0,0,1-3.09-1.11l-2.56-4.5A2.53,2.53,0,0,1,5.2,23l2.2-1.76a23.45,23.45,0,0,1,0-2.52L5.17,17a2.51,2.51,0,0,1-.65-3.24l2.56-4.5a2.52,2.52,0,0,1,3.12-1.1l2.67,1a15.91,15.91,0,0,1,1.65-1l.42-2.77a2.48,2.48,0,0,1,2.49-2.17h5.14a2.51,2.51,0,0,1,2.5,2.2l.44,2.79a13.93,13.93,0,0,1,1.68.92l2.64-1a2.51,2.51,0,0,1,3.09,1.11l2.56,4.5A2.53,2.53,0,0,1,34.8,17l-2.2,1.76a23.45,23.45,0,0,1,0,2.52L34.83,23a2.5,2.5,0,0,1,.65,3.24l-2.56,4.5A2.53,2.53,0,0,1,30.73,32h0a2.48,2.48,0,0,1-.93-.18l-2.67-1a15.91,15.91,0,0,1-1.65,1l-.42,2.77a2.48,2.48,0,0,1-2.49,2.17Zm-4.46-8a1,1,0,0,1,.61.21,19.14,19.14,0,0,0,2.2,1.25,1,1,0,0,1,.6.76l.52,3.3a.53.53,0,0,0,.53.49h5.14a.51.51,0,0,0,.52-.45L23.62,31a1,1,0,0,1,.6-.76A19.14,19.14,0,0,0,26.42,29a1,1,0,0,1,1-.14L30.53,30a.52.52,0,0,0,.66-.23l2.55-4.5a.5.5,0,0,0-.13-.67L31,22.48a1,1,0,0,1-.37-.9c0-.17,0-.78,0-1.58s0-1.41,0-1.58a1,1,0,0,1,.37-.9l2.6-2.09a.51.51,0,0,0,.16-.69l-2.55-4.5a.51.51,0,0,0-.63-.24l-3.18,1.19a1,1,0,0,1-1-.14,21,21,0,0,0-2.2-1.25,1,1,0,0,1-.6-.76l-.52-3.3a.52.52,0,0,0-.53-.49H17.43a.51.51,0,0,0-.52.45L16.38,9a1,1,0,0,1-.6.76,20,20,0,0,0-2.2,1.25,1,1,0,0,1-.61.21c-.07.1-3.33-1.21-3.5-1.25a.51.51,0,0,0-.66.23l-2.55,4.5a.5.5,0,0,0,.13.67L9,17.52a1,1,0,0,1,.37.9c0,.16,0,.77,0,1.57s0,1.43,0,1.59a1,1,0,0,1-.37.9l-2.6,2.09a.51.51,0,0,0-.16.69l2.55,4.5a.54.54,0,0,0,.46.28C9.64,30,12.62,28.69,13,28.74Z"/></g></svg>