<?xml version="1.0" encoding="utf-8"?>
<!-- Generator: Adobe Illustrator 26.3.1, SVG Export Plug-In . SVG Version: 6.00 Build 0)  -->
<svg version="1.1" id="Layer_1" xmlns:serif="http://www.serif.com/"
	 xmlns="http://www.w3.org/2000/svg" xmlns:xlink="http://www.w3.org/1999/xlink" x="0px" y="0px" viewBox="0 0 40 40"
	 style="enable-background:new 0 0 40 40;" xml:space="preserve">
<g>
	<g transform="matrix(1, 0, 0, 1, 0, 0)">
		<path id="Path_2341-2" d="M26.3,11.4c-2,0-4.1,0-6.1,0c-0.2,0-0.3,0.1-0.4,0.3c-0.7,2-2.8,3.1-4.8,2.4c-1.1-0.4-2-1.3-2.4-2.4
			c0-0.2-0.2-0.3-0.4-0.2c0,0,0,0,0,0c-1.5,0-3.1,0-4.6,0c-0.5,0-1-0.4-1-0.9c0-0.5,0.4-1,0.9-1c0,0,0.1,0,0.1,0c1.5,0,3,0,4.6,0
			c0.2,0,0.3-0.1,0.4-0.3c0.7-2,2.8-3,4.8-2.4c1.1,0.4,2,1.3,2.4,2.4c0,0.2,0.2,0.3,0.4,0.3c4,0,8,0,12,0c0.1,0,0.2,0,0.4,0
			c0.5,0.1,0.9,0.6,0.8,1.1c-0.1,0.4-0.4,0.8-0.9,0.8c-0.1,0-0.2,0-0.3,0H26.3 M16.2,12.4c1.1,0,1.9-0.8,1.9-1.9s-0.8-1.9-1.9-1.9
			c-1.1,0-1.9,0.8-1.9,1.9C14.3,11.5,15.1,12.4,16.2,12.4"/>
	</g>
	<g transform="matrix(1, 0, 0, 1, 0, 0)">
		<path id="Path_2342-2" d="M13.8,19c2,0,4,0,6,0c0.2,0,0.4-0.1,0.4-0.3c0.7-2,2.8-3,4.8-2.4c1.1,0.4,2,1.3,2.4,2.4
			c0,0.2,0.2,0.3,0.4,0.3c1.5,0,3,0,4.6,0c0.5,0,1,0.4,1,0.9c0,0.5-0.4,1-0.9,1c0,0-0.1,0-0.1,0c-1.5,0-3,0-4.5,0
			c-0.2,0-0.4,0.1-0.4,0.3c-0.7,2-2.8,3-4.8,2.4c-1.1-0.4-2-1.3-2.4-2.4c0-0.2-0.2-0.3-0.4-0.3c-4,0-8,0-12,0c-0.1,0-0.3,0-0.4,0
			c-0.5-0.1-0.8-0.6-0.7-1.1c0.1-0.4,0.5-0.8,1-0.7C9.7,19,11.7,19,13.8,19 M23.8,21.9c1.1,0,1.9-0.8,1.9-1.9s-0.8-1.9-1.9-1.9
			c-1,0-1.9,0.8-1.9,1.9C21.9,21,22.7,21.9,23.8,21.9"/>
	</g>
	<g transform="matrix(1, 0, 0, 1, 0, 0)">
		<path id="Path_2343-2" d="M26.2,30.5c-2,0-4.1,0-6.1,0c-0.2,0-0.3,0.1-0.4,0.3c-0.6,2-2.8,3.1-4.8,2.4c-1.2-0.4-2.1-1.3-2.4-2.4
			c0-0.2-0.2-0.3-0.3-0.2c-1.5,0-3.1,0-4.6,0c-0.5,0-1-0.4-1-0.9c0-0.5,0.4-1,0.9-1c0,0,0.1,0,0.1,0c1.5,0,3,0,4.5,0
			c0.2,0,0.4-0.1,0.4-0.3c0.7-2,2.8-3,4.8-2.4c1.1,0.4,2,1.2,2.4,2.3c0,0.2,0.2,0.4,0.5,0.3c0,0,0,0,0,0c4,0,8,0,12.1,0
			c0.5,0,1,0.4,1,0.9c0,0.1,0,0.3-0.1,0.4c-0.2,0.4-0.5,0.6-1,0.6L26.2,30.5 M16.2,27.6c-1.1,0-1.9,0.8-1.9,1.9
			c0,1.1,0.8,1.9,1.9,1.9c1,0,1.9-0.8,1.9-1.9C18.1,28.5,17.3,27.6,16.2,27.6"/>
	</g>
</g>
</svg>
