<svg id="Layer_2" data-name="Layer 2" xmlns="http://www.w3.org/2000/svg" viewBox="0 0 40 40"><g id="stream_switching_icon_01" data-name="stream switching icon 01"><path d="M8.06,24.46a1.77,1.77,0,0,1-1.84-1.65V8.18A1.77,1.77,0,0,1,8,6.52h24a1.78,1.78,0,0,1,1.84,1.65V22.8A1.76,1.76,0,0,1,32,24.46Zm23.73-1.8V8.33H8.21V22.66Z"/><path d="M16.21,33.59c-1.35-.18-1.27-1.71-.1-2.12C6.12,31.08-2,24.85,6.6,20.06v2.31C2,25.5,8.81,28.84,15.91,29.44a1,1,0,0,1,.29-2c.28-.15,3.49,1.94,4,2.24,1.59.91.16,1.54-1,2.26A13.07,13.07,0,0,1,16.21,33.59Z"/><path d="M17.42,20.52a1,1,0,0,1-.93-1V11.43a1,1,0,0,1,1.41-.83L25,14.65a1,1,0,0,1,0,1.68C19.85,19.39,18,20.51,17.42,20.52ZM18.5,17.7l4-2.21-4-2.2Z"/><path d="M25.32,31.32a1,1,0,0,1-.11-2c5.67-.68,12.76-3.58,8.23-6.93l0-2.33a5,5,0,0,1,3.51,4.41C36.91,27.71,32.05,30.6,25.32,31.32Z"/></g></svg>