<svg
  id="Warstwa_1"
  data-name="Warstwa 1"
  xmlns="http://www.w3.org/2000/svg"
  xmlns:xlink="http://www.w3.org/1999/xlink"
  viewBox="0 0 24 24"
>
  <defs>
    <symbol
      id="day"
      data-name="day"
      viewBox="0 0 40 40"
    >
      <path
        d="M20,8A12,12,0,1,0,32,20,12,12,0,0,0,20,8Zm0,22A10,10,0,1,1,30,20,10.0113,10.0113,0,0,1,20,30Z"
      />
      <path
        d="M20,6a1,1,0,0,0,1-1V1a1,1,0,0,0-2,0V5A1,1,0,0,0,20,6Z"
      />
      <path
        d="M20,34a1,1,0,0,0-1,1v4a1,1,0,0,0,2,0V35A1,1,0,0,0,20,34Z"
      />
      <path d="M39,19H35a1,1,0,0,0,0,2h4a1,1,0,0,0,0-2Z" />
      <path
        d="M6,20a1,1,0,0,0-1-1H1a1,1,0,0,0,0,2H5A1,1,0,0,0,6,20Z"
      />
      <path
        d="M31.3137,10.1005,34.1421,7.272a1,1,0,1,0-1.4142-1.4142L29.9,8.6863a1,1,0,0,0,1.4142,1.4142Z"
      />
      <path
        d="M8.6863,29.9,5.8578,32.7279a1,1,0,1,0,1.4143,1.4142l2.8284-2.8284A1,1,0,0,0,8.6863,29.9Z"
      />
      <path
        d="M8.6863,10.1005a1,1,0,0,0,1.4142-1.4142L7.2721,5.8578A1,1,0,1,0,5.8578,7.272Z"
      />
      <path
        d="M31.3137,29.9A1,1,0,0,0,29.9,31.3137l2.8284,2.8284a1,1,0,1,0,1.4142-1.4142Z"
      />
    </symbol>
  </defs>
  <use
    id="day-3"
    data-name="day"
    width="40"
    height="40"
    transform="translate(2.0001 1.9998) scale(0.5)"
    xlink:href="#day"
  />
</svg>
