<svg xmlns="http://www.w3.org/2000/svg" width="14" height="14" viewBox="0 0 14 14">
  <g id="Remove_icon" data-name="Remove icon" transform="translate(-810 -483)">
    <path id="Path_2105" data-name="Path 2105" d="M7,0a7,7,0,1,0,7,7A7,7,0,0,0,7,0Zm3.01,8.9L8.894,10.009A25.7,25.7,0,0,0,7,8.117,26.07,26.07,0,0,0,5.1,10.009L3.989,8.9A21.846,21.846,0,0,0,5.883,7a21.549,21.549,0,0,0-1.894-1.9L5.1,3.991S6.883,5.884,7,5.884s1.9-1.893,1.9-1.893l1.115,1.116A25.634,25.634,0,0,0,8.114,7C8.114,7.128,10.009,8.9,10.009,8.9Z" transform="translate(810 483)" fill="#969c9e"/>
  </g>
</svg>
