<?xml version="1.0" encoding="utf-8"?>
<!-- Generator: Adobe Illustrator 26.0.1, SVG Export Plug-In . SVG Version: 6.00 Build 0)  -->
<svg version="1.1" id="Layer_2" xmlns="http://www.w3.org/2000/svg" xmlns:xlink="http://www.w3.org/1999/xlink" x="0px" y="0px"
	 viewBox="0 0 40 40" style="enable-background:new 0 0 40 40;" xml:space="preserve">
<g id="delete_icon" transform="matrix(1.11108,0,0,1.11108,-607.927,-275.992)">
	<path d="M560.1,259.7c-0.5,0-0.9,0.4-0.9,0.9l0,15c0,0.5,0.4,0.9,0.9,0.9c0.5,0,0.9-0.4,0.9-0.9v-15
		C561.1,260.1,560.6,259.7,560.1,259.7z"/>
	<path d="M565.1,259.7c-0.5,0-0.9,0.4-0.9,0.9v15c0,0.5,0.4,0.9,0.9,0.9c0.5,0,0.9-0.4,0.9-0.9v-15
		C566.1,260.1,565.6,259.7,565.1,259.7z"/>
	<path d="M570.1,259.7c-0.5,0-0.9,0.4-0.9,0.9l0,15c0,0.5,0.4,0.9,0.9,0.9c0.5,0,0.9-0.4,0.9-0.9v-15
		C571.1,260.1,570.6,259.7,570.1,259.7z"/>
	<path d="M556,281.5c-1,0-1.7-0.8-1.7-1.7v-23.3h-0.8c-0.5,0-0.9-0.4-0.9-0.9c0-0.5,0.4-0.9,0.9-0.9h5.8v-1.6c0-1,0.8-1.7,1.7-1.7
		h8.3c1,0,1.7,0.8,1.7,1.7v1.6l5.8,0c0.5,0,0.9,0.4,0.9,0.9s-0.4,0.9-0.9,0.9h-0.8v23.3c0,0.9-0.8,1.7-1.7,1.7l-8.3,0H556z
		 M574.2,279.7v-23.2l-18.2,0v23.2L574.2,279.7z M569.2,254.7v-1.5h-8.2v1.5H569.2z"/>
</g>
</svg>
