<?xml version="1.0" encoding="UTF-8" standalone="no"?>
<!DOCTYPE svg PUBLIC "-//W3C//DTD SVG 1.1//EN" "http://www.w3.org/Graphics/SVG/1.1/DTD/svg11.dtd">
<svg width="100%" height="100%" viewBox="0 0 48 48" version="1.1" xmlns="http://www.w3.org/2000/svg" xmlns:xlink="http://www.w3.org/1999/xlink" xml:space="preserve" xmlns:serif="http://www.serif.com/" style="fill-rule:evenodd;clip-rule:evenodd;stroke-linejoin:round;stroke-miterlimit:2;">
    <g id="download_icon" transform="matrix(2.66667,0,0,2.66667,-1.33333,-4.026)">
        <path id="Path_2122" d="M15.352,7.675C15.45,7.41 15.5,7.13 15.5,6.848C15.5,6.847 15.5,6.847 15.5,6.846C15.5,5.51 14.401,4.411 13.065,4.411C12.616,4.411 12.177,4.535 11.794,4.769C11.049,3.666 9.803,3.003 8.472,3L8.278,3C6.071,3.006 4.257,4.82 4.25,7.027C4.25,7.188 4.26,7.349 4.28,7.509C2.984,7.684 2.005,8.8 2,10.108C2.004,11.546 3.186,12.728 4.624,12.733L6.889,12.733C7.095,12.733 7.264,12.564 7.264,12.358C7.264,12.152 7.095,11.983 6.889,11.983L4.624,11.983C3.595,11.981 2.75,11.135 2.75,10.106C2.75,10.045 2.753,9.983 2.759,9.922C2.882,8.949 3.727,8.216 4.708,8.233C4.892,8.252 5.063,8.131 5.108,7.952C5.115,7.792 5.09,7.633 5.034,7.483C5.011,7.328 5,7.171 5,7.014C5,5.223 6.474,3.75 8.264,3.75C8.269,3.75 8.273,3.75 8.278,3.75L8.473,3.75C9.545,3.751 10.551,4.279 11.16,5.161C11.181,5.193 11.2,5.227 11.218,5.261C11.315,5.467 11.523,5.598 11.75,5.598C11.853,5.598 11.954,5.571 12.043,5.52C12.19,5.421 12.344,5.334 12.504,5.26C12.684,5.195 12.873,5.161 13.064,5.16C13.989,5.162 14.749,5.923 14.75,6.848C14.749,7.027 14.72,7.205 14.662,7.374C14.648,7.416 14.627,7.455 14.61,7.495C14.579,7.568 14.543,7.639 14.502,7.708L14.496,7.718C14.439,7.779 14.408,7.858 14.408,7.941C14.408,8.093 14.514,8.226 14.662,8.26C14.771,8.276 14.879,8.303 14.982,8.343C15.065,8.371 15.146,8.405 15.224,8.443C15.985,8.828 16.391,9.688 16.204,10.52C16.034,11.231 15.465,11.783 14.749,11.93C14.64,11.958 14.528,11.974 14.415,11.978L11.389,11.978C11.383,11.978 11.378,11.978 11.372,11.978C11.176,11.978 11.013,12.14 11.013,12.337C11.013,12.343 11.014,12.35 11.014,12.356C11.014,12.561 11.183,12.73 11.388,12.73L14.41,12.73C15.834,12.707 16.994,11.533 17,10.109C16.997,9.04 16.344,8.074 15.352,7.675Z" style="fill-rule:nonzero;"/>
        <g id="Path_2123" transform="matrix(1,0,0,1,-1.375,-1.2435)">
            <path d="M12.888,15.987L10.888,17.987L10.888,11.375C10.887,11.17 10.719,11.001 10.514,11C10.308,11.001 10.14,11.169 10.139,11.375L10.139,17.986L8.139,15.986C8.068,15.91 7.969,15.867 7.865,15.867C7.659,15.867 7.49,16.036 7.49,16.242C7.49,16.346 7.533,16.445 7.609,16.516L10.247,19.154C10.272,19.176 10.3,19.195 10.33,19.209C10.342,19.218 10.354,19.226 10.367,19.234C10.413,19.253 10.462,19.263 10.512,19.263C10.562,19.263 10.611,19.253 10.657,19.234C10.666,19.234 10.673,19.222 10.682,19.217C10.719,19.202 10.752,19.18 10.782,19.154L13.42,16.516C13.496,16.445 13.539,16.346 13.539,16.242C13.539,16.036 13.37,15.867 13.164,15.867C13.06,15.867 12.961,15.91 12.89,15.986L12.888,15.987Z" style="fill-rule:nonzero;"/>
        </g>
    </g>
</svg>
