<svg id="Warstwa_1" data-name="Warstwa 1" xmlns="http://www.w3.org/2000/svg" viewBox="0 0 24 24"><defs></defs><path class="cls-1" d="M19.8021,9.2337A3.1929,3.1929,0,0,0,20,8.131a3.2462,3.2462,0,0,0-4.9413-2.7722A5.36,5.36,0,0,0,10.63,3h-.26A5.3859,5.3859,0,0,0,5,8.37H5a5.247,5.247,0,0,0,.0393.6416A3.51,3.51,0,0,0,2,12.4771v.0012a3.51,3.51,0,0,0,3.4993,3.4994h3.02a.5.5,0,0,0,0-1h-3.02A2.5026,2.5026,0,0,1,3.012,12.2291,2.5742,2.5742,0,0,1,5.61,9.9778a.4978.4978,0,0,0,.5376-.3743,1.59,1.59,0,0,0-.0988-.6257H6.0454A4.3526,4.3526,0,0,1,10.37,4h.26a4.3574,4.3574,0,0,1,3.5826,1.8812,1.45,1.45,0,0,1,.0777.1312.7839.7839,0,0,0,1.1.3447,4.4419,4.4419,0,0,1,.6141-.3462,2.2154,2.2154,0,0,1,.7462-.13A2.2524,2.2524,0,0,1,19,8.131a2.2015,2.2015,0,0,1-.1177.7009c-.0187.0561-.0463.1077-.0692.1618a2.379,2.379,0,0,1-.1438.2836l-.0085.0134a.4355.4355,0,0,0,.2215.7228,1.9608,1.9608,0,0,1,.4267.11,2.7257,2.7257,0,0,1,.3233.1375,2.49,2.49,0,0,1,1.3072,2.77,2.5162,2.5162,0,0,1-1.94,1.88,2.0283,2.0283,0,0,1-.4454.0638c-.0175,0-4.0168.0007-4.0357.0008a.4793.4793,0,0,0-.5.5034.4984.4984,0,0,0,.4983.4984h3.9836l.0462,0A3.51,3.51,0,0,0,22,12.4783v-.0012A3.5083,3.5083,0,0,0,19.8021,9.2337Z"/><path class="cls-1" d="M14.6847,17.6494l-2.6659,2.6659V11.5a.5015.5015,0,0,0-.5-.5h0a.5015.5015,0,0,0-.5.5v8.815L8.3532,17.6494a.5.5,0,1,0-.7072.7072l3.5176,3.5175.0014.0022a.4814.4814,0,0,0,.1108.0734.4918.4918,0,0,0,.05.0333.5042.5042,0,0,0,.1927.0391h0a.5018.5018,0,0,0,.193-.0393c.0125-.0052.0214-.0158.0333-.022a.4865.4865,0,0,0,.1276-.0845l.0015-.0022,3.5175-3.5175a.5.5,0,0,0-.7072-.7072Z"/></svg>