<svg id="Layer_2" data-name="Layer 2" xmlns="http://www.w3.org/2000/svg" viewBox="0 0 40 40"><g id="Download_icon"><path d="M19.55,36.73a1.35,1.35,0,0,1-.26-.18l-5.86-5.86a1,1,0,0,1-.31-.73,1,1,0,0,1,1.73-.68L19,33.42V19.16a1,1,0,1,1,2,0V33.42l4.15-4.14a1,1,0,0,1,1.73.68,1,1,0,0,1-.32.73l-5.85,5.85a1.21,1.21,0,0,1-.33.21,1.33,1.33,0,0,1-.38.09A1.1,1.1,0,0,1,19.55,36.73Z"/><path d="M9.28,15.12a1,1,0,0,0,1.14-.79,3.16,3.16,0,0,0-.16-1.07,6.8,6.8,0,0,1-.08-1A7.38,7.38,0,0,1,23.6,8.32,1.65,1.65,0,0,0,25,9.27a1.53,1.53,0,0,0,.75-.2,6.56,6.56,0,0,1,1-.56,3.41,3.41,0,0,1,1.18-.21,3.58,3.58,0,0,1,3.57,3.57,4.26,4.26,0,0,1-.24,1.24c-.07.16-.2.44-.28.58a1.13,1.13,0,0,0-.24.61.91.91,0,0,0,.71.87,3.57,3.57,0,0,1,.68.18l.52.21A4,4,0,0,1,34.71,20a4,4,0,0,1-3.1,3,3.38,3.38,0,0,1-.7.1H24.16a1,1,0,0,0-1,1,1,1,0,0,0,1,1H30.9a6.06,6.06,0,0,0,5.92-6,6,6,0,0,0-3.62-5.5,5.38,5.38,0,0,0,.29-1.74A5.57,5.57,0,0,0,25.14,7,9.49,9.49,0,0,0,17.5,3.16a9.35,9.35,0,0,0-9.32,9.11c0,.31,0,.62.05.93a6,6,0,0,0,.95,11.9h5a1,1,0,0,0,0-2h-5a4,4,0,0,1-4-4c0-.13,0-.26,0-.38A4.1,4.1,0,0,1,9.28,15.12Z"/></g></svg>