<?xml version="1.0" encoding="utf-8"?>
<!-- Generator: Adobe Illustrator 26.2.1, SVG Export Plug-In . SVG Version: 6.00 Build 0)  -->
<svg version="1.1" id="Layer_2_00000057838958566202454240000002020037501525172910_"
	 xmlns="http://www.w3.org/2000/svg" xmlns:xlink="http://www.w3.org/1999/xlink" x="0px" y="0px" viewBox="0 0 40 40"
	 xml:space="preserve">
<!-- <style type="text/css">
	.st0{fill-rule:evenodd;clip-rule:evenodd;}
</style> -->
<g id="bumper_icon_00000064325692359945747110000009168198749876238006_">
	<path d="M14.8,10c3-0.1,3-4.9,0-5h-1.6c-3,0.1-3,4.9,0,5H14.8z"/>
</g>
<g id="bumper_icon-2_00000012466886067186681810000001604423144254162613_">
	<path d="M26.8,10c3-0.1,3-4.9,0-5h-1.6c-3,0.1-3,4.9,0,5H26.8z"/>
</g>
<g id="bumper_icon-4_00000133490120369124046440000009991410799092494478_">
	<path d="M14.8,22.5c3-0.1,3-4.9,0-5h-1.6c-3,0.1-3,4.9,0,5H14.8z"/>
</g>
<g id="bumper_icon-5_00000178884289194680291140000010537690640500099464_">
	<path d="M26.8,22.5c3-0.1,3-4.9,0-5h-1.6c-3,0.1-3,4.9,0,5H26.8z"/>
</g>
<g id="bumper_icon-7_00000009577265356872291210000007918812501126976412_">
	<path d="M14.8,35c3-0.1,3-4.9,0-5h-1.6c-3,0.1-3,4.9,0,5H14.8z"/>
</g>
<g id="bumper_icon-8_00000096057740878846875510000011063795238740288138_">
	<path d="M26.8,35c3-0.1,3-4.9,0-5h-1.6c-3,0.1-3,4.9,0,5H26.8z"/>
</g>
</svg>
