<svg xmlns="http://www.w3.org/2000/svg" width="12" height="12" viewBox="0 0 12 12">
  <path id="edit_icon_01" d="M13.763,3a1.407,1.407,0,0,0-1,.412L4.419,11.758h0L4,12.177v2.471A.353.353,0,0,0,4.353,15H6.824l.67-.67h0l8.095-8.095a1.416,1.416,0,0,0,0-2l-.827-.827a1.407,1.407,0,0,0-1-.412ZM6.743,14.082l-.212.212H4.706V12.469l.212-.212Zm.5-.5L5.417,11.758l.348-.348,6.068-6.068,1.825,1.825L7.59,13.235Zm7.847-8.845a.71.71,0,0,1,0,1l-.932.932L12.332,4.843l.932-.932a.71.71,0,0,1,1,0Z" transform="translate(-4 -3)"/>
</svg>
