<?xml version="1.0" encoding="UTF-8" standalone="no"?>
<!DOCTYPE svg PUBLIC "-//W3C//DTD SVG 1.1//EN" "http://www.w3.org/Graphics/SVG/1.1/DTD/svg11.dtd">
<svg width="100%" height="100%" viewBox="0 0 48 48" version="1.1" xmlns="http://www.w3.org/2000/svg" xmlns:xlink="http://www.w3.org/1999/xlink" xml:space="preserve" xmlns:serif="http://www.serif.com/" style="fill-rule:evenodd;clip-rule:evenodd;stroke-linejoin:round;stroke-miterlimit:2;">
    <g id="edit_icon" transform="matrix(3.00007,0,0,3.00007,-6.00028,-3.00104)">
        <path d="M13.763,3C13.388,2.999 13.028,3.147 12.763,3.412L4.419,11.758L4,12.177L4,14.648C4.001,14.841 4.16,15 4.353,15L6.824,15L15.589,6.235C16.137,5.686 16.137,4.784 15.589,4.235L14.762,3.408C14.497,3.143 14.137,2.995 13.762,2.996L13.763,3ZM6.743,14.082L6.531,14.294L4.706,14.294L4.706,12.469L4.918,12.257L6.743,14.082ZM7.243,13.582L5.417,11.758L11.833,5.342L13.658,7.167L7.243,13.582ZM15.09,4.737C15.363,5.012 15.363,5.462 15.09,5.737L14.158,6.669L12.332,4.843L13.264,3.911C13.539,3.638 13.989,3.638 14.264,3.911L15.09,4.737Z" style="fill-rule:nonzero;"/>
    </g>
</svg>
