<svg xmlns="http://www.w3.org/2000/svg" width="10.859" height="14" viewBox="0 0 10.859 14">
  <path id="wait" d="M45.294,12.108H44.53v-1.37A4.35,4.35,0,0,0,42.388,7.15a.777.777,0,0,1-.279-.65.777.777,0,0,1,.279-.65A4.35,4.35,0,0,0,44.53,2.262V.892h.764a.446.446,0,0,0,0-.892H36.327a.446.446,0,1,0,0,.892h.764v1.37A4.349,4.349,0,0,0,39.234,5.85a.777.777,0,0,1,.278.65.777.777,0,0,1-.279.65,4.35,4.35,0,0,0-2.142,3.588v1.37h-.764a.446.446,0,1,0,0,.892h8.967a.446.446,0,0,0,0-.892Zm-7.31-1.37a3.578,3.578,0,0,1,1.748-2.847A1.647,1.647,0,0,0,40.4,6.5a1.647,1.647,0,0,0-.673-1.391,3.578,3.578,0,0,1-1.748-2.847V.892h5.654v1.37a3.577,3.577,0,0,1-1.747,2.847A1.647,1.647,0,0,0,41.217,6.5a1.647,1.647,0,0,0,.673,1.391,3.578,3.578,0,0,1,1.747,2.847v1.37H37.983Z" transform="translate(-35.381 0.5)" fill="#646a6c" stroke="rgba(0,0,0,0)" stroke-width="1"/>
</svg>
