<svg xmlns="http://www.w3.org/2000/svg" width="17.531" height="17.5" viewBox="0 0 17.531 17.5">
  <g id="Events_log_icon" data-name="Events log icon" transform="translate(0.25 0.25)">
    <path id="Path_2282" data-name="Path 2282" d="M8.534,17c-1.995,0-3.99,0-5.985,0a2.485,2.485,0,0,1-2.483-1.98,3.089,3.089,0,0,1-.061-.651Q0,9.518,0,4.669a.815.815,0,0,1,.257-.623Q2.164,2.156,4.057.252A.793.793,0,0,1,4.661,0c3.254,0,6.509,0,9.763,0A2.5,2.5,0,0,1,17.03,2.623q0,5.88,0,11.76A2.5,2.5,0,0,1,14.4,17q-2.934,0-5.867,0M1.012,5v.273q0,4.544,0,9.088A1.509,1.509,0,0,0,2.667,16H14.376a1.523,1.523,0,0,0,1.656-1.644q0-5.856,0-11.711A1.5,1.5,0,0,0,14.4,1.011q-4.564,0-9.128,0H5.014c0,.442.008.848,0,1.252a4.12,4.12,0,0,1-.071.813A2.479,2.479,0,0,1,2.534,5c-.5.008-1,0-1.522,0M4,1.816,1.827,3.992C3.308,4.176,4.2,3.522,4,1.816" transform="translate(0 -0.001)" fill="#2aa5b5"/>
    <path id="Path_2282_-_Outline" data-name="Path 2282 - Outline" d="M4.985,17.251q-1.218,0-2.436,0A2.736,2.736,0,0,1-.178,15.071a3.316,3.316,0,0,1-.067-.7q0-2.289,0-4.578,0-2.56,0-5.121a1.061,1.061,0,0,1,.331-.8c1.226-1.215,2.5-2.491,3.8-3.792a1.037,1.037,0,0,1,.779-.325l3.718,0h1.811q2.118,0,4.235,0A2.741,2.741,0,0,1,17.28,2.623c0,4.2,0,8.046,0,11.76A2.75,2.75,0,0,1,14.4,17.249H4.985ZM4.66.251a.546.546,0,0,0-.426.177c-1.3,1.3-2.574,2.579-3.8,3.794a.568.568,0,0,0-.183.446q0,2.561,0,5.121,0,2.289,0,4.577a2.829,2.829,0,0,0,.055.6,2.245,2.245,0,0,0,2.24,1.783q2.093.006,4.186,0H14.4a2.248,2.248,0,0,0,2.378-2.367c0-3.714,0-7.561,0-11.76A2.263,2.263,0,0,0,14.423.255q-2.117,0-4.235,0H8.378Zm3.88,16H2.667a1.76,1.76,0,0,1-1.9-1.888q0-3.315,0-6.631V4.754h.25l.962,0c.214,0,.391,0,.557,0A2.22,2.22,0,0,0,4.7,3.019a3.525,3.525,0,0,0,.063-.7l0-.066c.008-.278.006-.556,0-.85,0-.129,0-.261,0-.4V.761H14.4a1.749,1.749,0,0,1,1.882,1.887q0,5.856,0,11.711a1.764,1.764,0,0,1-1.906,1.894Zm-7.279-11v2.48q0,3.315,0,6.63a1.26,1.26,0,0,0,1.4,1.389H14.376a1.275,1.275,0,0,0,1.406-1.394q0-5.855,0-11.711A1.261,1.261,0,0,0,14.4,1.261H5.264q0,.072,0,.143c0,.3,0,.581,0,.866l0,.066a3.952,3.952,0,0,1-.075.8A2.713,2.713,0,0,1,2.538,5.253c-.168,0-.348,0-.564,0Zm1.025-.982A4.015,4.015,0,0,1,1.8,4.24l-.508-.063L4.194,1.272l.058.516a2.367,2.367,0,0,1-.437,1.9A1.953,1.953,0,0,1,2.287,4.272ZM3.777,2.4,2.4,3.77a1.414,1.414,0,0,0,1.04-.411A1.514,1.514,0,0,0,3.777,2.4Z" transform="translate(0 -0.001)" fill="#2aa5b5"/>
    <path id="Path_2283" data-name="Path 2283" d="M68.732,128.878q-1.96,0-3.919,0c-.348,0-.552-.169-.57-.457a.491.491,0,0,1,.446-.533,2.14,2.14,0,0,1,.234,0H72.55c.055,0,.11,0,.164,0a.506.506,0,0,1,.531.507.494.494,0,0,1-.524.486c-.97.005-1.94,0-2.91,0H68.732" transform="translate(-60.221 -119.88)" fill="#2aa5b5"/>
    <path id="Path_2283_-_Outline" data-name="Path 2283 - Outline" d="M71.267,129.129H64.812a.748.748,0,0,1-.151-1.488,1.328,1.328,0,0,1,.146-.007h7.916a.751.751,0,0,1,.772.761.74.74,0,0,1-.772.731C72.19,129.128,71.665,129.129,71.267,129.129Zm-1.327-.5h1.327c.4,0,.922,0,1.454,0a.247.247,0,0,0,.275-.24c0-.178-.154-.247-.29-.252h-7.9a.83.83,0,0,0-.091,0,.242.242,0,0,0-.224.269c0,.066.014.222.321.223h5.126Z" transform="translate(-60.221 -119.88)" fill="#2aa5b5"/>
    <path id="Path_2284" data-name="Path 2284" d="M68.724,176.808q-1.96,0-3.919,0c-.344,0-.549-.175-.564-.464a.491.491,0,0,1,.431-.525,1.367,1.367,0,0,1,.187-.006q3.884,0,7.768,0a.927.927,0,0,1,.3.041.477.477,0,0,1,.313.519.485.485,0,0,1-.431.427,2.307,2.307,0,0,1-.258.008H68.724" transform="translate(-60.22 -164.811)" fill="#2aa5b5"/>
    <path id="Path_2284_-_Outline" data-name="Path 2284 - Outline" d="M66.657,177.058H64.8a.748.748,0,0,1-.167-1.486,1.052,1.052,0,0,1,.147-.009h3.228l4.616,0a1.147,1.147,0,0,1,.38.055.73.73,0,0,1,.478.79.737.737,0,0,1-.65.64,1.84,1.84,0,0,1-.208.009h-5.97Zm-1.873-1a.6.6,0,0,0-.078,0,.242.242,0,0,0-.215.264c0,.062.012.226.314.227h7.822a1.36,1.36,0,0,0,.152-.006.235.235,0,0,0,.212-.213.228.228,0,0,0-.148-.248.689.689,0,0,0-.216-.027l-4.615,0H64.784Z" transform="translate(-60.22 -164.811)" fill="#2aa5b5"/>
    <path id="Path_2285" data-name="Path 2285" d="M130.6,80.965c-.657,0-1.314.008-1.97,0a.489.489,0,0,1-.452-.721.475.475,0,0,1,.437-.268c1.337,0,2.674,0,4.011,0a.494.494,0,1,1-.009.988c-.672.007-1.345,0-2.017,0" transform="translate(-120.101 -74.966)" fill="#2aa5b5"/>
    <path id="Path_2285_-_Outline" data-name="Path 2285 - Outline" d="M129.433,81.217c-.312,0-.568,0-.807-.005a.767.767,0,0,1-.659-.371.728.728,0,0,1-.01-.718.721.721,0,0,1,.657-.4l2.132,0c.693,0,1.308,0,1.88,0a.745.745,0,0,1,.749.733.729.729,0,0,1-.205.526.77.77,0,0,1-.55.229c-.252,0-.527,0-.864,0l-1.129,0H130.6Zm1.314-1-2.131,0a.251.251,0,0,0-.217.365.268.268,0,0,0,.235.124c.236,0,.49.005.8.005l1.167,0h.027l1.129,0c.335,0,.608,0,.859,0a.274.274,0,0,0,.2-.077.23.23,0,0,0,.064-.168.242.242,0,0,0-.251-.243C132.053,80.221,131.439,80.22,130.746,80.22Z" transform="translate(-120.101 -74.966)" fill="#2aa5b5"/>
  </g>
</svg>
