<?xml version="1.0" encoding="UTF-8"?><svg id="Layer_1" xmlns="http://www.w3.org/2000/svg" width="40" height="40" viewBox="0 0 40 40"><g id="Events_log_icon"><path d="M30.4082,4.9136H13.2109c-.4321-.0093-.8521,.1616-1.1455,.4761-2.2129,2.2256-4.4653,4.4746-6.6919,6.6821-.3252,.3047-.5029,.7354-.4878,1.1777,0,5.6953,.0029,11.3916,.0088,17.0879-.0049,.3916,.0317,.7852,.1094,1.1709,.4326,2.0854,2.272,3.5767,4.3916,3.5767,.0303,0,.061,0,.0913-.001H30.3599c.0801,.0044,.1602,.0063,.2402,.0063,.0732,0,.146-.002,.2178-.0054,1.2046-.0581,2.314-.5815,3.1245-1.4746,.8105-.8926,1.2251-2.0474,1.167-3.2466V9.6499c.0068-.1421,.0073-.2847,.001-.4233-.1084-2.4863-2.2222-4.4116-4.7021-4.313ZM11.2217,11.2534c-.5977,.5933-1.5298,.8315-2.7671,.7188l3.5024-3.5078c.1094,1.2573-.1377,2.1953-.7354,2.7891ZM6.8887,30.3247V13.9424c.2715,.0005,.54,.002,.8062,.0034,.6079,.0034,1.1812,.0068,1.7656-.0034,2.0933-.0059,3.8828-1.4351,4.3521-3.479,.0903-.479,.1328-.9683,.127-1.4512,.0093-.4707,.0063-.9385,.0034-1.4341-.0015-.2168-.0029-.4375-.0034-.6636l16.4365-.0005c.1572-.0137,.3159-.0132,.4712,.0005,.6733,.0635,1.2822,.3853,1.7134,.9062,.4316,.521,.6343,1.1787,.5708,1.8628V30.3247c.0127,.1504,.0117,.3013-.0015,.4497-.0625,.6841-.3877,1.3032-.916,1.7432-.5273,.4399-1.1948,.6509-1.8901,.585l-20.6406,.0005c-.1631,.0161-.3281,.0166-.4893,.0024-.6782-.062-1.2915-.3848-1.7271-.9077-.4351-.5234-.6406-1.1851-.5781-1.873Z"/><path d="M28.0503,19.9746c-.0132-.2671-.1299-.5132-.3281-.6929-.1978-.1792-.4463-.2783-.7163-.2578H13.2856c-.1406-.0078-.2827-.0068-.4292,.0005-.5356,.0483-.9321,.5229-.8848,1.0552,.0356,.5688,.4521,.9082,1.1143,.9082l8.8057,.0054c1.1289,.0005,2.2573,.0039,3.3843,.0039,.5796,0,1.1582-.001,1.7344-.0039,.0161,.001,.0322,.0015,.0464,.0015h.0005c.2603-.0049,.5098-.0947,.6973-.2769,.188-.1826,.2935-.4272,.2969-.6909,0-.0181,0-.0356-.001-.0522Z"/><path d="M27.416,24.376c-.1836-.0571-.3755-.0811-.5615-.0771H13.1729c-.1138-.0039-.2305-.0005-.3467,.0107-.52,.063-.896,.521-.856,1.0405,.0298,.5771,.4424,.9214,1.1035,.9214h13.644c.0347,.001,.0688,.0015,.1035,.0015,.1206,0,.2427-.0054,.3657-.0161,.4521-.0479,.8047-.397,.8564-.8457,.0654-.4482-.1968-.8828-.6274-1.0352Z"/><path d="M27.0625,13.7422h-7.0645c-.0068-.0005-.0132-.0005-.02-.0005-.3608,0-.6934,.2085-.8486,.5303-.084,.1548-.124,.3291-.1162,.5049,.0234,.5205,.4541,.9282,.9644,.9282,.0142,0,.0288,0,.0435-.001,.3853,.0049,.7734,.0063,1.1602,.0063,.3882,0,.7749-.0015,1.1548-.0029,.3857-.002,.7715-.0034,1.1572-.0034v-.002c.3945,0,.7891,.0015,1.1836,.0029,.79,.0029,1.5806,.0059,2.3687-.0029h.0093c.2583,0,.502-.0991,.6865-.2803,.187-.1836,.291-.4287,.2935-.6909,.0049-.5405-.4307-.9839-.9722-.9888Z"/></g></svg>