<svg id="Warstwa_1" data-name="Warstwa 1" xmlns="http://www.w3.org/2000/svg" viewBox="0 0 24 24"><defs><style>.cls-1{fill:#959c9e;}</style></defs><path class="cls-1" d="M18.3428,7.7816l-.7241.7241A7.8113,7.8113,0,0,1,20.933,12c-1.0466,2.5105-4.5606,5-8.933,5a11.3253,11.3253,0,0,1-2.5756-.3l-.82.82A12.2712,12.2712,0,0,0,12,18h0c5,0,9-3,10-6A8.43,8.43,0,0,0,18.3428,7.7816Z"/><path class="cls-1" d="M12.1382,13.9862l-.91.91a2.9906,2.9906,0,0,0,3.6682-3.6682l-.91.91A1.9911,1.9911,0,0,1,12.1382,13.9862Z"/><path class="cls-1" d="M10.2634,14.4435l.0019.0015.7271-.7271-.002-.0014,2.7261-2.726.0014.0019.7271-.7271-.0015-.0017,2.2423-2.2422.0022.0009.7457-.7457-.0021-.001,2.9222-2.9221a.5.5,0,1,0-.7071-.707L16.45,6.8433A12.16,12.16,0,0,0,12,6h0C7,6,3,9,2,12a8.8744,8.8744,0,0,0,4.5669,4.7262l-2.92,2.92a.5.5,0,1,0,.7071.707l3.1918-3.1917.0024.001.7773-.7773-.0025-.0009Zm.0171-1.4311A1.96,1.96,0,0,1,10,12a2.0025,2.0025,0,0,1,2-2,1.96,1.96,0,0,1,1.0124.2808ZM7.3154,15.9775A8.2826,8.2826,0,0,1,3.067,12C4.1136,9.49,7.6276,7,12,7a11.234,11.234,0,0,1,3.6762.6169L13.7355,9.5575a2.9952,2.9952,0,0,0-4.1781,4.178Z"/></svg>