<?xml version="1.0" encoding="utf-8"?>
<!-- Generator: Adobe Illustrator 26.0.1, SVG Export Plug-In . SVG Version: 6.00 Build 0)  -->
<svg version="1.1" id="Layer_2" xmlns="http://www.w3.org/2000/svg" xmlns:xlink="http://www.w3.org/1999/xlink" x="0px" y="0px"
	 viewBox="0 0 40 40" style="enable-background:new 0 0 40 40;" xml:space="preserve">
<g id="folder_icon">
	<path d="M6.7,33.5c-1.9,0-3.5-1.6-3.5-3.5V10c0-1.9,1.6-3.5,3.5-3.5l11.3,0c0.6,0,1.2,0.3,1.5,0.8c0,0,0.9,1.4,1.3,2.1
		c0.1,0.2,0.4,0.4,0.6,0.4h11.8c1.9,0,3.5,1.6,3.5,3.5V30c0,1.9-1.6,3.5-3.5,3.5H6.7z M6.7,8.5c-0.8,0-1.5,0.7-1.5,1.5v20
		c0,0.8,0.7,1.5,1.5,1.5h26.7c0.8,0,1.5-0.7,1.5-1.5V13.3c0-0.8-0.7-1.5-1.5-1.5H21.5c-1,0-1.8-0.5-2.3-1.3c-0.4-0.6-1.1-1.7-1.3-2
		L6.7,8.5z"/>
</g>
</svg>
