<svg id="Layer_2" data-name="Layer 2" xmlns="http://www.w3.org/2000/svg" viewBox="0 0 40 40"><path d="M35.29,16.31a1.55,1.55,0,0,1,1.54,1.42l-2,12.4,0,.16v.15A1.55,1.55,0,0,1,33.29,32H7.71a1.55,1.55,0,0,1-1.54-1.42l2-12.41,0-.16v-.15a1.54,1.54,0,0,1,1.54-1.54H35.29m0-2H9.71a3.54,3.54,0,0,0-3.54,3.54l-2,12.59A3.55,3.55,0,0,0,7.71,34H33.29a3.55,3.55,0,0,0,3.54-3.55l2-12.59a3.54,3.54,0,0,0-3.54-3.54Z"/><path d="M32.33,9.35H22.52A.77.77,0,0,1,21.87,9c-.46-.73-1.35-2.1-1.35-2.1A1.82,1.82,0,0,0,19,6.06L7.67,6a3.52,3.52,0,0,0-3.5,3.5v21h2v-21A1.5,1.5,0,0,1,7.67,8l11.23,0,1.28,2a2.76,2.76,0,0,0,2.34,1.28h9.81a1.5,1.5,0,0,1,1.5,1.5v2.47h2V12.84A3.5,3.5,0,0,0,32.33,9.35Z"/></svg>