<svg id="Layer_1" data-name="Layer 1" xmlns="http://www.w3.org/2000/svg" viewBox="0 0 20 20"><defs><style>.cls-1{fill:#231f20;}</style></defs><path class="cls-1" d="M8.29,11.27H4.87l-.6,1.38a2.18,2.18,0,0,0-.22.76.44.44,0,0,0,.19.35,1.69,1.69,0,0,0,.83.2v.24H2.3V14A1.51,1.51,0,0,0,3,13.71a4,4,0,0,0,.74-1.26l3.1-7.21h.23l3.07,7.29a3.3,3.3,0,0,0,.67,1.14,1.37,1.37,0,0,0,.84.29v.24H8.19V14a1.3,1.3,0,0,0,.71-.18.45.45,0,0,0,.19-.36,2.66,2.66,0,0,0-.26-.9Zm-.18-.48L6.61,7.25,5.08,10.79Z"/><path class="cls-1" d="M15.61,13.35a9.83,9.83,0,0,1-1.15.81,1.76,1.76,0,0,1-.75.16,1.35,1.35,0,0,1-1-.42,1.54,1.54,0,0,1-.4-1.1,1.4,1.4,0,0,1,.2-.75,2.57,2.57,0,0,1,.93-.83,14.55,14.55,0,0,1,2.2-.94V10a1.92,1.92,0,0,0-.28-1.21,1,1,0,0,0-.82-.33.93.93,0,0,0-.65.22.66.66,0,0,0-.25.5V9.6a.64.64,0,0,1-.15.46.53.53,0,0,1-.4.16.51.51,0,0,1-.39-.17.66.66,0,0,1-.15-.46,1.32,1.32,0,0,1,.57-1,2.48,2.48,0,0,1,1.61-.47,2.82,2.82,0,0,1,1.3.26,1.23,1.23,0,0,1,.57.63,3.5,3.5,0,0,1,.12,1.14v2a9.15,9.15,0,0,0,0,1,.43.43,0,0,0,.11.25.25.25,0,0,0,.17.06.37.37,0,0,0,.18,0A4,4,0,0,0,17.7,13v.36q-.73,1-1.39,1a.63.63,0,0,1-.51-.22A1.17,1.17,0,0,1,15.61,13.35Zm0-.42V10.67a12.83,12.83,0,0,0-1.27.55,2.17,2.17,0,0,0-.74.59,1.14,1.14,0,0,0-.22.68,1.1,1.1,0,0,0,.28.77.85.85,0,0,0,.64.31A2.36,2.36,0,0,0,15.61,12.93Z"/></svg>