<svg id="Group_1713" data-name="Group 1713" xmlns="http://www.w3.org/2000/svg" xmlns:xlink="http://www.w3.org/1999/xlink" width="16" height="16.003" viewBox="0 0 16 16.003">
  <defs>
    <clipPath id="clip-path">
      <rect id="Rectangle_1656" data-name="Rectangle 1656" width="16" height="16.003" fill="#fff" stroke="#565c5e" stroke-width="0.7"/>
    </clipPath>
  </defs>
  <g id="Group_1712" data-name="Group 1712" clip-path="url(#clip-path)">
    <path id="Path_2232" data-name="Path 2232" d="M.886,253.468l-.161-.054a.98.98,0,0,1-.68-.917q-.008-1.859,0-3.718a.985.985,0,0,1,1-.97.986.986,0,0,1,1,.974c.008.833,0,1.666,0,2.5,0,.056,0,.113,0,.186H4.626a1,1,0,0,1,.3,1.974.15.15,0,0,0-.037.026Z" transform="translate(-0.039 -237.466)" fill="#fff" stroke="#565c5e" stroke-width="0.7"/>
    <path id="Path_2233" data-name="Path 2233" d="M253.265,4.877c-.015.038-.032.074-.044.113a1,1,0,0,1-1.954-.294c0-.823,0-1.645,0-2.468V2.033H251.1c-.833,0-1.666.006-2.5,0a.942.942,0,0,1-.894-.575.951.951,0,0,1,.12-1.042.914.914,0,0,1,.74-.377q1.874-.009,3.748,0a.971.971,0,0,1,.9.665c.02.058.039.117.059.175Z" transform="translate(-237.265 -0.03)" fill="#fff" stroke="#565c5e" stroke-width="0.7"/>
    <path id="Path_2234" data-name="Path 2234" d="M248.521,253.377c-.038-.015-.074-.032-.113-.044a1,1,0,0,1,.292-1.954c.832,0,1.665,0,2.5,0h.167v-.183q0-1.2,0-2.4a1,1,0,0,1,1.974-.294.151.151,0,0,0,.026.037v4a3.024,3.024,0,0,1-.106.287,1.056,1.056,0,0,1-.737.557Z" transform="translate(-237.364 -237.375)" fill="#fff" stroke="#565c5e" stroke-width="0.7"/>
    <path id="Path_2235" data-name="Path 2235" d="M2,2C2,2.9,2,3.776,2,4.65a.99.99,0,0,1-.76.983A.987.987,0,0,1,.008,4.712C0,3.462,0,2.212.007.962A.976.976,0,0,1,.972.006q1.859-.011,3.718,0a.985.985,0,0,1,.972,1,.987.987,0,0,1-.974,1c-.833.008-1.666,0-2.5,0H2" transform="translate(0 0)" fill="#fff" stroke="#565c5e" stroke-width="0.7"/>
  </g>
</svg>
