<svg id="Layer_2" data-name="Layer 2" xmlns="http://www.w3.org/2000/svg" viewBox="0 0 40 40"><path d="M33.33,6.5H6.67A3.5,3.5,0,0,0,3.17,10c0,4.54,0,15.36,0,20a3.5,3.5,0,0,0,3.5,3.5H33.33a3.5,3.5,0,0,0,3.5-3.5c0-4.54,0-15.35,0-20A3.5,3.5,0,0,0,33.33,6.5ZM34.83,30a1.54,1.54,0,0,1-1.54,1.5H6.67A1.51,1.51,0,0,1,5.17,30V10A1.53,1.53,0,0,1,6.71,8.51H33.33A1.5,1.5,0,0,1,34.83,10Z"/><path d="M17.13,24c-1.88,1.89-6.2,2.23-8.09.19-1.74-1.67-1.83-5.54-.85-7.72C9.88,12.49,17,13,17.12,17.69H14.48A1.92,1.92,0,0,0,11,16.8,5.94,5.94,0,0,0,10.12,20a4.24,4.24,0,0,0,.82,2.58,2.41,2.41,0,0,0,3.45.36V21.16H12.48V19.28h4.65Z"/><path d="M22.45,25.35H19.71V14h2.74Z"/><path d="M32.32,20.82H27.89v4.53H25.15V14h7.61V16.1H27.89v2.61h4.43Z"/></svg>