<?xml version="1.0" encoding="UTF-8" standalone="no"?>
<!DOCTYPE svg PUBLIC "-//W3C//DTD SVG 1.1//EN" "http://www.w3.org/Graphics/SVG/1.1/DTD/svg11.dtd">
<svg width="100%" height="100%" viewBox="0 0 20 16" version="1.1" xmlns="http://www.w3.org/2000/svg" xmlns:xlink="http://www.w3.org/1999/xlink" xml:space="preserve" xmlns:serif="http://www.serif.com/" style="fill-rule:evenodd;clip-rule:evenodd;stroke-linejoin:round;stroke-miterlimit:2;">
    <g transform="matrix(1,0,0,1,-690.873,-134.557)">
        <g transform="matrix(1,0,0,1,709.873,136.557)">
            <path d="M0,12C-0.001,12.551 -0.449,13 -1,13L-17,13C-17.268,13 -17.519,12.896 -17.707,12.707C-17.896,12.518 -18,12.267 -18,12L-18,0C-18,-0.551 -17.552,-1 -17,-1L-1,-1C-0.733,-1 -0.481,-0.896 -0.293,-0.707C-0.104,-0.518 0,-0.267 0,0L0,12ZM-1,-2L-17,-2C-18.104,-2 -19,-1.104 -19,0L-19,12C-19,13.104 -18.105,14 -17,14L-1,14C0.104,14 0.999,13.104 1,12L1,0C1,-1.104 0.104,-2 -1,-2" style="fill:rgb(150,156,158);fill-rule:nonzero;"/>
        </g>
        <g transform="matrix(1,0,0,1,694.873,145.556)">
            <path d="M0,-6L2.5,-6C2.775,-6 3,-6.225 3,-6.5C3,-6.775 2.775,-7 2.5,-7L-0.5,-7C-0.775,-7 -1,-6.775 -1,-6.5L-1,0.5C-1,0.616 -0.954,0.717 -0.889,0.802C-0.875,0.818 -0.868,0.839 -0.854,0.854C-0.763,0.944 -0.638,1 -0.5,1L2.5,1C2.568,1 2.634,0.986 2.694,0.961C2.813,0.91 2.909,0.814 2.96,0.694C2.985,0.635 3,0.569 3,0.5L3,-2.5C3,-2.775 2.774,-3 2.5,-3C2.225,-3 2,-2.775 2,-2.5L2,0L0,0L0,-6Z" style="fill:rgb(150,156,158);fill-rule:nonzero;"/>
        </g>
        <g transform="matrix(1,0,0,1,701.373,146.556)">
            <path d="M0,-8C-0.275,-8 -0.5,-7.775 -0.5,-7.5L-0.5,-0.5C-0.5,-0.225 -0.275,0 0,0C0.274,0 0.5,-0.225 0.5,-0.5L0.5,-7.5C0.5,-7.775 0.274,-8 0,-8" style="fill:rgb(150,156,158);fill-rule:nonzero;"/>
        </g>
        <g transform="matrix(1,0,0,1,708.372,146.556)">
            <path d="M0,-8L-2.999,-8C-3.274,-8 -3.499,-7.775 -3.499,-7.5L-3.499,-0.5C-3.499,-0.225 -3.274,0 -2.999,0C-2.725,0 -2.499,-0.225 -2.499,-0.5L-2.499,-3L-0.999,-3C-0.724,-3 -0.499,-3.225 -0.499,-3.5C-0.499,-3.775 -0.724,-4 -0.999,-4L-2.499,-4L-2.499,-7L0,-7C0.275,-7 0.5,-7.225 0.5,-7.5C0.5,-7.775 0.275,-8 0,-8" style="fill:rgb(150,156,158);fill-rule:nonzero;"/>
        </g>
    </g>
</svg>
