<svg id="Warstwa_2" data-name="Warstwa 2" xmlns="http://www.w3.org/2000/svg" viewBox="0 0 40 40"><path id="globe_icon" d="M20,3.33A16.67,16.67,0,1,0,36.67,20,16.69,16.69,0,0,0,20,3.33ZM34,24.22H29.13A30,30,0,0,0,29.44,20a30,30,0,0,0-.38-4.74h4.8a14.36,14.36,0,0,1,.18,9ZM12.56,20A26.78,26.78,0,0,1,13,15.26h6v9H12.89A27.34,27.34,0,0,1,12.56,20ZM20.94,5.47c2.42.64,4.51,3.66,5.63,7.79H20.94Zm-2,0v7.75H13.43C14.53,9.19,16.58,6.21,18.94,5.51Zm0,20.71v8.27c-2.46-.73-4.57-3.94-5.64-8.27Zm2,8.31V26.22H26.7C25.62,30.62,23.46,33.87,20.94,34.53Zm0-10.31v-9H27A26.78,26.78,0,0,1,27.44,20a27.34,27.34,0,0,1-.33,4.22ZM33,13.26H28.65a17.7,17.7,0,0,0-3.13-6.84A14.71,14.71,0,0,1,33,13.26ZM14.48,6.42a17.7,17.7,0,0,0-3.13,6.84H7A14.71,14.71,0,0,1,14.48,6.42ZM6.14,15.26h4.8a29.33,29.33,0,0,0-.07,9H6a14.36,14.36,0,0,1,.18-9Zm.6,11h4.49a18.25,18.25,0,0,0,3.25,7.36A14.76,14.76,0,0,1,6.74,26.22Zm18.78,7.36a18.25,18.25,0,0,0,3.25-7.36h4.49A14.76,14.76,0,0,1,25.52,33.58Z"/></svg>