<?xml version="1.0" encoding="UTF-8"?><svg id="Layer_1" xmlns="http://www.w3.org/2000/svg" width="40" height="40" viewBox="0 0 40 40"><path d="M30.1758,36.6299H9.8237c-.5522,0-1-.4478-1-1s.4478-1,1-1H30.1758c.5522,0,1,.4478,1,1s-.4478,1-1,1Z"/><path d="M9.835,32.6294c-.5522,0-1-.4478-1-1v-3.9146c0-.5522,.4478-1,1-1s1,.4478,1,1v3.9146c0,.5522-.4478,1-1,1Z"/><path d="M30.187,32.6294c-.5522,0-1-.4478-1-1V4.4077c0-.5522,.4478-1,1-1s1,.4478,1,1V31.6294c0,.5522-.4478,1-1,1Z"/><path d="M25.0986,32.6294c-.5522,0-1-.4478-1-1V14.3613c0-.5522,.4478-1,1-1s1,.4478,1,1V31.6294c0,.5522-.4478,1-1,1Z"/><path d="M20.0107,32.6294c-.5522,0-1-.4478-1-1v-10.5913c0-.5522,.4478-1,1-1s1,.4478,1,1v10.5913c0,.5522-.4478,1-1,1Z"/><path d="M14.9229,32.6294c-.5522,0-1-.4478-1-1V14.3613c0-.5522,.4478-1,1-1s1,.4478,1,1V31.6294c0,.5522-.4478,1-1,1Z"/></svg>