<svg xmlns="http://www.w3.org/2000/svg" width="16.952" height="17.3" viewBox="0 0 16.952 17.3">
  <g id="Graph_icon" data-name="Graph icon" transform="translate(0.15 0.15)">
    <path id="Path_2272" data-name="Path 2272" d="M193.542,6.943q0,2.976,0,5.952a.915.915,0,0,1-1.142.93.872.872,0,0,1-.676-.685,1.5,1.5,0,0,1-.031-.343q0-5.865,0-11.731a1.5,1.5,0,0,1,.058-.447.919.919,0,0,1,1.787.264c.011.526,0,1.053,0,1.58q0,2.24,0,4.48" transform="translate(-180.605 0)" fill="#2aa5b5"/>
    <path id="Path_2272_-_Outline" data-name="Path 2272 - Outline" d="M192.634,14a1.132,1.132,0,0,1-.271-.033,1.018,1.018,0,0,1-.785-.8,1.642,1.642,0,0,1-.035-.378c0-4.726,0-8.344,0-11.731a1.627,1.627,0,0,1,.065-.492,1.04,1.04,0,0,1,1.016-.723,1.189,1.189,0,0,1,.173.013,1.058,1.058,0,0,1,.891,1.016c.008.377.007.76.005,1.13q0,.227,0,.453,0,1.833,0,3.666v.815q0,.861,0,1.722c0,1.387,0,2.82,0,4.231A1.074,1.074,0,0,1,192.634,14ZM192.624.15a.745.745,0,0,0-.73.514,1.339,1.339,0,0,0-.05.4c0,3.386,0,7,0,11.73a1.373,1.373,0,0,0,.027.309.725.725,0,0,0,.566.574.832.832,0,0,0,.2.025.768.768,0,0,0,.757-.809c0-1.41,0-2.844,0-4.23q0-.861,0-1.722V6.128q0-1.833,0-3.666,0-.227,0-.455c0-.368,0-.749,0-1.122a.764.764,0,0,0-.635-.726A.889.889,0,0,0,192.624.15Z" transform="translate(-180.605 0)" fill="#565c5e"/>
    <path id="Path_2273" data-name="Path 2273" d="M64,53.485c0-1.522,0-3.044,0-4.566a.92.92,0,0,1,1.829-.177,1.511,1.511,0,0,1,.009.173q0,4.577,0,9.153a.918.918,0,0,1-1.831.134c-.016-.251-.007-.5-.007-.757q0-1.98,0-3.96" transform="translate(-60.301 -45.182)" fill="#2aa5b5"/>
    <path id="Path_2273_-_Outline" data-name="Path 2273 - Outline" d="M64.915,59.186a1.063,1.063,0,0,1-1.052-.974c-.012-.191-.011-.384-.009-.57,0-.066,0-.131,0-.2q0-1.71,0-3.42v-.54q0-.676,0-1.351c0-1.054,0-2.143,0-3.215a1.06,1.06,0,0,1,1.073-1.113c.038,0,.077,0,.115.005a1.057,1.057,0,0,1,.941.914,1.657,1.657,0,0,1,.01.19v1.631c0,2.466,0,5.015,0,7.523a1.052,1.052,0,0,1-.914,1.1A1.031,1.031,0,0,1,64.915,59.186Zm.014-11.08a.753.753,0,0,0-.773.814c0,1.071,0,2.161,0,3.214q0,.676,0,1.351v.54q0,1.71,0,3.42c0,.067,0,.133,0,.2,0,.181,0,.368.008.548a.759.759,0,0,0,.753.693.73.73,0,0,0,.117-.009.759.759,0,0,0,.662-.808c0-2.507,0-5.057,0-7.522V48.915a1.362,1.362,0,0,0-.008-.156.761.761,0,0,0-.669-.65C64.988,48.107,64.958,48.106,64.929,48.106Z" transform="translate(-60.301 -45.182)" fill="#565c5e"/>
    <path id="Path_2274" data-name="Path 2274" d="M127.856,84.4c0-1.227,0-2.453,0-3.68a.919.919,0,0,1,.63-.892.865.865,0,0,1,1,.3,1.2,1.2,0,0,1,.207.618c.014,2.432.011,4.863.007,7.295a.926.926,0,1,1-1.848-.009q0-1.818,0-3.637" transform="translate(-120.461 -75.166)" fill="#2aa5b5"/>
    <path id="Path_2274_-_Outline" data-name="Path 2274 - Outline" d="M128.786,89.173h-.026a1.078,1.078,0,0,1-1.054-1.134q0-1.33,0-2.659V84.4q0-.534,0-1.068c0-.856,0-1.741,0-2.612a1.071,1.071,0,0,1,.732-1.034,1.116,1.116,0,0,1,.355-.058.976.976,0,0,1,.822.422,1.347,1.347,0,0,1,.232.7c.014,2.444.011,4.846.007,7.3A1.088,1.088,0,0,1,128.786,89.173Zm.008-9.243a.817.817,0,0,0-.26.042.766.766,0,0,0-.527.75c0,.87,0,1.755,0,2.611q0,.534,0,1.068v.978q0,1.329,0,2.659a.778.778,0,0,0,.761.834h.019a.782.782,0,0,0,.769-.825c0-2.45.007-4.851-.007-7.294a1.052,1.052,0,0,0-.182-.536A.669.669,0,0,0,128.794,79.93Z" transform="translate(-120.461 -75.166)" fill="#565c5e"/>
    <path id="Path_2275" data-name="Path 2275" d="M1.852,130.946c0,.743,0,1.486,0,2.229a.933.933,0,0,1-.918,1A.936.936,0,0,1,0,133.186q-.006-2.251,0-4.5a.935.935,0,0,1,.931-.985.932.932,0,0,1,.918,1c0,.75,0,1.5,0,2.251" transform="translate(0 -120.314)" fill="#2aa5b5"/>
    <path id="Path_2275_-_Outline" data-name="Path 2275 - Outline" d="M.926,134.321a1.083,1.083,0,0,1-1.073-1.134c0-1.485,0-3,0-4.5a1.083,1.083,0,0,1,1.073-1.134H.935A1.079,1.079,0,0,1,2,128.694q0,.789,0,1.579v1.348q0,.777,0,1.554a1.079,1.079,0,0,1-1.067,1.145Zm0-6.471a.79.79,0,0,0-.773.835c0,1.5,0,3.017,0,4.5a.79.79,0,0,0,.773.835H.933a.781.781,0,0,0,.769-.846q0-.777,0-1.554v-1.348q0-.789,0-1.578a.78.78,0,0,0-.769-.846Z" transform="translate(0 -120.314)" fill="#565c5e"/>
    <path id="Path_2276" data-name="Path 2276" d="M7.3,263.745q-2.976,0-5.952,0a.915.915,0,0,1-.93-1.142.872.872,0,0,1,.685-.676,1.49,1.49,0,0,1,.343-.031c3.91,0,10.6,0,14.507,0a1.5,1.5,0,0,1,.447.058.919.919,0,0,1-.264,1.787c-.526.011-1.053,0-1.58,0H7.3" transform="translate(-0.365 -246.748)" fill="#2aa5b5"/>
    <path id="Path_2276_-_Outline" data-name="Path 2276 - Outline" d="M15.456,263.9l-.9,0H3.951l-2.6,0a1.117,1.117,0,0,1-.89-.417,1.057,1.057,0,0,1-.186-.911,1.018,1.018,0,0,1,.8-.785,1.637,1.637,0,0,1,.378-.035c3.91,0,10.6,0,14.507,0a1.627,1.627,0,0,1,.492.065,1.069,1.069,0,0,1-.307,2.08C15.938,263.9,15.722,263.9,15.456,263.9Zm-.9-.3.9,0c.264,0,.478,0,.675-.006a.769.769,0,0,0,.222-1.494,1.339,1.339,0,0,0-.4-.05c-3.91,0-10.6,0-14.507,0a1.366,1.366,0,0,0-.309.027.725.725,0,0,0-.574.566.749.749,0,0,0,.131.654.819.819,0,0,0,.654.3l2.6,0h10.6Z" transform="translate(-0.365 -246.748)" fill="#565c5e"/>
    <path id="Path_2277" data-name="Path 2277" d="M257.542,6.943q0,2.976,0,5.952a.915.915,0,0,1-1.142.93.872.872,0,0,1-.676-.685,1.494,1.494,0,0,1-.031-.343q0-5.865,0-11.731a1.5,1.5,0,0,1,.058-.447.919.919,0,0,1,1.787.264c.011.526,0,1.053,0,1.58q0,2.24,0,4.48" transform="translate(-240.903 0)" fill="#2aa5b5"/>
    <path id="Path_2277_-_Outline" data-name="Path 2277 - Outline" d="M256.634,14a1.131,1.131,0,0,1-.271-.033,1.018,1.018,0,0,1-.786-.8,1.639,1.639,0,0,1-.035-.378c0-4.728,0-8.346,0-11.731a1.628,1.628,0,0,1,.065-.492,1.04,1.04,0,0,1,1.016-.723,1.189,1.189,0,0,1,.173.013,1.058,1.058,0,0,1,.891,1.016c.008.378.007.761.005,1.132q0,.225,0,.451,0,1.867,0,3.734V8.638c0,1.4,0,2.838,0,4.256A1.074,1.074,0,0,1,256.634,14ZM256.624.15a.745.745,0,0,0-.73.514,1.34,1.34,0,0,0-.05.4c0,3.385,0,7,0,11.73a1.371,1.371,0,0,0,.027.309.725.725,0,0,0,.566.574.831.831,0,0,0,.2.025.768.768,0,0,0,.757-.809c0-1.419,0-2.861,0-4.256V6.2q0-1.867,0-3.733,0-.226,0-.452c0-.369,0-.75,0-1.125a.764.764,0,0,0-.635-.726A.889.889,0,0,0,256.624.15Z" transform="translate(-240.903 0)" fill="#565c5e"/>
  </g>
</svg>
