<svg id="Layer_2" data-name="Layer 2" xmlns="http://www.w3.org/2000/svg" viewBox="0 0 40 40"><g id="group_icon" data-name="group icon"><path d="M12.5,18.5a5.17,5.17,0,1,1,5.17-5.17A5.18,5.18,0,0,1,12.5,18.5Zm0-8.33a3.17,3.17,0,1,0,3.17,3.16A3.17,3.17,0,0,0,12.5,10.17Z"/><path d="M26.67,18.5a6,6,0,1,1,6-6,6,6,0,0,1-6,6Zm0-10a4,4,0,1,0,4,4,4,4,0,0,0-4-4Z"/><path d="M18.33,33.5a1.84,1.84,0,0,1-1.83-1.83V30a10.17,10.17,0,1,1,20.33,0v1.67A1.84,1.84,0,0,1,35,33.5Zm16.5-2V30A8.17,8.17,0,1,0,18.5,30v1.5Z"/><path d="M16.69,21.57a1.83,1.83,0,0,1,.11,2.25,10.58,10.58,0,0,0-1.75,5.83V30a1.83,1.83,0,0,1-1.83,1.83H5A1.83,1.83,0,0,1,3.17,30V28.33a8.54,8.54,0,0,1,8.5-8.5,8.4,8.4,0,0,1,4.7,1.44Zm-3.63,8.26a13.07,13.07,0,0,1,2-7,6.39,6.39,0,0,0-3.42-1,6.51,6.51,0,0,0-6.5,6.5v1.5Z"/></g></svg>