<?xml version="1.0" encoding="UTF-8" standalone="no"?>
<!DOCTYPE svg PUBLIC "-//W3C//DTD SVG 1.1//EN" "http://www.w3.org/Graphics/SVG/1.1/DTD/svg11.dtd">
<svg width="100%" height="100%" viewBox="0 0 48 48" version="1.1" xmlns="http://www.w3.org/2000/svg" xmlns:xlink="http://www.w3.org/1999/xlink" xml:space="preserve" xmlns:serif="http://www.serif.com/" style="fill-rule:evenodd;clip-rule:evenodd;stroke-linejoin:round;stroke-miterlimit:2;">
    <g id="group_icon" transform="matrix(2.66578,0,0,2.66578,7.95753,57.8186)">
        <g id="Path_2014" transform="matrix(1.00033,0,0,1.00033,-2.12641,-2.93297)">
            <path d="M4.75,-14.25C5.573,-14.25 6.25,-13.573 6.25,-12.75C6.25,-11.927 5.573,-11.25 4.75,-11.25C3.927,-11.25 3.25,-11.927 3.25,-12.75C3.25,-13.573 3.927,-14.25 4.75,-14.25M4.75,-10.5C5.984,-10.5 7,-11.516 7,-12.75C7,-13.984 5.984,-15 4.75,-15C3.516,-15 2.5,-13.984 2.5,-12.75C2.5,-11.516 3.516,-10.5 4.75,-10.5" style="fill-rule:nonzero;"/>
        </g>
        <g id="Path_2015" transform="matrix(1.00033,0,0,1.00033,-4.12708,-2.68288)">
            <path d="M13.124,-15.25C14.153,-15.249 14.999,-14.404 15,-13.375C14.999,-12.346 14.153,-11.501 13.124,-11.5C12.096,-11.502 11.251,-12.347 11.249,-13.375C11.25,-14.403 12.096,-15.249 13.124,-15.25M13.124,-10.75C14.564,-10.75 15.749,-11.935 15.749,-13.375C15.749,-14.815 14.564,-16 13.124,-16C11.684,-15.999 10.5,-14.815 10.5,-13.375C10.5,-11.935 11.685,-10.75 13.125,-10.75" style="fill-rule:nonzero;"/>
        </g>
        <g id="Path_2016" transform="matrix(1.00033,0,0,1.00033,-3.50187,-4.68355)">
            <path d="M16.249,-2.75L8.749,-2.75L8.749,-3.5C8.751,-5.557 10.443,-7.248 12.5,-7.25C14.556,-7.248 16.248,-5.556 16.25,-3.5L16.249,-2.75ZM12.5,-8C10.034,-7.993 8.007,-5.966 8,-3.5L8,-2.75C8.001,-2.339 8.339,-2.001 8.75,-2L16.25,-2C16.661,-2.001 16.999,-2.339 17,-2.75L17,-3.5C16.993,-5.966 14.966,-7.993 12.5,-8" style="fill-rule:nonzero;"/>
        </g>
        <g id="Path_2017" transform="matrix(1.00033,0,0,1.00033,-1.5012,-4.68355)">
            <path d="M5.381,-6.736C4.776,-5.823 4.452,-4.752 4.452,-3.657L4.452,-3.5L0.75,-3.5L0.75,-4.25C0.75,-5.896 2.104,-7.25 3.75,-7.25C4.333,-7.25 4.904,-7.078 5.39,-6.756C5.388,-6.749 5.385,-6.742 5.381,-6.736M5.825,-7.368C5.211,-7.78 4.489,-8 3.75,-8C1.695,-7.994 0.006,-6.305 0,-4.25L0,-3.5C0.001,-3.089 0.339,-2.751 0.75,-2.75L4.45,-2.75C4.861,-2.75 5.2,-3.089 5.2,-3.5L5.2,-3.657C5.199,-4.605 5.477,-5.532 6,-6.323C6.236,-6.659 6.155,-7.131 5.819,-7.368" style="fill-rule:nonzero;"/>
        </g>
    </g>
</svg>
