<svg id="Layer_1" data-name="Layer 1" xmlns="http://www.w3.org/2000/svg" viewBox="0 0 165 110"><path d="M118.6,90.4c-2.6-4.5-6.9-7.9-11.5-10.5-.1-2.7-.3-6.7-.3-6.7s-6.3-3-8.4-8.8c-4.3-1.7-3.7-2.8-4.2-5.1,0,0-1.3-9.1,1.6-8.9,0,0,2.5,0,2-2.1-.2-3.5-.5-10.2-.3-12.5s1.1-8.6,5.9-9.5a29.78,29.78,0,0,1,5.1-.7c1.6-.2,1.2-1.2,4.2-1.2l6.2-1c3,0,4.9,4.2,6.6,4.4s1.1-.7,4.5-.1c4.9.9,4.2,7.5,4.4,9.8s.4,9-.1,11.1,1,1.8,1,1.8c3.5,0,3.2,8.9,3.2,8.9-.5,2.4-1.8,2.6-5,4.7-2.1,5.8-7.5,9.4-7.5,9.4s-.5,4.5-.5,5.5c.1.4-2.6,7.3,10.8,9.2s15.7,6.3,18.2,8.7,3.1,7.9,3.1,7.9H122.3S120.7,94,118.6,90.4ZM55.1,6.3C55.8,6,57.7,5,57.7,5c3.9,0,5.5,8.9,7.6,9.2s2.6-.9,6.9-.1c6.3,1.2,4.2,1.5,4.5,4.5s.8,5,.2,7.7,5,2.4,5,2.4c4.5,0,3.1,14.4,3.1,14.4-.6,3-3.8,3.4-8,6-2.7,7.6-9.8,12.3-9.8,12.3s-.6,5.8-.6,7.2c.1.5.3,9.5,17.7,12,10.3,2,16.1,5.8,19.4,11.4,2.3,4,2.2,13,2.2,13H7.4s.9-9,3-13,3.7-8.8,21.2-11.4S47,68.8,47.6,69.1c-.1-3.5-.4-8.4-.4-8.4S39,56.8,36.3,49.2c-5.6-2.2-4.9-3.6-5.4-6.5,0,0-1.7-11.8,2.1-11.6,0,0,4.6,0,4-2.7-.3-4.5.1-4.6.4-7.6S39.9,9.9,46.3,8.7C46.3,8.7,53,7.1,55.1,6.3Z"/></svg>