<?xml version="1.0" encoding="utf-8"?>
<!-- Generator: Adobe Illustrator 26.0.1, SVG Export Plug-In . SVG Version: 6.00 Build 0)  -->
<svg version="1.1" id="Layer_2" xmlns="http://www.w3.org/2000/svg" xmlns:xlink="http://www.w3.org/1999/xlink" x="0px" y="0px"
	 viewBox="0 0 40 40" style="enable-background:new 0 0 40 40;" xml:space="preserve">
<g>
	<path d="M20,36.7c-4.5,0-8.7-1.7-11.8-4.9C5,28.7,3.3,24.5,3.3,20c0-9.2,7.5-16.7,16.7-16.7c4.5,0,8.7,1.7,11.8,4.9
		c3.1,3.1,4.9,7.3,4.9,11.8C36.7,29.2,29.2,36.7,20,36.7z M20,5.3C11.9,5.3,5.3,11.9,5.3,20c0,3.9,1.6,7.8,4.4,10.3
		c2.8,2.8,6.5,4.4,10.3,4.4c8.1,0,14.7-6.6,14.7-14.7c0-3.9-1.6-7.8-4.4-10.3C27.8,6.9,23.9,5.3,20,5.3z"/>
	<path d="M20,24.8c-0.5,0-1-0.5-1-1c-0.2-4.3,1.3-5.5,2.4-6.4c0.8-0.6,0.9-0.8,1.1-1.5c0-1.3-0.9-2.3-2.1-2.5c0,0,0,0,0,0
		c-1.6,0-2.7,0.9-2.7,2.1c0,0.5-0.5,1-1,1s-1-0.5-1-1c0.2-2.3,2-4,4.3-4c0.1,0,0.2,0,0.3,0c2.5,0.2,4.3,2.3,4.1,4.7
		c-0.2,1.4-0.9,2-1.6,2.7l-0.3,0.2C21.8,20,21,20.7,21,24C21,24.3,20.5,24.8,20,24.8z"/>
	<circle cx="20" cy="27.3" r="1"/>
</g>
</svg>
