<?xml version="1.0" encoding="utf-8"?>
<!-- Generator: Adobe Illustrator 26.3.1, SVG Export Plug-In . SVG Version: 6.00 Build 0)  -->
<svg version="1.1" id="Layer_1" xmlns:serif="http://www.serif.com/"
	 xmlns="http://www.w3.org/2000/svg" xmlns:xlink="http://www.w3.org/1999/xlink" x="0px" y="0px" viewBox="0 0 40 40"
	 style="enable-background:new 0 0 40 40;" xml:space="preserve">
<g>
	<path id="Path_2134" d="M19.3,32.1H4.7c-1.1,0-1.4-0.3-1.4-1.3c0-9.7,0-11.9,0-21.6c0-1,0.3-1.3,1.3-1.3h21.5c1,0,1.3,0.3,1.3,1.3
		c0,9.7,0,12,0,21.7c0,1-0.3,1.3-1.3,1.3L19.3,32.1 M10.8,9.8H5.3v5.5h5.5V9.8z M5.3,22.8h5.5v-5.5H5.3V22.8z M18.2,17.3h-5.4v5.5
		h5.5L18.2,17.3z M18.2,9.8h-5.5v5.5h5.5L18.2,9.8z M25.7,9.8h-5.4v5.5h5.4L25.7,9.8z M25.7,22.8v-5.5h-5.5c0,1.7,0,3.4,0,5.1
		c0,0.1,0.2,0.4,0.3,0.4C22.3,22.8,24,22.8,25.7,22.8 M5.3,30.2h5.5v-5.4H5.3V30.2z M12.8,30.2h5.5v-5.5h-5.5V30.2z M25.7,24.8h-5.5
		v5.4h5.5V24.8z"/>
	<path id="Path_2135" d="M33.8,15.2c-1.6,0-2.9-1.3-2.9-2.9c0,0,0,0,0,0c0-1.6,1.3-2.8,2.9-2.8c1.6,0,2.8,1.3,2.8,2.8
		C36.6,13.9,35.4,15.2,33.8,15.2C33.8,15.2,33.8,15.2,33.8,15.2 M33.8,11.4c-0.5,0-0.9,0.4-1,0.9c0,0.5,0.4,1,0.9,1c0,0,0,0,0,0
		c0.5,0,0.9-0.4,1-0.9C34.7,11.9,34.3,11.5,33.8,11.4C33.8,11.4,33.8,11.4,33.8,11.4"/>
	<path id="Path_2136" d="M33.8,22.9c-1.6,0-2.9-1.3-2.9-2.9c0,0,0,0,0,0c0-1.6,1.3-2.8,2.9-2.8c1.6,0,2.8,1.3,2.8,2.8
		C36.6,21.6,35.4,22.8,33.8,22.9C33.8,22.9,33.8,22.9,33.8,22.9 M33.8,19.1c-0.5,0-0.9,0.4-1,0.9c0,0.5,0.4,1,0.9,1c0,0,0,0,0,0
		c0.5,0,0.9-0.4,1-0.9C34.7,19.5,34.3,19.1,33.8,19.1C33.8,19.1,33.8,19.1,33.8,19.1"/>
	<path id="Path_2137" d="M33.8,30.5c-1.6,0-2.9-1.3-2.9-2.9c0,0,0,0,0,0c0-1.6,1.3-2.8,2.9-2.8c1.6,0,2.8,1.3,2.8,2.8
		C36.6,29.2,35.4,30.5,33.8,30.5C33.8,30.5,33.8,30.5,33.8,30.5 M33.8,26.7c-0.5,0-0.9,0.4-1,0.9c0,0.5,0.4,1,0.9,1c0,0,0,0,0,0
		c0.5,0,0.9-0.4,1-0.9C34.7,27.2,34.3,26.7,33.8,26.7C33.8,26.7,33.8,26.7,33.8,26.7"/>
</g>
</svg>
