<svg xmlns="http://www.w3.org/2000/svg" width="30.999" height="33" viewBox="0 0 30.999 33">
  <path id="Workplace_logo" data-name="Workplace logo" d="M73.312-434.6a17.914,17.914,0,0,0-4.119.925,19.019,19.019,0,0,0-3.945,2.124.66.66,0,0,1-.3.188,26.852,26.852,0,0,0-3.15,3.107,18.024,18.024,0,0,0-2.947,6.142,12.982,12.982,0,0,0-.347,3.974,12.815,12.815,0,0,0,.332,3.9,16.945,16.945,0,0,0,2.833,6,22.321,22.321,0,0,0,3.266,3.324.627.627,0,0,1,.318.188,14.954,14.954,0,0,0,3.483,1.922,17.669,17.669,0,0,0,9.134.968l.65-.087v-3.671l-1.04.2a17.2,17.2,0,0,1-6.112-.246,13.263,13.263,0,0,1-9.207-10.188,20.765,20.765,0,0,1,.231-5.708,13.2,13.2,0,0,1,6.734-8.194,15.014,15.014,0,0,1,5.781-1.489,14.755,14.755,0,0,1,3.757.737,11,11,0,0,1,6.433,6.192,11,11,0,0,1-.276,8.924,4.718,4.718,0,0,1-.578,1.041c-.072-.058-.217-.448-2.182-5.26-1.214-3.006-1.561-3.569-2.356-3.916a2.473,2.473,0,0,0-2.269-.058c-1.156.462-1.012.217-3.353,6-.506,1.272-.983,2.37-1.04,2.428s-.2-.1-.3-.361-.275-.679-.376-.91c-.347-.824-1.662-4.046-2.269-5.593l-.608-1.561H67.576a7.234,7.234,0,0,0-1.922.13,9.487,9.487,0,0,0,.578,1.532c.072.159.3.708.506,1.228s.434,1.069.506,1.228.621,1.517,1.228,3.035,1.156,2.876,1.228,3.035.3.708.521,1.228a5.4,5.4,0,0,0,.679,1.272,2.923,2.923,0,0,0,4.263-.072c.159-.231.78-1.647,1.387-3.15s1.171-2.876,1.243-3.035.26-.608.4-.983l.26-.708.275.636c.144.347.39.9.535,1.228a4.846,4.846,0,0,1,.26.694,2.432,2.432,0,0,0,.2.549c.116.26.578,1.373,1.026,2.486a13.34,13.34,0,0,0,1.127,2.356,2.958,2.958,0,0,0,4.22.014,14.567,14.567,0,0,0,2.645-4.538,17.641,17.641,0,0,0,.752-4.769A16.586,16.586,0,0,0,88.69-425a14.718,14.718,0,0,0-10.738-9.379A26.42,26.42,0,0,0,73.312-434.6Z" transform="translate(-58.5 434.631)" fill="#385898"/>
</svg>
