<svg id="Layer_1" data-name="Layer 1" xmlns="http://www.w3.org/2000/svg" viewBox="0 0 99.2126 99.2126"><defs><style>.cls-fb{fill:#4c76be;}.clis-20{fill:#fff;fill-rule:evenodd;}</style></defs><path class="cls-fb" d="M94.9606,9.6924V89.52a5.4358,5.4358,0,0,1-5.44,5.44H62.8426V64.02H73.3139c.5377-4.1091,1.0625-8.1672,1.613-12.3915H72.5715c-2.9827.0128-9.8185,0-9.8185,0s.0384-6.1062.1024-8.7687c.1024-3.6356,2.2658-4.7365,5.1717-4.8389,2.125-.0768,4.2372-.0256,6.3749-.0256h.87V26.9611c-1.1265-.1151-2.317-.2816-3.5075-.3327-2.1762-.1025-4.3524-.2049-6.5286-.1665a16.0819,16.0819,0,0,0-9.23,2.8547,13.8194,13.8194,0,0,0-5.5429,9.2168A32.5122,32.5122,0,0,0,50.08,43.27c-.064,2.4834-.0128,4.954-.0128,7.4375v.9344H39.5062V63.9692h10.51V94.9606H9.6924a5.4357,5.4357,0,0,1-5.44-5.44V9.6924a5.4358,5.4358,0,0,1,5.44-5.44H89.52A5.4359,5.4359,0,0,1,94.9606,9.6924Z"/><path class="clis-20" d="M62.8554,42.86c-.064,2.6625-.1024,8.7687-.1024,8.7687s6.8358.0128,9.8185,0h2.3554c-.55,4.2243-1.0753,8.2824-1.613,12.3915H62.8426v30.94H50.0159V63.9692h-10.51V51.6417H50.0671v-.9344c0-2.4835-.0512-4.9541.0128-7.4375a32.5122,32.5122,0,0,1,.3841-4.7364,13.8194,13.8194,0,0,1,5.5429-9.2168,16.0819,16.0819,0,0,1,9.23-2.8547c2.1762-.0384,4.3524.064,6.5286.1665,1.1905.0511,2.381.2176,3.5075.3327V37.9957h-.87c-2.1377,0-4.25-.0512-6.3749.0256C65.1212,38.1237,62.9578,39.2246,62.8554,42.86Z"/></svg>