<?xml version="1.0" encoding="UTF-8" standalone="no"?>
<!DOCTYPE svg PUBLIC "-//W3C//DTD SVG 1.1//EN" "http://www.w3.org/Graphics/SVG/1.1/DTD/svg11.dtd">
<svg width="100%" height="100%" viewBox="0 0 17 17" version="1.1" xmlns="http://www.w3.org/2000/svg" xmlns:xlink="http://www.w3.org/1999/xlink" xml:space="preserve" xmlns:serif="http://www.serif.com/" style="fill-rule:evenodd;clip-rule:evenodd;stroke-linejoin:round;stroke-miterlimit:2;">
    <g transform="matrix(1,0,0,1,-0.01,-0.04)">
        <path d="M8,10.89C9.569,10.89 10.86,9.599 10.86,8.03C10.86,6.461 9.569,5.17 8,5.17C6.442,5.17 5.156,6.442 5.14,8C5.14,8.01 5.14,8.02 5.14,8.03C5.14,9.599 6.431,10.89 8,10.89C8,10.89 8,10.89 8,10.89M4.7,10.89C4.633,10.895 4.566,10.897 4.498,10.897C2.929,10.897 1.638,9.606 1.638,8.037C1.638,6.517 2.851,5.248 4.37,5.18L4.7,5.18L4.7,10.89M11.28,14.05L11.28,11.33L14,11.33C14,11.333 14,11.337 14,11.34C14,12.827 12.777,14.05 11.29,14.05C11.29,14.05 11.29,14.05 11.29,14.05M4.69,2.05L4.69,4.74L2,4.74C2.016,3.267 3.227,2.061 4.7,2.05M4.7,14.05L4.7,11.33L2,11.33C2,11.333 2,11.337 2,11.34C2,12.823 3.217,14.045 4.7,14.05M14.59,10.5L14.59,5.58C15.934,6.38 16.385,8.143 15.59,9.49C15.344,9.901 15.001,10.244 14.59,10.49M5.59,1.49L10.5,1.49C9.994,0.599 9.046,0.046 8.021,0.046C7.526,0.046 7.04,0.175 6.61,0.42L6.55,0.42C6.144,0.671 5.801,1.014 5.55,1.42M11.29,10.86C12.793,10.771 13.981,9.51 13.981,8.005C13.981,6.5 12.793,5.239 11.29,5.15L11.29,10.86M10.85,4.71C10.761,3.207 9.5,2.019 7.995,2.019C6.49,2.019 5.229,3.207 5.14,4.71L10.85,4.71M1.4,10.49L1.4,5.58C0.061,6.384 -0.389,8.142 0.4,9.49C0.654,9.894 0.996,10.236 1.4,10.49M14,4.74L11.29,4.74L11.29,2.05C12.769,2.05 13.989,3.261 14,4.74" style="fill:rgb(236,32,47);fill-rule:nonzero;"/>
    </g>
    <g transform="matrix(1,0,0,1,-0.01,-0.04)">
        <path d="M4.59,15.93C4.305,15.93 4.07,15.695 4.07,15.41L4.07,8.71C4.067,8.689 4.066,8.668 4.066,8.647C4.066,8.394 4.258,8.178 4.51,8.15L8.94,8.15C9.222,8.15 9.455,8.379 9.46,8.66L9.46,9.78C9.46,9.783 9.46,9.787 9.46,9.79C9.46,10.064 9.234,10.29 8.96,10.29L6.48,10.29L6.48,11L8.61,11C8.613,11 8.617,11 8.62,11C8.9,11 9.13,11.23 9.13,11.51L9.13,12.62C9.13,12.9 8.9,13.13 8.62,13.13C8.617,13.13 8.613,13.13 8.61,13.13L6.48,13.13L6.48,15.35C6.48,15.637 6.247,15.875 5.96,15.88L4.59,15.88L4.59,15.93Z" style="fill:rgb(0,0,1);fill-rule:nonzero;"/>
    </g>
    <g transform="matrix(1,0,0,1,-0.01,-0.04)">
        <path d="M8.94,8.71L8.94,9.82L6,9.82L6,11.55L8.6,11.55L8.6,12.66L6,12.66L6,15.4L4.59,15.4L4.59,8.71L8.94,8.71M8.94,7.71L4.59,7.71C4.041,7.71 3.59,8.161 3.59,8.71L3.59,15.4C3.615,15.939 4.051,16.375 4.59,16.4L6,16.4C6.549,16.4 7,15.949 7,15.4L7,13.7L8.6,13.7C9.149,13.7 9.6,13.249 9.6,12.7L9.6,11.56C9.603,11.269 9.478,10.992 9.26,10.8C9.68,10.654 9.955,10.244 9.93,9.8L9.93,8.72C9.93,8.171 9.479,7.72 8.93,7.72L8.94,7.71Z" style="fill:white;fill-rule:nonzero;"/>
    </g>
    <g transform="matrix(1,0,0,1,-0.01,-0.04)">
        <path d="M14,15.93C13.803,15.923 13.625,15.808 13.54,15.63L12.43,13.47L12.2,13.47L12.2,15.4C12.2,15.687 11.967,15.925 11.68,15.93L10.3,15.93C10.015,15.93 9.78,15.695 9.78,15.41L9.78,8.71C9.778,8.693 9.777,8.676 9.777,8.659C9.777,8.393 9.985,8.169 10.25,8.15L12.79,8.15C13.556,8.103 14.315,8.33 14.93,8.79C15.487,9.256 15.797,9.955 15.77,10.68C15.781,11.183 15.649,11.679 15.39,12.11C15.222,12.367 15.004,12.588 14.75,12.76L15.92,15.05C15.94,15.129 15.94,15.211 15.92,15.29C15.92,15.575 15.685,15.81 15.4,15.81L14,15.81L14,15.93ZM12.76,11.31C12.915,11.328 13.072,11.289 13.2,11.2C13.292,11.104 13.336,10.972 13.32,10.84C13.32,10.59 13.24,10.49 13.2,10.47C13.075,10.374 12.917,10.331 12.76,10.35L12.2,10.35L12.2,11.35L12.76,11.31Z" style="fill:rgb(0,0,1);fill-rule:nonzero;"/>
    </g>
    <g transform="matrix(1,0,0,1,-0.01,-0.04)">
        <path d="M12.79,8.71C13.443,8.672 14.089,8.859 14.62,9.24C15.052,9.611 15.289,10.161 15.26,10.73C15.289,11.137 15.199,11.544 15,11.9C14.779,12.227 14.465,12.481 14.1,12.63L15.55,15.36L14,15.36L12.77,13L11.68,13L11.68,15.4L10.3,15.4L10.3,8.71L12.79,8.71M11.67,11.84L12.79,11.84C13.085,11.857 13.375,11.761 13.6,11.57C13.788,11.375 13.89,11.111 13.88,10.84C13.892,10.57 13.795,10.307 13.61,10.11C13.389,9.904 13.092,9.799 12.79,9.82L11.68,9.82L11.68,11.82M12.79,7.66L10.3,7.66C9.751,7.66 9.3,8.111 9.3,8.66L9.3,15.4C9.3,15.949 9.751,16.4 10.3,16.4L11.67,16.4C12.228,16.401 12.693,15.957 12.72,15.4L12.72,15.11L13.1,15.88C13.273,16.233 13.638,16.452 14.03,16.44L15.51,16.44C16.059,16.44 16.51,15.989 16.51,15.44C16.511,15.272 16.47,15.107 16.39,14.96L15.39,13.04C15.546,12.884 15.687,12.713 15.81,12.53C16.13,12.022 16.29,11.43 16.27,10.83C16.311,9.953 15.941,9.106 15.27,8.54C14.57,7.971 13.692,7.666 12.79,7.68L12.79,7.66Z" style="fill:white;fill-rule:nonzero;"/>
    </g>
</svg>
