<svg id="Warstwa_1" data-name="Warstwa 1" xmlns="http://www.w3.org/2000/svg" viewBox="0 0 24 24"><defs></defs><path  d="M20,4H4A2.0059,2.0059,0,0,0,2,6V18a2.0059,2.0059,0,0,0,2,2H20a2.0059,2.0059,0,0,0,2-2V6A2.0059,2.0059,0,0,0,20,4ZM4,5H20a1.0011,1.0011,0,0,1,1,1v6.2128l-3.378,3.36a1.59,1.59,0,0,1-1.0757.44,1.5044,1.5044,0,0,1-1.07-.4521l-3.8326-3.8961a2.2545,2.2545,0,0,0-1.604-.6782h-.0151a2.2551,2.2551,0,0,0-1.5972.6567L3,17.0165V6A1.0011,1.0011,0,0,1,4,5ZM20,19H4a.9993.9993,0,0,1-.932-.6456l.0011.0011L9.13,12.3546a1.2112,1.2112,0,0,1,.9024-.3677,1.2613,1.2613,0,0,1,.8979.3794l3.8326,3.896a2.5128,2.5128,0,0,0,3.564.02L21,13.6232V18A1.0011,1.0011,0,0,1,20,19Z"/><path d="M16.5,12A2.5,2.5,0,1,0,14,9.5,2.5,2.5,0,0,0,16.5,12Zm0-4A1.5,1.5,0,1,1,15,9.5,1.5018,1.5018,0,0,1,16.5,8Z"/></svg>