<?xml version="1.0" encoding="UTF-8" standalone="no"?>
<!DOCTYPE svg PUBLIC "-//W3C//DTD SVG 1.1//EN" "http://www.w3.org/Graphics/SVG/1.1/DTD/svg11.dtd">
<svg width="100%" height="100%" viewBox="0 0 66 75" version="1.1" xmlns="http://www.w3.org/2000/svg" xmlns:xlink="http://www.w3.org/1999/xlink" xml:space="preserve" xmlns:serif="http://www.serif.com/" style="fill-rule:evenodd;clip-rule:evenodd;stroke-linejoin:round;stroke-miterlimit:2;">
    <g transform="matrix(1,0,0,1,55.319,59.626)">
        <path d="M0,-44.678C-4.017,-47.297 -6.917,-51.488 -7.821,-56.373C-8.017,-57.428 -8.124,-58.514 -8.124,-59.626L-20.944,-59.626L-20.965,-8.244C-21.181,-2.491 -25.916,2.127 -31.722,2.127C-33.526,2.127 -35.225,1.676 -36.721,0.889C-40.151,-0.916 -42.499,-4.512 -42.499,-8.65C-42.499,-14.593 -37.664,-19.428 -31.722,-19.428C-30.612,-19.428 -29.548,-19.244 -28.542,-18.929L-28.542,-32.018C-29.583,-32.159 -30.642,-32.248 -31.722,-32.248C-44.734,-32.248 -55.319,-21.662 -55.319,-8.65C-55.319,-0.666 -51.331,6.399 -45.245,10.672C-41.413,13.362 -36.75,14.948 -31.722,14.948C-18.709,14.948 -8.124,4.362 -8.124,-8.65L-8.124,-34.704C-3.095,-31.095 3.065,-28.969 9.713,-28.969L9.713,-41.789C6.132,-41.789 2.797,-42.854 0,-44.678" />
    </g>
</svg>
