<svg id="Layer_1" data-name="Layer 1" xmlns="http://www.w3.org/2000/svg" viewBox="0 0 20 20"><defs></defs><path d="M10.08,13.1a3.18,3.18,0,0,1-2.25-.93.5.5,0,0,1,.71-.71,2.15,2.15,0,0,0,.72.48,2.2,2.2,0,0,0,1.64,0,2.18,2.18,0,0,0,.72-.48l3.73-3.73a2.19,2.19,0,0,0-.72-3.57,2.19,2.19,0,0,0-1.65,0,2.16,2.16,0,0,0-.72.48l-.93.93a.5.5,0,0,1-.71-.71l.93-.93a3.17,3.17,0,0,1,1.05-.7,3.21,3.21,0,0,1,2.4,0,3.18,3.18,0,0,1,1.05,5.2l-3.73,3.73a3.17,3.17,0,0,1-2.25.93Z"/><path d="M6.18,17a3.18,3.18,0,0,1-2.25-5.44L7.66,7.83a3.15,3.15,0,0,1,1.05-.7,3.21,3.21,0,0,1,2.4,0,3.16,3.16,0,0,1,1.05.7.5.5,0,1,1-.71.71,2.15,2.15,0,0,0-.72-.48,2.2,2.2,0,0,0-1.65,0,2.16,2.16,0,0,0-.72.48L4.64,12.27a2.18,2.18,0,0,0,.72,3.57,2.2,2.2,0,0,0,1.65,0,2.16,2.16,0,0,0,.72-.48l.93-.93a.5.5,0,0,1,.71.71l-.93.93A3.17,3.17,0,0,1,6.18,17Z"/></svg>