<?xml version="1.0" encoding="utf-8"?>
<!-- Generator: Adobe Illustrator 23.0.1, SVG Export Plug-In . SVG Version: 6.00 Build 0)  -->
<svg version="1.1" id="Layer_1" xmlns="http://www.w3.org/2000/svg" xmlns:xlink="http://www.w3.org/1999/xlink" x="0px" y="0px"
	 viewBox="0 0 141.7323 99.2126" enable-background="new 0 0 141.7323 99.2126" xml:space="preserve">
<g>
	<path fill="#EA543C" d="M102.3103,47.8745c2.5588-4.0519,2.8414-9.1385,0.7472-13.4489
		c-2.8751-4.1457-7.7277-6.4627-12.7592-6.0922c-4.9866,0.0145-9.9236,0.9902-14.5409,2.8737
		c1.9825-4.4643,1.3416-9.658-1.6667-13.5063c-3.4484-3.4484-9.5981-3.5634-17.2421-0.3448
		c-8.3568,3.8013-15.9222,9.1439-22.2998,15.7478C23.9161,43.8514,16.7894,56.1508,16.502,64.6569
		c-0.0661,0.8417-0.0661,1.6872,0,2.5288c0,7.644,5.3451,14.7133,15.0581,19.9434c10.8296,5.3773,22.7979,8.0588,34.8866,7.8164
		c12.0887,0.2424,24.057-2.4391,34.8866-7.8164c9.7131-5.2301,15.0581-12.2994,15.0581-19.9434S111.1038,53.0472,102.3103,47.8745z"
		/>
	<path fill="#D83F27" d="M71.7917,93.1064c-12.0887,0.2424-24.057-2.4391-34.8866-7.8164
		C27.1921,80.0598,21.847,72.9906,21.847,65.3466c-0.0661-0.8417-0.0661-1.6872,0-2.5288
		c0.3448-8.5061,7.4141-20.863,18.1042-31.5531c6.3539-6.5654,13.8778-11.8867,22.1849-15.6903
		c-1.8283,0.4436-3.6163,1.0395-5.3451,1.7817c-8.3363,3.8075-15.8817,9.1498-22.2423,15.7478
		C23.9161,43.8514,16.7894,56.1508,16.502,64.6569c-0.0661,0.8417-0.0661,1.6872,0,2.5288c0,7.644,5.3451,14.7133,15.0581,19.9434
		c10.8296,5.3773,22.7979,8.0588,34.8866,7.8164c9.8,0.1163,19.5389-1.5588,28.7369-4.9427
		C87.5698,92.1265,79.6958,93.1712,71.7917,93.1064z"/>
	<path fill="#FFFFFF" d="M93.8617,61.5533c-0.9196-6.8284-5.2511-12.7193-11.4948-15.6329
		c-7.5311-3.7798-15.9897-5.316-24.3689-4.4255c-8.3205,0.6155-16.2941,3.5856-22.9895,8.5636
		c-5.6905,3.8682-9.0248,10.3636-8.851,17.2421c0.9196,6.8284,5.2511,12.7193,11.4948,15.6329
		c6.1653,3.1641,13.0144,4.7629,19.9434,4.6554c1.4943,0,2.9886,0,4.4829,0c8.3205-0.6155,16.2941-3.5856,22.9895-8.5636
		C90.8071,75.0994,94.1278,68.5015,93.8617,61.5533z"/>
	<path fill="#E5E5E5" d="M65.1248,85.6923c-1.4943,0-2.9886,0-4.483,0c-6.929,0.1075-13.7781-1.4912-19.9434-4.6554
		c-6.2436-2.9136-10.5752-8.8045-11.4948-15.6329c-0.1738-6.8786,3.1605-13.3739,8.851-17.2421
		c1.2972-0.9749,2.6607-1.8583,4.0806-2.6438c-2.6814,1.2085-5.209,2.7327-7.5291,4.5404
		c-5.6905,3.8682-9.0248,10.3636-8.851,17.2421c0.9196,6.8284,5.2511,12.7193,11.4948,15.6329
		c6.1653,3.1641,13.0144,4.7629,19.9434,4.6554c1.4943,0,2.9886,0,4.483,0c6.7808-0.4758,13.3738-2.438,19.3112-5.7474
		C75.9586,84.0216,70.5935,85.324,65.1248,85.6923z"/>
	<path fill="#333333" d="M77.4242,61.6682C74.435,52.627,64.6825,47.7208,55.6412,50.7099
		c-0.0382,0.0126-0.0764,0.0254-0.1146,0.0383c-9.4216,1.3832-15.9379,10.1423-14.5546,19.5638
		c0.0045,0.0307,0.0091,0.0615,0.0138,0.0922c1.0855,4.2869,4.0701,7.843,8.1038,9.6556c2.6934,1.2757,5.641,1.9242,8.6211,1.8966
		c1.743-0.0073,3.4791-0.2195,5.1726-0.6322C72.3049,79.941,78.8212,71.182,77.438,61.7604
		C77.4334,61.7297,77.4288,61.699,77.4242,61.6682z"/>
	<circle fill="#FFFFFF" cx="54.2048" cy="69.9445" r="6.4945"/>
	<path fill="#FAA92C" d="M95.8732,19.9998c-1.5871,0-2.8737,1.2866-2.8737,2.8737c0,1.5871,1.2866,2.8737,2.8737,2.8737l0,0
		c5.6183,0,10.1729,4.5545,10.1729,10.1729l0,0c0,1.5871,1.2866,2.8737,2.8737,2.8737c1.5871,0,2.8737-1.2866,2.8737-2.8737
		c0.0957-8.6967-6.8767-15.8245-15.5735-15.9202C96.1044,19.9985,95.9888,19.9985,95.8732,19.9998z"/>
	<path fill="#FAA92C" d="M93.8617,4.252h-2.0691c-2.0474,0.127-3.6041,1.8896-3.4772,3.937s1.8896,3.6041,3.937,3.4772h1.6093
		c13.2998,0.0348,24.0532,10.8446,24.0184,24.1444c-0.004,1.5418-0.1561,3.0797-0.4542,4.5925
		c-0.4126,1.9997,0.874,3.9554,2.8737,4.368s3.9554-0.8739,4.368-2.8737c3.3964-17.0597-7.6798-33.6427-24.7396-37.0392
		C97.9303,4.4604,95.8986,4.2574,93.8617,4.252z"/>
	<circle fill="#FFFFFF" cx="66.2168" cy="63.5074" r="3.6783"/>
</g>
</svg>
