<?xml version="1.0" encoding="utf-8"?>
<!-- Generator: Adobe Illustrator 23.0.1, SVG Export Plug-In . SVG Version: 6.00 Build 0)  -->
<svg version="1.1" id="Warstwa_1" xmlns="http://www.w3.org/2000/svg" xmlns:xlink="http://www.w3.org/1999/xlink" x="0px" y="0px"
	 viewBox="0 0 24 24" enable-background="new 0 0 24 24" xml:space="preserve">
<g>
	<g id="grid_1_">
		<path fill="#FEA63E" d="M10.7361,3.7303L2.0291,18.8105c-0.4026,0.6989-0.1625,1.5919,0.5364,1.9945
			C2.7872,20.9327,3.0384,20.9999,3.2942,21H20.706c0.8066-0.0002,1.4603-0.6542,1.4601-1.4607
			c-0.0001-0.2558-0.0673-0.5071-0.195-0.7287L13.2641,3.7303c-0.4027-0.6981-1.2951-0.9375-1.9932-0.5347
			C11.0487,3.3237,10.8643,3.5081,10.7361,3.7303z"/>
	</g>
	<g id="trim_area_1_">
		<circle fill="#FFFFFF" cx="12.0001" cy="17.5181" r="1.0841"/>
		<path fill="#FFFFFF" d="M12.0001,14.441c-0.4575,0-0.8285-0.3709-0.8285-0.8285V8.1294c0-0.4575,0.3709-0.8285,0.8285-0.8285
			s0.8285,0.3709,0.8285,0.8285v5.4832C12.8286,14.0701,12.4577,14.441,12.0001,14.441z"/>
	</g>
</g>
</svg>
