<?xml version="1.0" encoding="utf-8"?>
<!-- Generator: Adobe Illustrator 23.0.1, SVG Export Plug-In . SVG Version: 6.00 Build 0)  -->
<svg version="1.1" id="Layer_1" xmlns="http://www.w3.org/2000/svg" xmlns:xlink="http://www.w3.org/1999/xlink" x="0px" y="0px"
	 viewBox="0 0 99.2126 99.2126" enable-background="new 0 0 99.2126 99.2126" xml:space="preserve">
<g>
	<g>
		<path fill="#47B0D3" d="M94.9595,9.6935v79.8257c0,3.0082-2.4321,5.4403-5.4403,5.4403H9.6935
			c-3.0082,0-5.4403-2.4321-5.4403-5.4403V9.6935c0-3.0082,2.4322-5.4403,5.4403-5.4403h79.8257
			C92.5274,4.2531,94.9595,6.6853,94.9595,9.6935z"/>
	</g>
	<path fill="#3298BA" d="M94.9531,89.8229v0.064c-0.192,2.8417-2.5473,5.0691-5.4275,5.0691H9.6998
		c-3.0082,0-5.4403-2.4321-5.4403-5.4403V9.6899c0-2.9057,2.2786-5.2867,5.1459-5.4275c0.0128,0,0.0384-0.0128,0.0512,0
		C9.3671,4.4288,9.2903,4.5696,9.2262,4.7232C8.9958,5.3121,8.9318,5.9137,8.855,7.245v78.52c0,2.4962,1.9969,4.4931,4.4931,4.4931
		h78.5328c0.192,0,0.4224,0,0.6657-0.0128c0.6144-0.0256,1.3184-0.0896,1.8817-0.2432c0.0256,0,0.0513,0,0.0768-0.0127
		C94.6714,89.9508,94.825,89.8868,94.9531,89.8229z"/>
	<g>
		<path fill="#FFFFFF" d="M25.2294,43.0625c0-13.4872,10.8897-24.3769,24.3769-24.3769s24.3769,10.8897,24.3769,24.3769
			S49.6063,80.627,49.6063,80.627S25.2294,56.5497,25.2294,43.0625z"/>
		<path fill="#E5E5E5" d="M30.8241,43.0625c0-12.4882,9.3911-22.8784,21.5796-24.277c-0.8992-0.0999-1.8982-0.1998-2.7974-0.1998
			c-13.4872,0-24.3769,10.8897-24.3769,24.3769s24.3769,37.5645,24.3769,37.5645s1.099-1.099,2.7974-2.8973
			C46.0097,70.8362,30.8241,53.6525,30.8241,43.0625z"/>
		<path fill="#E35336" d="M49.6063,28.0767c-0.4995,0-0.8992,0-1.3987,0.0999c0.8992,0.9991,1.3987,2.2978,1.3987,3.6965
			c0,3.0971-2.4976,5.5947-5.5947,5.5947c-2.6974,0-4.9953-1.8982-5.4948-4.3958c-2.3977,2.6974-3.8963,6.1941-3.8963,10.0905
			c0,8.2922,6.6937,14.9858,14.9858,14.9858s14.9858-6.6937,14.9858-14.9858S57.8985,28.0767,49.6063,28.0767z"/>
	</g>
</g>
</svg>
