<svg id="Layer_1" data-name="Layer 1" xmlns="http://www.w3.org/2000/svg" xmlns:xlink="http://www.w3.org/1999/xlink" viewBox="0 0 158 158">
  <defs>
    <style>
      .cls-1 {
        fill: #f60;
      }

      .cls-2 {
        fill: url(#linear-gradient);
      }

      .cls-3 {
        fill: url(#linear-gradient-2);
      }

      .cls-4 {
        fill: url(#linear-gradient-3);
      }

      .cls-5 {
        fill: url(#Gradient_bez_nazwy_275);
      }

      .cls-6 {
        fill: url(#Gradient_bez_nazwy_275-2);
      }

      .cls-7 {
        fill: url(#Gradient_bez_nazwy_275-3);
      }
    </style>
    <linearGradient id="linear-gradient" x1="87.17" y1="-1146.7" x2="222.79" y2="-1132.45" gradientTransform="matrix(1, 0, 0, -1, 0, -1049.2)" gradientUnits="userSpaceOnUse">
      <stop offset="0.1" stop-color="#f58220"/>
      <stop offset="0.9" stop-color="#f60"/>
    </linearGradient>
    <linearGradient id="linear-gradient-2" x1="92.52" y1="-1134.15" x2="131.66" y2="-1241.69" gradientTransform="matrix(1, 0, 0, -1, 0, -1049.2)" gradientUnits="userSpaceOnUse">
      <stop offset="0.1" stop-color="#f60"/>
      <stop offset="0.9" stop-color="#ff8700"/>
    </linearGradient>
    <linearGradient id="linear-gradient-3" x1="148.03" y1="-1254.69" x2="217.65" y2="-1165.57" xlink:href="#linear-gradient-2"/>
    <linearGradient id="Gradient_bez_nazwy_275" data-name="Gradient bez nazwy 275" x1="215.33" y1="-1150.22" x2="200.73" y2="-1139.72" gradientTransform="matrix(1, 0, 0, -1, 0, -1049.2)" gradientUnits="userSpaceOnUse">
      <stop offset="0" stop-color="#080a09" stop-opacity="0.1"/>
      <stop offset="0.94" stop-color="#87236b" stop-opacity="0"/>
    </linearGradient>
    <linearGradient id="Gradient_bez_nazwy_275-2" x1="106.9" y1="-1130.34" x2="105.71" y2="-1140.35" xlink:href="#Gradient_bez_nazwy_275"/>
    <linearGradient id="Gradient_bez_nazwy_275-3" x1="132.99" y1="-1237.37" x2="146.35" y2="-1231.69" xlink:href="#Gradient_bez_nazwy_275"/>
  </defs>
  <path class="cls-1" d="M235.41,123c0-.78,0-1.55-.06-2.33s0-1.81-.09-2.71a1.15,1.15,0,0,1,0-.19c-.05-.86-.1-1.73-.17-2.6s-.11-1.74-.19-2.6c-.08-1.13-.2-2.26-.3-3.37a157.9,157.9,0,0,0-4.14-23h0q-1.94-7.51-4.56-14.69a.16.16,0,0,1,0-.1c-.1-.3-.29-.8-.3-.84-.32-.85-.63-1.66-1-2.5,0,0-.44-.93-.68-1.38a21.43,21.43,0,0,0-9.54-9.08.84.84,0,0,0-.19-.08c-1-.4-2.57-1-3-1.14a147.22,147.22,0,0,0-15.22-4.74q-5.92-1.52-12-2.59l-2.46-.41c-.81-.12-1.62-.25-2.46-.36s-1.63-.23-2.45-.34l-2.45-.29H174c-.79-.09-1.6-.18-2.42-.24s-1.66-.17-2.49-.23L166.59,47l-2.52-.15c-.83,0-1.67-.06-2.53-.09-1.65-.06-3.31-.08-5-.08l-2.67,0c-.78,0-1.55,0-2.33.06-.53,0-1.61.09-1.63.1-.37,0-.71,0-1.09,0a.5.5,0,0,1-.18,0l-2.61.15-2.59.19-2.58.22c-.93.1-1.87.2-2.77.32s-1.87.22-2.79.34l-1.05.15-1.05.15h-.13l-1.13.18-1.14.17-.4.07L130,49l-1.9.33-2.5.48c-.85.16-1.68.34-2.5.52-2,.44-4.07.91-6.06,1.43h0a152,152,0,0,0-14.75,4.6q-2,.72-4,1.5A21.57,21.57,0,0,0,88.15,68.65c-.14.32-.27.66-.39,1Q85.29,76.16,83.39,83a.49.49,0,0,0,0,.16c-.24.87-.49,1.74-.72,2.62l-.11.39a158.79,158.79,0,0,0,0,79c0,.14.08.29.11.43a150.11,150.11,0,0,0,5,15.66.31.31,0,0,0,0,.12c.2.55.4,1.08.63,1.62,0,0,0,0,0,0a21.5,21.5,0,0,0,11,10.93l1.79.69a151.28,151.28,0,0,0,15.89,5c2.17.55,8.16,1.9,12,2.58l2.93.48,1.38.2c.49.08,1,.15,1.48.21l2.1.27c.82.11,1.6.2,2.39.29l1.1.11c.93.09,1.86.18,2.82.25h.1c.6,0,1.2.08,1.79.13l1.9.13,1.89.11q.51,0,1,0c.74,0,1.5.06,2.24.07.59,0,1.21,0,1.82.05.84,0,1.68,0,2.54,0,2.62,0,5.21-.06,7.81-.19l2.61-.16c.86-.05,1.73-.12,2.59-.19s1.73-.14,2.58-.23c1.24-.11,2.48-.25,3.7-.41.62-.07,1.24-.16,1.86-.24.35,0,.69-.08,1.05-.14l1-.15,1.78-.27,1.41-.24c.63-.11,1.27-.21,1.9-.34l2.5-.46,2.5-.52c2-.44,4.36-1,6.36-1.52,0,0,9.89-2.66,14.84-4.66,0,0,3.12-1.17,3.14-1.19a21.58,21.58,0,0,0,9.68-9.1,20.21,20.21,0,0,0,.93-1.93c.14-.33.25-.66.39-1,2.54-6.43,5.24-16.59,5.24-16.6.81-3.14,1.52-6.34,2.14-9.56.13-.68.27-1.38.38-2.07.16-.91.33-1.84.46-2.77,0-.16.07-.33.09-.5.09-.66.2-1.33.29-2,.13-.82.23-1.64.34-2.46s.2-1.65.29-2.48.19-1.65.27-2.49l.21-2.5q.12-1.25.18-2.52t.15-2.52c0-.83.06-1.67.09-2.53.06-1.65.08-3.31.08-5C235.43,124.79,235.42,123.89,235.41,123Zm-37.6,3.06a8.59,8.59,0,0,1-1.18,3.94l0,.07-.24.38a9.31,9.31,0,0,1-.79,1.14c-.53.57-1.08,1.13-1.62,1.69l0,0a126.09,126.09,0,0,1-59.1,34.18c-1,.26-2.06.52-3.11.76h0a9.76,9.76,0,0,1-4.46-.47,8.79,8.79,0,0,1-4.88-4.56c-.16-.32-.29-.64-.42-1l0-.06,0-.1c-.22-.59-.37-1.21-.54-1.82a127.22,127.22,0,0,1,.09-69.62c.18-.6.36-1.19.53-1.78.08-.26.24-.79.26-.8a10.15,10.15,0,0,1,1.35-1.94,10.3,10.3,0,0,1,2-1.83A9.12,9.12,0,0,1,131.82,83l2.84.7A126.15,126.15,0,0,1,194,118.09c.52.52,1,1.07,1.54,1.61a9.45,9.45,0,0,1,2.23,5.5Z" transform="translate(-77.48 -46.64)"/>
  <g>
    <path class="cls-2" d="M197.68,126.08a8.94,8.94,0,0,1-1.45,4.36c.74-.73,24.21-24.17,29.69-58.95-.09-.29-.32-.91-.33-.95-.31-.84-.63-1.66-1-2.49,0,0-.45-.94-.7-1.39a21.35,21.35,0,0,0-9.53-9.08l-.19-.09c-1-.39-2.57-1-3-1.14A148,148,0,0,0,196,51.62q-5.91-1.51-12-2.6l-2.45-.4-2.46-.37-2.46-.34-2.45-.29a.18.18,0,0,0-.1,0l-2.42-.24-2.5-.22L166.6,47l-2.53-.14-2.52-.1c-1.66-.06-3.33-.08-5-.08l-2.67,0c-.78,0-1.56,0-2.33.06-.53,0-1.61.1-1.64.11-.37,0-.71,0-1.08,0a.55.55,0,0,1-.18,0q-1.3.06-2.61.15l-2.6.19c-.87.07-1.72.14-2.58.23s-1.86.2-2.78.31l-2.78.34-1.06.15-1,.15h-.11l-1.15.18-1.14.18-.4.06-.38.07-1.9.34-2.52.47-2.49.51c-2,.45-4.06.92-6.07,1.45h0a150.34,150.34,0,0,0-14.76,4.6c-1.32.48-2.64,1-4,1.5A21.61,21.61,0,0,0,88.1,68.61c-.13.33-.26.66-.38,1q-2.52,6.61-4.43,13.5c18.29-5.69,48.61.1,48.61.1.95.22,1.89.45,2.83.69a125.54,125.54,0,0,1,59.18,34.24c.53.52,1,1.06,1.54,1.61a9.32,9.32,0,0,1,2.23,5.48Z" transform="translate(-77.48 -46.64)"/>
    <path class="cls-3" d="M131.9,83.19s-30.32-5.79-48.61-.1h0c-.24.87-.49,1.74-.72,2.62l-.11.4a158.8,158.8,0,0,0,0,79c0,.15.07.29.11.43a150.24,150.24,0,0,0,5,15.67.73.73,0,0,0,0,.12q.3.82.63,1.62s0,0,0,0a21.38,21.38,0,0,0,11,10.94s1.78.7,1.78.7a155.54,155.54,0,0,0,15.91,5c2.17.56,8.18,1.91,12.06,2.58,1,.17,1.95.33,2.92.48l1.4.2c.49.09,1,.16,1.48.22s1.87.25,2.09.27l2.4.29,1.1.11,2.83.26c-14.55-23-20.72-40.43-21.26-42l0-.06a.18.18,0,0,1,0-.05c-.19-.59-.37-1.2-.54-1.81a126.53,126.53,0,0,1,.1-69.39c.17-.59.34-1.18.52-1.77.08-.25.24-.78.25-.79a10.78,10.78,0,0,1,1.35-1.94,10,10,0,0,1,2-1.83A9.09,9.09,0,0,1,131.9,83.19Z" transform="translate(-77.48 -46.64)"/>
    <path class="cls-4" d="M235.48,125.69c0-.9,0-1.79,0-2.67s0-1.57-.06-2.34-.06-1.81-.1-2.72a1.09,1.09,0,0,1,0-.18c0-.87-.09-1.74-.15-2.61s-.12-1.74-.19-2.59c-.1-1.14-.21-2.27-.31-3.39a158.16,158.16,0,0,0-4.15-23v0a153.54,153.54,0,0,0-4.57-14.69c-5.48,34.78-28.95,58.22-29.69,59h0a9.22,9.22,0,0,1-.79,1.13l-1.61,1.68,0,0a125.62,125.62,0,0,1-58.91,34.06c-1,.26-2.06.51-3.09.75h0a9.7,9.7,0,0,1-4.45-.46,9,9,0,0,1-5.31-5.57c.54,1.57,6.71,19,21.26,42l1.89.14c.63.05,1.26.1,1.89.13l1.89.11,1,0c.74,0,1.49.06,2.24.08l1.81,0c.85,0,1.69,0,2.55,0q3.93,0,7.81-.19l2.61-.16,2.6-.19c.87-.07,1.72-.14,2.58-.23,1.24-.11,2.48-.25,3.71-.41.62-.07,1.24-.16,1.85-.24.35,0,.7-.08,1.06-.14l1-.16c.6-.07,1.18-.17,1.78-.26l1.41-.24c.63-.11,1.27-.21,1.9-.33l2.52-.48c.83-.17,1.67-.33,2.49-.51,2-.44,4.36-1,6.36-1.52,0,0,9.9-2.66,14.85-4.67l3.15-1.19a21.41,21.41,0,0,0,9.67-9.1c.35-.62.66-1.27.95-1.93l.38-1c2.54-6.43,5.24-16.59,5.24-16.6q1.22-4.72,2.15-9.57c.13-.68.26-1.37.38-2.07.16-.91.32-1.84.46-2.77l.09-.5c.09-.66.2-1.33.29-2,.12-.83.23-1.65.34-2.47s.2-1.64.3-2.48.17-1.66.26-2.49l.21-2.5c.07-.84.13-1.67.18-2.52s.11-1.68.14-2.52.07-1.68.1-2.53C235.46,129,235.48,127.37,235.48,125.69Z" transform="translate(-77.48 -46.64)"/>
  </g>
  <g>
    <path class="cls-5" d="M225.92,71.49c0-.1-.06-.2-.1-.3l-.15-.42s0-.1,0-.14l0-.08c-.31-.88-1-2.5-1-2.5-.13-.26-.25-.53-.38-.8s-.19-.39-.3-.59a21.66,21.66,0,0,0-3.8-5,22,22,0,0,0-2.07-1.78,21.1,21.1,0,0,0-3.67-2.25l-.19-.09c-1-.38-1.93-.74-2.92-1.1l-.09,0c-1-.37-2-.72-3-1.07A117.75,117.75,0,0,1,186,101.45v0a11.61,11.61,0,0,1-.7,1.2c-.47.6-1,1.2-1.46,1.8l0,0c-.7.85-1.41,1.69-2.12,2.52a127.88,127.88,0,0,1,12.29,11.09c.52.53,1,1.06,1.53,1.61a10.37,10.37,0,0,1,1.57,2.59,8.31,8.31,0,0,1,.66,2.89v.87a6.54,6.54,0,0,1-.09.89c0,.24-.09.47-.15.71A8.19,8.19,0,0,1,197,129a10,10,0,0,1-.69,1.34l-.08.13h0l0,0,0-.05a117.63,117.63,0,0,0,27.1-47.42A98.45,98.45,0,0,0,225.92,71.49Z" transform="translate(-77.48 -46.64)"/>
    <path class="cls-6" d="M131.9,83.19h0l-.64-.12-.64-.11c-1-.17-2.64-.43-4.65-.71-3.07-.43-7.11-.91-11.61-1.25l-3.17-.2c-9.18-.49-19.72-.24-27.86,2.3h0c-.24.87-.49,1.74-.72,2.63h0c0,.12,0,.17-.08.29a.62.62,0,0,0,0,.1c-.5,2-.88,3.57-1.28,5.38q-1.41,6.36-2.29,12.91c17.31-3.21,38.22-.9,38.22-.9l1.41.21a121,121,0,0,1,3-12.94q.34-1.23.72-2.43l0-.1a0,0,0,0,1,0,0,5.09,5.09,0,0,1,.32-.56c.16-.26.34-.5.53-.76l.08-.09.42-.52c.07-.1.15-.19.22-.28a4.91,4.91,0,0,1,.51-.51c.21-.2.45-.39.7-.59s.37-.3.59-.46a8.29,8.29,0,0,1,3.06-1.2,9.23,9.23,0,0,1,1.3-.14h.39l.62,0c.26,0,.53,0,.8.07h.08Z" transform="translate(-77.48 -46.64)"/>
    <path class="cls-7" d="M167.46,204.26c-11.59-17.78-17-30.7-17.48-32,0,0,0,0,0-.06a.18.18,0,0,1,0,0c-.22-.58-.43-1.18-.64-1.78q-1.16-3.36-2.11-6.8a124.92,124.92,0,0,1-12.33,3.82c-1,.26-2.06.51-3.09.75h0a9.92,9.92,0,0,1-3.51-.18,9.5,9.5,0,0,1-.95-.28,9.05,9.05,0,0,1-5.26-5.47l0-.09,0,.09c.72,2.09,6.93,19.33,21.22,41.9l1.88.14c.63.05,1.27.1,1.9.13l1.89.11,1,0,2.24.07,1.81,0,2.55,0c2.63,0,5.22-.06,7.81-.19l2.61-.15Z" transform="translate(-77.48 -46.64)"/>
  </g>
</svg>
