<?xml version="1.0" encoding="UTF-8" standalone="no"?>
<!DOCTYPE svg PUBLIC "-//W3C//DTD SVG 1.1//EN" "http://www.w3.org/Graphics/SVG/1.1/DTD/svg11.dtd">
<svg width="100%" height="100%" viewBox="0 0 17 17" version="1.1" xmlns="http://www.w3.org/2000/svg" xmlns:xlink="http://www.w3.org/1999/xlink" xml:space="preserve" xmlns:serif="http://www.serif.com/" style="fill-rule:evenodd;clip-rule:evenodd;stroke-linejoin:round;stroke-miterlimit:2;">
    <g transform="matrix(1,0,0,1,-0.01,-0.04)">
        <path d="M8,10.89C9.569,10.89 10.86,9.599 10.86,8.03C10.86,6.461 9.569,5.17 8,5.17C6.442,5.17 5.156,6.442 5.14,8C5.14,8.01 5.14,8.02 5.14,8.03C5.14,9.599 6.431,10.89 8,10.89C8,10.89 8,10.89 8,10.89M4.7,10.89C4.633,10.895 4.566,10.897 4.498,10.897C2.929,10.897 1.638,9.606 1.638,8.037C1.638,6.517 2.851,5.248 4.37,5.18L4.7,5.18L4.7,10.89M11.28,14.05L11.28,11.33L14,11.33C14,11.333 14,11.337 14,11.34C14,12.827 12.777,14.05 11.29,14.05C11.29,14.05 11.29,14.05 11.29,14.05M4.69,2.05L4.69,4.74L2,4.74C2.016,3.267 3.227,2.061 4.7,2.05M4.7,14.05L4.7,11.33L2,11.33C2,11.333 2,11.337 2,11.34C2,12.823 3.217,14.045 4.7,14.05M14.59,10.5L14.59,5.58C15.934,6.38 16.385,8.143 15.59,9.49C15.344,9.901 15.001,10.244 14.59,10.49M5.59,1.49L10.5,1.49C9.994,0.599 9.046,0.046 8.021,0.046C7.526,0.046 7.04,0.175 6.61,0.42L6.55,0.42C6.144,0.671 5.801,1.014 5.55,1.42M11.29,10.86C12.793,10.771 13.981,9.51 13.981,8.005C13.981,6.5 12.793,5.239 11.29,5.15L11.29,10.86M10.85,4.71C10.761,3.207 9.5,2.019 7.995,2.019C6.49,2.019 5.229,3.207 5.14,4.71L10.85,4.71M1.4,10.49L1.4,5.58C0.061,6.384 -0.389,8.142 0.4,9.49C0.654,9.894 0.996,10.236 1.4,10.49M14,4.74L11.29,4.74L11.29,2.05C12.769,2.05 13.989,3.261 14,4.74" style="fill:rgb(236,32,47);fill-rule:nonzero;"/>
    </g>
    <g transform="matrix(1,0,0,1,-0.01,-0.04)">
        <path d="M4.44,16C4.16,16 3.93,15.77 3.93,15.49L3.93,8.63C3.935,8.359 4.159,8.14 4.43,8.14C4.433,8.14 4.437,8.14 4.44,8.14L9,8.14C9.003,8.14 9.007,8.14 9.01,8.14C9.29,8.14 9.52,8.37 9.52,8.65L9.52,9.78C9.52,10.06 9.29,10.29 9.01,10.29C9.007,10.29 9.003,10.29 9,10.29L6.35,10.29L6.35,10.91L8.54,10.91C8.814,10.91 9.04,11.136 9.04,11.41L9,11.41L9,12.51C9,12.784 8.774,13.01 8.5,13.01L6.35,13.01L6.35,13.84L9,13.84C9.274,13.84 9.5,14.066 9.5,14.34L9.5,15.53C9.475,15.789 9.26,15.991 9,16L4.44,16Z" style="fill:rgb(0,0,1);fill-rule:nonzero;"/>
    </g>
    <g transform="matrix(1,0,0,1,-0.01,-0.04)">
        <path d="M9,8.63L9,9.76L5.84,9.76L5.84,11.38L8.53,11.38L8.53,12.49L5.84,12.49L5.84,14.31L9,14.31L9,15.5L4.44,15.5L4.44,8.63L9,8.63M9,7.63L4.44,7.63C3.891,7.63 3.44,8.081 3.44,8.63L3.44,15.44C3.44,15.989 3.891,16.44 4.44,16.44L9,16.44C9.549,16.44 10,15.989 10,15.44L10,14.25C10.002,13.734 9.604,13.296 9.09,13.25C9.365,13.064 9.531,12.752 9.53,12.42L9.53,11.32C9.53,11.077 9.441,10.842 9.28,10.66C9.72,10.532 10.018,10.118 10,9.66L10,8.52C9.99,8.011 9.569,7.598 9.06,7.598C9.04,7.598 9.02,7.599 9,7.6L9,7.63Z" style="fill:white;fill-rule:nonzero;"/>
    </g>
    <g transform="matrix(1,0,0,1,-0.01,-0.04)">
        <path d="M14,16C13.825,15.999 13.661,15.913 13.56,15.77L11.75,12.77L11.75,15.46C11.75,15.467 11.75,15.473 11.75,15.48C11.75,15.745 11.535,15.965 11.27,15.97L9.83,15.97C9.556,15.97 9.33,15.744 9.33,15.47L9.33,8.63C9.33,8.361 9.551,8.14 9.82,8.14C9.823,8.14 9.827,8.14 9.83,8.14L11.24,8.14C11.414,8.143 11.576,8.233 11.67,8.38L13.48,11.38L13.48,8.63C13.485,8.359 13.709,8.14 13.98,8.14C13.987,8.14 13.993,8.14 14,8.14L15.43,8.14C15.71,8.14 15.94,8.37 15.94,8.65L15.94,15.47C15.94,15.75 15.71,15.98 15.43,15.98L14,15.98L14,16Z" style="fill:rgb(0,0,1);fill-rule:nonzero;"/>
    </g>
    <g transform="matrix(1,0,0,1,-0.01,-0.04)">
        <path d="M15.38,8.63L15.38,15.44L14,15.44L11.27,11L11.27,15.49L9.84,15.49L9.84,8.63L11.24,8.63L14,13.13L14,8.63L15.4,8.63M15.42,7.63L14,7.63C13.451,7.63 13,8.081 13,8.63L13,9.53L12.1,8.14C11.909,7.843 11.583,7.66 11.23,7.65L9.84,7.65C9.291,7.65 8.84,8.101 8.84,8.65L8.84,15.5C8.84,16.049 9.291,16.5 9.84,16.5L11.24,16.5C11.789,16.5 12.24,16.049 12.24,15.5L12.24,14.6L13.11,16C13.314,16.296 13.662,16.461 14.02,16.43L15.42,16.43C15.969,16.43 16.42,15.979 16.42,15.43L16.42,8.63C16.42,8.081 15.969,7.63 15.42,7.63Z" style="fill:white;fill-rule:nonzero;"/>
    </g>
</svg>
