<svg id="Layer_1" data-name="Layer 1" xmlns="http://www.w3.org/2000/svg" viewBox="0 0 141.7323 99.2126"><defs><style>.cls-youtube{fill:red;}.cls-youtube-2{fill:#fff;}</style></defs><path class="cls-youtube" d="M132.95,18.4163A16.2293,16.2293,0,0,0,121.4937,6.96C111.3881,4.252,70.8661,4.252,70.8661,4.252s-40.5219,0-50.6275,2.7078A16.2293,16.2293,0,0,0,8.782,18.4163c-2.7077,10.1056-2.7077,31.19-2.7077,31.19s0,21.0844,2.7077,31.19A16.2293,16.2293,0,0,0,20.2386,92.2528c10.1056,2.7078,50.6275,2.7078,50.6275,2.7078s40.522,0,50.6276-2.7078A16.2293,16.2293,0,0,0,132.95,80.7963c2.7078-10.1056,2.7078-31.19,2.7078-31.19S135.658,28.5219,132.95,18.4163Z"/><polygon class="cls-youtube-2" points="57.908 69.044 91.573 49.607 57.908 30.169 57.908 69.044"/></svg>