<?xml version="1.0" encoding="utf-8"?>
<!-- Generator: Adobe Illustrator 21.0.2, SVG Export Plug-In . SVG Version: 6.00 Build 0)  -->
<svg version="1.1" id="Layer_1" xmlns="http://www.w3.org/2000/svg" xmlns:xlink="http://www.w3.org/1999/xlink" x="0px" y="0px"
	 viewBox="0 0 20 20" style="enable-background:new 0 0 20 20;" xml:space="preserve">
<style type="text/css">
</style>
<g>
	<rect x="15.9" y="15.5" width="2.6" height="1"/>
	<rect x="1.5" y="15.5" width="12.2" height="1"/>
	<rect x="11.1" y="9.5" width="7.4" height="1"/>
	<rect x="1.5" y="9.5" width="7.4" height="1"/>
	<rect x="6.3" y="3.5" width="12.2" height="1"/>
	<rect x="1.5" y="3.5" width="2.6" height="1"/>
	<path d="M5.2,6.1C4,6.1,3.1,5.2,3.1,4S4,1.9,5.2,1.9c1.2,0,2.1,0.9,2.1,2.1S6.4,6.1,5.2,6.1z M5.2,2.9
		C4.6,2.9,4.1,3.4,4.1,4s0.5,1.1,1.1,1.1S6.3,4.6,6.3,4S5.8,2.9,5.2,2.9z"/>
	<path d="M10,12.1c-1.2,0-2.1-0.9-2.1-2.1S8.8,7.9,10,7.9s2.1,0.9,2.1,2.1S11.2,12.1,10,12.1z M10,8.9
		c-0.6,0-1.1,0.5-1.1,1.1s0.5,1.1,1.1,1.1s1.1-0.5,1.1-1.1S10.6,8.9,10,8.9z"/>
	<path d="M14.8,18.1c-1.2,0-2.1-0.9-2.1-2.1s0.9-2.1,2.1-2.1s2.1,0.9,2.1,2.1S16,18.1,14.8,18.1z M14.8,14.9
		c-0.6,0-1.1,0.5-1.1,1.1s0.5,1.1,1.1,1.1s1.1-0.5,1.1-1.1S15.4,14.9,14.8,14.9z"/>
</g>
</svg>
