<?xml version="1.0" encoding="utf-8"?>
<!-- Generator: Adobe Illustrator 23.0.1, SVG Export Plug-In . SVG Version: 6.00 Build 0)  -->
<svg version="1.1" id="Layer_1" xmlns="http://www.w3.org/2000/svg" xmlns:xlink="http://www.w3.org/1999/xlink" x="0px" y="0px"
	 viewBox="0 0 99.2126 99.2126" enable-background="new 0 0 99.2126 99.2126" xml:space="preserve">
<g>
	<g>
		<path fill="#1DA1F2" d="M94.9595,9.6935v79.8257c0,3.0082-2.4321,5.4403-5.4403,5.4403H9.6935
			c-3.0082,0-5.4403-2.4321-5.4403-5.4403V9.6935c0-3.0082,2.4322-5.4403,5.4403-5.4403h79.8257
			C92.5274,4.2531,94.9595,6.6853,94.9595,9.6935z"/>
	</g>
	<path fill="#FFFFFF" d="M37.6336,75.8327c24.3559,0,37.6751-20.1781,37.6751-37.6751c0-0.5734-0.0116-1.1442-0.0378-1.7119
		c2.5852-1.869,4.8328-4.201,6.6058-6.8561c-2.3727,1.0539-4.9259,1.7643-7.6043,2.0845c2.7337-1.639,4.8327-4.233,5.8226-7.3248
		c-2.5591,1.5168-5.3917,2.6201-8.4078,3.2141c-2.4164-2.5737-5.8576-4.1836-9.6655-4.1836
		c-7.3132,0-13.2435,5.9303-13.2435,13.2405c0,1.0393,0.1165,2.0497,0.3436,3.0192C38.1168,39.0864,28.3581,33.817,21.8281,25.805
		c-1.1383,1.9564-1.7934,4.2301-1.7934,6.6552c0,4.5941,2.3378,8.6495,5.8925,11.022c-2.1718-0.0668-4.2126-0.6637-5.9973-1.6564
		c-0.0029,0.0552-0.0029,0.1107-0.0029,0.1688c0,6.4136,4.5649,11.7675,10.6233,12.9816c-1.1121,0.3026-2.2825,0.4658-3.4906,0.4658
		c-0.853,0-1.6828-0.0844-2.4892-0.2388c1.6856,5.2607,6.5737,9.0891,12.3701,9.197c-4.5329,3.5517-10.242,5.6682-16.4459,5.6682
		c-1.0685,0-2.1223-0.0611-3.1587-0.1834C23.1964,73.6405,30.1544,75.8327,37.6336,75.8327"/>
</g>
</svg>
