<?xml version="1.0" encoding="UTF-8" standalone="no"?>
<!DOCTYPE svg PUBLIC "-//W3C//DTD SVG 1.1//EN" "http://www.w3.org/Graphics/SVG/1.1/DTD/svg11.dtd">
<svg width="100%" height="100%" viewBox="0 0 16 16" version="1.1" xmlns="http://www.w3.org/2000/svg" xmlns:xlink="http://www.w3.org/1999/xlink" xml:space="preserve" xmlns:serif="http://www.serif.com/" style="fill-rule:evenodd;clip-rule:evenodd;stroke-linejoin:round;stroke-miterlimit:2;">
    <g id="Ellipse_1">
        <circle cx="8" cy="8" r="7.4" style="fill:rgb(255,102,102);"/>
        <path d="M8,-0C3.585,-0 -0,3.585 -0,8C-0,12.415 3.585,16 8,16C12.415,16 16,12.415 16,8C16,3.585 12.415,-0 8,-0ZM8,1.2C11.753,1.2 14.8,4.247 14.8,8C14.8,11.753 11.753,14.8 8,14.8C4.247,14.8 1.2,11.753 1.2,8C1.2,4.247 4.247,1.2 8,1.2Z"/>
    </g>
    <g id="Forma_1" transform="matrix(1,0,0,1,-505.697,-445.267)">
        <path d="M515.16,457.32C514.766,457.475 514.452,457.594 514.217,457.675C513.953,457.761 513.677,457.803 513.399,457.798C512.998,457.822 512.601,457.698 512.286,457.449C512.026,457.229 511.879,456.903 511.886,456.563C511.886,456.42 511.896,456.278 511.915,456.136C511.935,455.991 511.967,455.828 512.015,455.644L512.509,453.902C512.552,453.734 512.59,453.575 512.62,453.427C512.648,453.292 512.663,453.155 512.664,453.017C512.682,452.85 512.633,452.683 512.527,452.552C512.373,452.447 512.186,452.401 512,452.422C511.867,452.422 511.735,452.442 511.608,452.48C511.475,452.521 511.36,452.558 511.265,452.594L511.395,452.057C511.718,451.924 512.027,451.811 512.322,451.719C512.592,451.629 512.874,451.581 513.158,451.577C513.555,451.551 513.947,451.674 514.258,451.921C514.512,452.146 514.654,452.473 514.643,452.813C514.643,452.889 514.634,453.022 514.616,453.213C514.6,453.391 514.567,453.567 514.516,453.739L514.025,455.476C513.985,455.616 513.949,455.775 513.917,455.953C513.89,456.087 513.874,456.223 513.87,456.36C513.849,456.532 513.906,456.706 514.025,456.832C514.185,456.931 514.373,456.975 514.56,456.958C514.698,456.955 514.835,456.934 514.967,456.894C515.079,456.866 515.189,456.829 515.295,456.784L515.16,457.32ZM515.073,450.269C514.85,450.479 514.553,450.594 514.246,450.588C513.939,450.593 513.641,450.479 513.416,450.269C513.196,450.072 513.07,449.79 513.07,449.495C513.07,449.199 513.196,448.917 513.416,448.72C513.64,448.508 513.938,448.392 514.246,448.398C514.553,448.392 514.851,448.508 515.073,448.72C515.292,448.918 515.417,449.199 515.417,449.495C515.417,449.79 515.292,450.071 515.073,450.269Z" style="fill-rule:nonzero;"/>
    </g>
</svg>
