<?xml version="1.0" encoding="UTF-8" standalone="no"?>
<!DOCTYPE svg PUBLIC "-//W3C//DTD SVG 1.1//EN" "http://www.w3.org/Graphics/SVG/1.1/DTD/svg11.dtd">
<svg width="100%" height="100%" viewBox="0 0 56 55" version="1.1" xmlns="http://www.w3.org/2000/svg" xmlns:xlink="http://www.w3.org/1999/xlink" xml:space="preserve" xmlns:serif="http://www.serif.com/" style="fill-rule:evenodd;clip-rule:evenodd;stroke-linejoin:round;stroke-miterlimit:2;">
    <g id="g3391" transform="matrix(1,0,0,1,66.3705,-535.166)">
        <path id="path3098" d="M-27.984,563.42L-28.024,563.753L-28.131,564.046L-30.675,568.46L-33.653,573.606L-33.887,573.993L-34.177,574.313L-34.5,574.606L-34.832,574.833L-35.259,575.033L-35.639,575.167L-36.107,575.273L-36.535,575.313L-47.592,575.313L-47.827,575.273L-48.06,575.22L-48.255,575.073L-48.44,574.94L-48.586,574.793L-48.682,574.553L-48.771,574.313L-48.771,573.793L-48.634,573.513L-45.752,568.46L-43.154,563.9L-42.911,563.566L-42.628,563.233L-42.297,562.953L-41.919,562.673L-41.547,562.486L-41.119,562.34L-40.691,562.246L-28.918,562.246L-28.744,562.34L-28.504,562.433L-28.358,562.566L-28.171,562.766L-28.077,562.953L-28.024,563.193L-27.984,563.42ZM-27.984,559.54L-28.024,559.206L-28.131,558.913L-30.675,554.486L-33.653,549.313L-33.887,548.98L-34.177,548.646L-34.5,548.353L-34.832,548.113L-35.259,547.926L-35.639,547.78L-36.107,547.686L-36.535,547.646L-47.592,547.646L-47.827,547.686L-48.06,547.74L-48.255,547.833L-48.44,547.966L-48.586,548.166L-48.682,548.406L-48.771,548.593L-48.771,549.166L-48.634,549.447L-45.752,554.487L-43.154,559.06L-42.911,559.393L-42.628,559.727L-42.297,560.007L-41.919,560.247L-41.547,560.433L-41.119,560.58L-40.691,560.673L-40.223,560.713L-29.166,560.713L-28.918,560.673L-28.744,560.62L-28.504,560.527L-28.171,560.193L-28.077,560.007L-28.024,559.78L-27.984,559.54Z" style="fill:rgb(148,192,57);"/>
        <path id="path3100" d="M-11.024,563.38L-11.064,563.713L-11.211,564.006L-13.731,568.433L-16.718,573.58L-16.958,573.966L-17.238,574.3L-17.571,574.58L-17.904,574.82L-18.344,575.02L-18.758,575.153L-19.184,575.26L-19.664,575.3L-30.73,575.3L-30.972,575.26L-31.209,575.206L-31.403,575.06L-31.59,574.926L-31.727,574.78L-31.874,574.54L-31.922,574.3L-31.971,574.06L-31.922,573.766L-31.776,573.486L-28.878,568.433L-26.264,563.86L-26.037,563.526L-25.744,563.193L-25.411,562.913L-25.037,562.633L-24.651,562.446L-24.224,562.3L-23.797,562.206L-11.971,562.206L-11.784,562.3L-11.544,562.393L-11.397,562.526L-11.264,562.726L-11.117,562.913L-11.064,563.153L-11.024,563.38ZM-31.971,578.006L-31.922,578.3L-31.776,578.593L-29.26,583.02L-26.264,588.206L-26.037,588.593L-25.744,588.873L-25.411,589.166L-25.037,589.46L-24.651,589.646L-24.224,589.78L-23.797,589.873L-11.971,589.873L-11.784,589.78L-11.544,589.686L-11.397,589.54L-11.264,589.353L-11.117,589.166L-11.064,588.926L-11.024,588.686L-11.064,588.353L-11.211,588.113L-14.104,583.02L-16.717,578.486L-16.957,578.113L-17.237,577.78L-17.571,577.486L-17.904,577.26L-18.344,577.073L-18.757,576.926L-19.184,576.82L-19.664,576.78L-30.729,576.78L-30.972,576.82L-31.208,576.873L-31.403,577.02L-31.59,577.153L-31.727,577.353L-31.873,577.54L-31.921,577.78L-31.971,578.006Z" style="fill:rgb(212,36,123);"/>
        <path id="path3102" d="M-49.924,550.273L-44.409,559.913L-44.215,560.287L-44.076,560.727L-43.979,561.207L-43.979,562.047L-44.076,562.487L-44.215,562.9L-44.409,563.287L-47.073,567.793L-49.973,572.833L-50.16,573.06L-50.444,573.247L-50.631,573.353L-50.867,573.393L-51.109,573.393L-51.345,573.353L-51.54,573.3L-51.776,573.167L-51.913,573.02L-52.06,572.833L-57.574,563.193L-57.81,562.753L-57.956,562.34L-57.997,561.913L-58.045,561.487L-57.997,561.02L-57.908,560.58L-57.761,560.206L-57.574,559.82L-54.577,554.633L-52.01,550.273L-51.824,549.98L-51.589,549.793L-51.345,549.7L-51.109,549.646L-50.866,549.646L-50.678,549.7L-50.444,549.793L-50.257,549.9L-50.062,550.086L-49.924,550.273ZM-59.905,535.3L-60.141,535.5L-60.336,535.74L-62.903,540.153L-65.9,545.286L-66.087,545.713L-66.232,546.086L-66.321,546.526L-66.37,546.953L-66.321,547.42L-66.232,547.846L-66.087,548.273L-65.9,548.713L-60.385,558.3L-60.239,558.54L-60.052,558.673L-59.857,558.82L-59.663,558.873L-59.426,558.913L-59.191,558.913L-58.956,558.873L-58.72,558.78L-58.476,558.593L-58.289,558.353L-55.389,553.313L-52.725,548.806L-52.531,548.366L-52.393,547.993L-52.296,547.566L-52.296,546.66L-52.393,546.233L-52.531,545.806L-52.725,545.38L-58.241,535.78L-58.378,535.553L-58.768,535.26L-59.003,535.22L-59.19,535.166L-59.426,535.166L-59.662,535.22L-59.905,535.3Z" style="fill:rgb(6,155,179);"/>
    </g>
</svg>
