<svg xmlns="http://www.w3.org/2000/svg" xmlns:xlink="http://www.w3.org/1999/xlink" preserveAspectRatio="xMidYMid" width="200" height="180" viewBox="0 0 200 180">
  <defs>
    <style>
      .cls-1 {
        fill-rule: evenodd;
      }
    </style>
  </defs>
  <path d="M197.445,161.384 L111.428,6.778 C109.295,2.707 105.176,0.112 100.607,-0.004 L100.267,-0.004 C95.816,-0.004 91.706,2.319 89.426,6.171 L2.811,160.745 C0.484,164.695 0.438,169.561 2.663,173.538 C4.916,177.534 9.118,179.995 13.679,179.995 L186.264,179.995 C190.679,179.995 194.779,177.645 197.069,173.852 C199.395,170.023 199.496,165.306 197.445,161.384 L197.445,161.384 ZM11.709,169.226 L100.257,9.720 L188.252,169.226 L11.709,169.226 ZM100.026,124.469 C93.563,124.469 89.047,129.012 89.047,135.644 C89.047,142.033 93.433,146.819 99.793,146.819 L100.026,146.819 C106.617,146.819 110.884,142.041 110.884,135.644 C110.764,129.004 106.489,124.469 100.026,124.469 ZM93.080,118.348 L106.996,118.348 L109.661,62.756 L90.391,62.756 L93.080,118.348 Z" class="cls-1"/>
</svg>
