<?xml version="1.0" encoding="utf-8"?>
<!-- Generator: Adobe Illustrator 18.1.0, SVG Export Plug-In . SVG Version: 6.00 Build 0)  -->
<svg version="1.1" id="Layer_2" xmlns="http://www.w3.org/2000/svg" xmlns:xlink="http://www.w3.org/1999/xlink" x="0px" y="0px"
	 width="32px" height="32px" viewBox="0 0 32 32" xml:space="preserve">

<linearGradient id="SVGID_1_" gradientUnits="userSpaceOnUse" x1="827" y1="0" x2="827.7071" y2="0.7071">
	<stop  offset="0" style="stop-color:#DEDFE3"/>
	<stop  offset="0.1783" style="stop-color:#DADBDF"/>
	<stop  offset="0.3611" style="stop-color:#CECFD3"/>
	<stop  offset="0.546" style="stop-color:#B9BCBF"/>
	<stop  offset="0.7324" style="stop-color:#9CA0A2"/>
	<stop  offset="0.9181" style="stop-color:#787D7E"/>
	<stop  offset="1" style="stop-color:#656B6C"/>
</linearGradient>
<g>
	<path class="st0" d="M25.546,9.282c0.389-0.389,0.389-1.025,0-1.414l-1.414-1.414c-0.389-0.389-1.025-0.389-1.414,0l-6.011,6.011
		c-0.389,0.389-1.025,0.389-1.414,0L9.282,6.454c-0.389-0.389-1.025-0.389-1.414,0L6.454,7.868c-0.389,0.389-0.389,1.025,0,1.414
		l6.011,6.011c0.389,0.389,0.389,1.025,0,1.414l-6.011,6.011c-0.389,0.389-0.389,1.025,0,1.414l1.414,1.414
		c0.389,0.389,1.025,0.389,1.414,0l6.011-6.011c0.389-0.389,1.025-0.389,1.414,0l6.011,6.011c0.389,0.389,1.025,0.389,1.414,0
		l1.414-1.414c0.389-0.389,0.389-1.025,0-1.414l-6.011-6.011c-0.389-0.389-0.389-1.025,0-1.414L25.546,9.282z"/>
</g>
</svg>
