<?xml version="1.0" encoding="UTF-8" standalone="no"?>
<!DOCTYPE svg PUBLIC "-//W3C//DTD SVG 1.1//EN" "http://www.w3.org/Graphics/SVG/1.1/DTD/svg11.dtd">
<svg width="100%" height="100%" viewBox="0 0 196 204" version="1.1" xmlns="http://www.w3.org/2000/svg" xmlns:xlink="http://www.w3.org/1999/xlink" xml:space="preserve" xmlns:serif="http://www.serif.com/" style="fill-rule:evenodd;clip-rule:evenodd;stroke-linejoin:round;stroke-miterlimit:2;">
    <g transform="matrix(1,0,0,1,-20.4745,-219.458)">
        <path d="M38.1,324.1C37.6,325.8 36.8,325.7 36.4,324.1L35.6,321.2C35.6,321.2 34.5,317 32.6,312C32.1,310.4 31.4,308.8 30.4,307.4C28.8,305.7 26.4,305.1 24.2,305.8C22.2,306.5 20.7,308.4 20.5,310.5C20.4,312.3 20.6,314.2 21,316C22.5,326.8 24.9,337.5 28.2,348C30.3,352.7 35.7,354.8 40.4,352.8C40.5,352.7 40.7,352.7 40.8,352.6C45,349.5 48,345.1 49.3,340.1C51.6,334.5 63.4,302 63.4,302C64.6,298.8 65.5,298.9 65.4,302.4C65.4,302.4 64.8,334.2 64.7,348.7C64.5,355.5 65.2,362.3 66.6,369C67.5,372.5 69.5,375.6 72.3,377.9C75.1,380 78.6,381 82.1,380.6C83.8,380.3 85.5,379.8 87,378.9C89.2,377.6 91.1,376 92.6,373.9C96,369.3 98.9,364.4 101.3,359.3C107,348.1 121.7,313.5 121.7,313.5C123,310.3 124,310.6 123.9,314C123.9,314 122.1,372.2 122,394.4C122,399.9 123,405.4 125,410.6C126.8,415.5 130.4,419.5 135.1,421.7C140.3,424 146.2,423.6 151.1,420.8C154.8,418.5 157.8,415.4 159.9,411.6C162.9,406.5 165.4,401.1 167.4,395.6C171.8,384.2 175.5,372.4 179.1,360.7C182.7,349 213.8,237.9 215.8,228.4C216.1,227.3 216.2,226.2 216.1,225.2C215.8,223 214.5,221.1 212.5,220.1C209.1,218.5 205,220 203.3,223.4C201.6,226.9 159.1,329.9 159.1,329.9C157.8,333.1 156.7,332.9 156.7,329.4C156.7,329.4 156.8,293.6 157,263.9C157.1,247.8 149.2,238.8 138.1,237C133,236.2 127.7,237.4 123.4,240.3C118.9,243.5 115.3,247.7 112.9,252.7C109.5,259.2 88.7,320 88.7,320C87.6,323.2 86.6,323.1 86.5,319.7C86.5,319.7 85.9,293.6 85.3,287.4C84.4,278 82.2,262.4 70,261.6C58.5,260.9 53.4,275 50.4,283.8C48.5,289.6 38.8,321.1 38.8,321.1L38.1,324.1" style="fill:rgb(255,0,70);fill-rule:nonzero;"/>
    </g>
</svg>
