<svg width="192" height="192" viewBox="0 0 192 192" fill="none" xmlns="http://www.w3.org/2000/svg">
<path fill-rule="evenodd" clip-rule="evenodd" d="M66.56 0H125.44C179.2 0 192 12.8 192 66.56V125.44C192 179.2 179.2 192 125.44 192H66.56C12.8 192 0 179.2 0 125.44V66.56C0 12.8 12.8 0 66.56 0Z" fill="#2787F5"/>
<path fill-rule="evenodd" clip-rule="evenodd" d="M157.234 66.1462C158.124 63.1798 157.234 61 153 61H139C135.441 61 133.799 62.883 132.909 64.9594C132.909 64.9594 125.79 82.3129 115.704 93.5852C112.441 96.8482 110.958 97.8864 109.178 97.8864C108.288 97.8864 107 96.8482 107 93.882V66.1462C107 62.5865 105.967 61 103 61H81.0002C78.7757 61 77.4379 62.6522 77.4379 64.218C77.4379 67.5925 82.4805 68.3707 83.0002 77.8634V98.4799C83.0002 103 82.1839 103.82 80.4041 103.82C75.658 103.82 64.1132 86.3884 57.266 66.4427C55.9241 62.566 54.5782 61 51.0002 61H37.0002C33.0002 61 32.2002 62.883 32.2002 64.9594C32.2002 68.6675 36.9465 87.0593 54.2998 111.384C65.8686 127.995 82.1682 137 97.0002 137C105.899 137 107 135 107 131.555V119C107 115 107.843 114.202 110.661 114.202C112.738 114.202 116.297 115.24 124.604 123.249C134.096 132.742 135.661 137 141 137H155C159 137 161 135 159.846 131.053C158.584 127.119 154.052 121.412 148.038 114.647C144.775 110.79 139.88 106.638 138.397 104.561C136.321 101.891 136.914 100.704 138.397 98.3315C138.397 98.3315 155.454 74.3036 157.234 66.1462V66.1462Z" fill="white"/>
</svg>
