<?xml version="1.0" encoding="utf-8"?>
<!-- Generator: Adobe Illustrator 21.1.0, SVG Export Plug-In . SVG Version: 6.00 Build 0)  -->
<svg version="1.1" id="Layer_1" xmlns="http://www.w3.org/2000/svg" xmlns:xlink="http://www.w3.org/1999/xlink" x="0px" y="0px"
	 viewBox="0 0 200 200" style="enable-background:new 0 0 200 200;" xml:space="preserve">
<style type="text/css">
	.st0{fill:#676767;}
</style>
<g>
	<path class="st0" d="M99.7,198.4C45.3,198.4,1,154.1,1,99.7C1,45.3,45.3,1,99.7,1c54.4,0,98.7,44.3,98.7,98.7
		C198.4,154.1,154.1,198.4,99.7,198.4z M99.7,13C51.9,13,13,51.9,13,99.7s38.9,86.7,86.7,86.7s86.7-38.9,86.7-86.7S147.5,13,99.7,13
		z"/>
</g>
<path id="Forma_1" class="st0" d="M116.3,143.4c-4.1,1.6-7.3,2.8-9.8,3.7c-2.7,0.9-5.6,1.3-8.5,1.3c-5,0-8.8-1.2-11.5-3.6
	c-2.7-2.3-4.2-5.7-4.1-9.2c0-1.5,0.1-3,0.3-4.4c0.2-1.5,0.5-3.2,1-5.1l5.1-18.1c0.5-1.7,0.8-3.4,1.1-4.9c0.3-1.4,0.4-2.8,0.5-4.3
	c0-2.3-0.5-3.9-1.4-4.8s-2.8-1.4-5.5-1.4c-1.4,0-2.7,0.2-4.1,0.6s-2.6,0.8-3.6,1.2l1.4-5.6c3.3-1.4,6.6-2.5,9.6-3.5
	c2.8-0.9,5.7-1.4,8.7-1.5c4.9,0,8.7,1.2,11.4,3.6c2.6,2.3,4.1,5.7,4,9.3c0,0.8-0.1,2.2-0.3,4.2c-0.2,1.8-0.5,3.7-1,5.5l-5.1,18
	c-0.4,1.5-0.8,3.1-1.1,4.9c-0.3,1.4-0.4,2.8-0.5,4.2c0,2.4,0.5,4,1.6,4.9s2.9,1.3,5.6,1.3c1.4,0,2.8-0.3,4.2-0.7
	c1.2-0.3,2.3-0.7,3.4-1.1L116.3,143.4z M115.4,70.3c-2.3,2.2-5.4,3.4-8.6,3.3c-3.2,0.1-6.3-1.1-8.6-3.3c-4.4-4-4.8-10.8-0.8-15.2
	c0.3-0.3,0.5-0.6,0.8-0.8c2.3-2.2,5.4-3.4,8.6-3.3c3.2-0.1,6.3,1.1,8.6,3.3c4.4,4,4.8,10.9,0.8,15.3C115.9,69.8,115.7,70,115.4,70.3
	z"/>
</svg>
