<?xml version="1.0" encoding="UTF-8" standalone="no"?>
<!DOCTYPE svg PUBLIC "-//W3C//DTD SVG 1.1//EN" "http://www.w3.org/Graphics/SVG/1.1/DTD/svg11.dtd">
<svg width="100%" height="100%" viewBox="0 0 20 16" version="1.1" xmlns="http://www.w3.org/2000/svg" xmlns:xlink="http://www.w3.org/1999/xlink" xml:space="preserve" xmlns:serif="http://www.serif.com/" style="fill-rule:evenodd;clip-rule:evenodd;stroke-linejoin:round;stroke-miterlimit:2;">
    <g transform="matrix(1,0,0,1,-35.9521,-501.356)">
        <g transform="matrix(1,0,0,1,53.9521,502.356)">
            <path d="M0,14L-16,14C-16.426,14 -16.789,13.73 -16.932,13.354L-16.931,13.355L-10.87,7.354C-10.628,7.115 -10.324,6.979 -9.967,6.987C-9.627,6.989 -9.308,7.124 -9.069,7.366L-5.237,11.263C-4.765,11.743 -4.134,12.01 -3.46,12.014C-2.775,12.014 -2.151,11.758 -1.673,11.282L1,8.623L1,13C1,13.552 0.551,14 0,14M-16,0L0,0C0.551,0 1,0.448 1,1L1,7.213L-2.378,10.573C-2.666,10.859 -3.047,10.995 -3.454,11.014C-3.86,11.011 -4.24,10.851 -4.524,10.562L-8.357,6.665C-8.783,6.231 -9.353,5.991 -9.96,5.987L-9.976,5.987C-10.578,5.987 -11.145,6.22 -11.573,6.644L-17,12.017L-17,1C-17,0.448 -16.552,0 -16,0M0,-1L-16,-1C-17.1,-1 -18,-0.1 -18,1L-18,13C-18,14.1 -17.1,15 -16,15L0,15C1.1,15 2,14.1 2,13L2,1C2,-0.1 1.1,-1 0,-1" style="fill:rgb(150,156,158);fill-rule:nonzero;"/>
        </g>
        <g transform="matrix(1,0,0,1,50.4521,508.356)">
            <path d="M0,-3C0.827,-3 1.5,-2.327 1.5,-1.5C1.5,-0.673 0.827,0 0,0C-0.827,0 -1.5,-0.673 -1.5,-1.5C-1.5,-2.327 -0.827,-3 0,-3M0,1C1.38,1 2.5,-0.119 2.5,-1.5C2.5,-2.881 1.38,-4 0,-4C-1.381,-4 -2.5,-2.881 -2.5,-1.5C-2.5,-0.119 -1.381,1 0,1" style="fill:rgb(150,156,158);fill-rule:nonzero;"/>
        </g>
    </g>
</svg>
