<svg id="Layer_2" data-name="Layer 2" xmlns="http://www.w3.org/2000/svg" viewBox="0 0 40 40"><g id="image_icon" data-name="image icon"><path d="M6.67,33.5A3.5,3.5,0,0,1,3.17,30V10a3.5,3.5,0,0,1,3.5-3.5H33.33a3.5,3.5,0,0,1,3.5,3.5V30a3.5,3.5,0,0,1-3.5,3.5ZM5.31,30.63a1.5,1.5,0,0,0,1.36.87H33.33a1.5,1.5,0,0,0,1.5-1.5V23.1l-4.17,4.15a4.28,4.28,0,0,1-3.09,1.27,4.35,4.35,0,0,1-3.08-1.3L18.1,20.73a2,2,0,0,0-1.38-.59h0a1.87,1.87,0,0,0-1.39.57ZM6.67,8.5A1.5,1.5,0,0,0,5.17,10V28l8.76-8.68a3.95,3.95,0,0,1,5.59,0l6.39,6.49a2.31,2.31,0,0,0,1.67.7,2.46,2.46,0,0,0,1.67-.68l5.58-5.55V10a1.5,1.5,0,0,0-1.5-1.5Z"/><path d="M27.5,20.17a4.34,4.34,0,1,1,4.33-4.34A4.34,4.34,0,0,1,27.5,20.17Zm0-6.67a2.34,2.34,0,1,0,2.33,2.33A2.33,2.33,0,0,0,27.5,13.5Z"/></g></svg>