<svg xmlns="http://www.w3.org/2000/svg" viewBox="0 0 200 200">
    <path d="M99.7 198.4C45.3 198.4 1 154.1 1 99.7 1 45.3 45.3 1 99.7 1c54.4 0 98.7 44.3 98.7 98.7 0 54.4-44.3 98.7-98.7 98.7zm0-185.4C51.9 13 13 51.9 13 99.7s38.9 86.7 86.7 86.7 86.7-38.9 86.7-86.7S147.5 13 99.7 13z"/>
    <path d="M116.3 143.4c-4.1 1.6-7.3 2.8-9.8 3.7-2.7.9-5.6 1.3-8.5 1.3-5 0-8.8-1.2-11.5-3.6-2.7-2.3-4.2-5.7-4.1-9.2 0-1.5.1-3 .3-4.4.2-1.5.5-3.2 1-5.1l5.1-18.1c.5-1.7.8-3.4 1.1-4.9.3-1.4.4-2.8.5-4.3 0-2.3-.5-3.9-1.4-4.8s-2.8-1.4-5.5-1.4c-1.4 0-2.7.2-4.1.6s-2.6.8-3.6 1.2l1.4-5.6c3.3-1.4 6.6-2.5 9.6-3.5 2.8-.9 5.7-1.4 8.7-1.5 4.9 0 8.7 1.2 11.4 3.6 2.6 2.3 4.1 5.7 4 9.3 0 .8-.1 2.2-.3 4.2-.2 1.8-.5 3.7-1 5.5l-5.1 18c-.4 1.5-.8 3.1-1.1 4.9-.3 1.4-.4 2.8-.5 4.2 0 2.4.5 4 1.6 4.9s2.9 1.3 5.6 1.3c1.4 0 2.8-.3 4.2-.7 1.2-.3 2.3-.7 3.4-1.1l-1.4 5.5zm-.9-73.1c-2.3 2.2-5.4 3.4-8.6 3.3-3.2.1-6.3-1.1-8.6-3.3-4.4-4-4.8-10.8-.8-15.2.3-.3.5-.6.8-.8 2.3-2.2 5.4-3.4 8.6-3.3 3.2-.1 6.3 1.1 8.6 3.3 4.4 4 4.8 10.9.8 15.3-.3.2-.5.4-.8.7z"/>
</svg>
