<svg xmlns="http://www.w3.org/2000/svg" xmlns:xlink="http://www.w3.org/1999/xlink" width="15" height="15" viewBox="0 0 15 15">
  <defs>
    <clipPath id="clip-path">
      <rect id="Rectangle_1572" data-name="Rectangle 1572" width="15" height="15" transform="translate(0 0)"/>
    </clipPath>
  </defs>
  <g id="material_system_icon_keylines" clip-path="url(#clip-path)">
    <path id="Path_2131" data-name="Path 2131" d="M12.506,0a3.334,3.334,0,0,0-2.365.976L8.272,2.845c-.432.432.173,1.009.634.549l1.827-1.827A2.508,2.508,0,1,1,14.28,5.114L10.141,9.253A2.5,2.5,0,0,1,6,8.284a.8.8,0,0,0-.18-.3.316.316,0,0,0-.263-.071.542.542,0,0,0-.239.126.407.407,0,0,0-.146.295.681.681,0,0,0,.061.284A3.3,3.3,0,0,0,6,9.844a3.354,3.354,0,0,0,4.73,0l4.139-4.139A3.34,3.34,0,0,0,12.506,0Z" transform="translate(-0.847 0)"/>
    <path id="Path_2132" data-name="Path 2132" d="M3.339,15.819A3.334,3.334,0,0,0,5.7,14.844l1.869-1.869c.432-.432-.173-1.009-.634-.549L5.113,14.253a2.508,2.508,0,1,1-3.547-3.547L5.7,6.566a2.5,2.5,0,0,1,4.146.969.8.8,0,0,0,.18.3.316.316,0,0,0,.263.071.542.542,0,0,0,.239-.126.407.407,0,0,0,.146-.295.681.681,0,0,0-.061-.284,3.3,3.3,0,0,0-.775-1.228,3.354,3.354,0,0,0-4.73,0L.974,10.114a3.34,3.34,0,0,0,2.365,5.705Z" transform="translate(0.001 -0.819)"/>
  </g>
</svg>
