<svg id="Layer_2" data-name="Layer 2" xmlns="http://www.w3.org/2000/svg" viewBox="0 0 40 40"><g id="link_icon" data-name="link icon"><path d="M20,26.79a6.76,6.76,0,0,1-6.42-4.5,1.56,1.56,0,0,1-.13-.62,1,1,0,0,1,.35-.72,1.33,1.33,0,0,1,.55-.29h.15a.81.81,0,0,1,.52.19,1.77,1.77,0,0,1,.41.68,4.83,4.83,0,0,0,8,1.87l8.27-8.28a4.84,4.84,0,1,0-6.85-6.85l-3.65,3.65a1.2,1.2,0,0,1-.86.39,1,1,0,0,1-.64-1.72l3.73-3.74a6.85,6.85,0,1,1,9.68,9.69L24.88,24.8A6.83,6.83,0,0,1,20,26.79Z"/><path d="M11.69,35.15A6.83,6.83,0,0,1,6.85,23.47l8.26-8.28a6.91,6.91,0,0,1,9.68,0,6.75,6.75,0,0,1,1.59,2.52,1.41,1.41,0,0,1,.13.62,1,1,0,0,1-.35.72,1.24,1.24,0,0,1-.54.29h-.15a.79.79,0,0,1-.52-.19,1.66,1.66,0,0,1-.41-.68A4.83,4.83,0,0,0,20,15.18a4.9,4.9,0,0,0-3.44,1.43L8.26,24.89a4.85,4.85,0,0,0,6.86,6.85l3.64-3.65a1.2,1.2,0,0,1,.85-.39,1,1,0,0,1,.92.61,1,1,0,0,1-.27,1.11l-3.74,3.74a6.86,6.86,0,0,1-4.82,2Z"/></g></svg>