<?xml version="1.0" encoding="UTF-8" standalone="no"?>
<!DOCTYPE svg PUBLIC "-//W3C//DTD SVG 1.1//EN" "http://www.w3.org/Graphics/SVG/1.1/DTD/svg11.dtd">
<svg width="100%" height="100%" viewBox="0 0 48 48" version="1.1" xmlns="http://www.w3.org/2000/svg" xmlns:xlink="http://www.w3.org/1999/xlink" xml:space="preserve" xmlns:serif="http://www.serif.com/" style="fill-rule:evenodd;clip-rule:evenodd;stroke-linejoin:round;stroke-miterlimit:2;">
    <g id="link_icon" transform="matrix(2.39839,0,0,2.39839,6.01568,6.01208)">
        <g id="Path_2128" transform="matrix(1,0,0,1,-0.847,0)">
            <path d="M12.506,0C11.62,-0.002 10.768,0.349 10.141,0.976L8.272,2.845C7.84,3.277 8.445,3.854 8.906,3.394L10.733,1.567C11.203,1.097 11.842,0.832 12.507,0.832C13.882,0.832 15.015,1.965 15.015,3.34C15.015,4.005 14.75,4.644 14.28,5.114L10.141,9.253C9.672,9.724 9.034,9.988 8.37,9.988C7.299,9.988 6.341,9.3 6,8.284C5.963,8.172 5.901,8.069 5.82,7.984C5.748,7.922 5.651,7.896 5.557,7.913C5.468,7.934 5.386,7.978 5.318,8.039C5.23,8.112 5.177,8.22 5.172,8.334C5.172,8.432 5.192,8.529 5.233,8.618C5.395,9.078 5.657,9.497 6,9.844C7.3,11.136 9.43,11.136 10.73,9.844L14.869,5.705C15.497,5.079 15.851,4.227 15.851,3.34C15.851,1.508 14.343,-0 12.511,-0C12.509,-0 12.508,-0 12.506,0Z" style="fill-rule:nonzero;"/>
        </g>
        <g id="Path_2129" transform="matrix(1,0,0,1,0.001,-0.819)">
            <path d="M3.339,15.819C4.224,15.82 5.074,15.469 5.7,14.844L7.569,12.975C8.001,12.543 7.396,11.966 6.935,12.426L5.113,14.253C4.643,14.723 4.004,14.988 3.339,14.988C1.964,14.988 0.831,13.855 0.831,12.48C0.831,11.815 1.096,11.176 1.566,10.706L5.7,6.566C6.169,6.093 6.809,5.827 7.475,5.827C8.548,5.827 9.506,6.517 9.846,7.535C9.883,7.647 9.945,7.75 10.026,7.835C10.098,7.897 10.195,7.923 10.289,7.906C10.378,7.885 10.46,7.841 10.528,7.78C10.616,7.707 10.669,7.599 10.674,7.485C10.674,7.387 10.654,7.29 10.613,7.201C10.449,6.739 10.184,6.32 9.838,5.973C8.538,4.681 6.408,4.681 5.108,5.973L0.974,10.114C0.346,10.74 -0.008,11.592 -0.008,12.479C-0.008,14.311 1.5,15.819 3.332,15.819C3.335,15.819 3.337,15.819 3.339,15.819Z" style="fill-rule:nonzero;"/>
        </g>
    </g>
</svg>
