<?xml version="1.0" encoding="utf-8"?>
<!-- Generator: Adobe Illustrator 26.5.0, SVG Export Plug-In . SVG Version: 6.00 Build 0)  -->
<svg version="1.1" id="Layer_1" xmlns:serif="http://www.serif.com/"
	 xmlns="http://www.w3.org/2000/svg" xmlns:xlink="http://www.w3.org/1999/xlink" x="0px" y="0px" viewBox="0 0 40 40"
	 style="enable-background:new 0 0 40 40;" xml:space="preserve">
<g>
	<path id="Path_2346" d="M22,33.3H9.9c-1.7,0.1-3.2-1.2-3.3-2.9c0-0.1,0-0.3,0-0.4c0-1.3,0-2.5,0-3.8C6.6,25.6,7,25.1,7.6,25
		c0,0,0.1,0,0.1,0c0.6,0,1,0.5,1,1.1c0,0,0,0.1,0,0.1c0,1.3,0,2.6,0,3.9c-0.1,0.6,0.3,1.1,0.9,1.2c0.1,0,0.2,0,0.3,0h21.9
		c0.6,0.1,1.1-0.3,1.2-0.9c0-0.1,0-0.2,0-0.3c0-1.3,0-2.6,0-3.9c-0.1-0.6,0.4-1.1,0.9-1.1S35,25.4,35,26c0,0.1,0,0.1,0,0.2
		c0,1.3,0,2.6,0,3.9c0.1,1.7-1.3,3.1-3,3.2c-0.1,0-0.1,0-0.2,0C28.8,33.3,25.1,33.3,22,33.3"/>
	<path id="Path_2347" d="M21.2,8.2v0.4c0,4.7,0,11.5,0,16.2c0,0.2,0,0.4-0.1,0.5c-0.1,0.5-0.6,0.8-1.1,0.8c-0.5-0.1-0.9-0.5-1-1
		c0-0.1,0-0.2,0-0.4c0-4.7,0-11.4,0-16.1V8.2c-0.5,0.4-1,0.8-1.5,1.2l-2.1,1.7c-0.4,0.4-1.1,0.4-1.5-0.1c-0.4-0.4-0.4-1.1,0.1-1.5
		c0,0,0.1-0.1,0.1-0.1c1.7-1.4,3.5-2.8,5.3-4.2c0.4-0.4,1.1-0.4,1.5,0c1.7,1.4,3.4,2.7,5.1,4.1c0.5,0.3,0.6,1,0.2,1.5
		c-0.3,0.5-1,0.6-1.5,0.2c0,0,0,0-0.1-0.1c-1.1-0.8-2.1-1.7-3.2-2.5C21.5,8.4,21.4,8.3,21.2,8.2"/>
</g>
</svg>
