<svg id="Layer_1" data-name="Layer 1" xmlns="http://www.w3.org/2000/svg" viewBox="0 0 165 110"><path d="M114.65,45.45h-1.9v-9.2a30.82,30.82,0,0,0-29.4-31.2h-1.8a30.82,30.82,0,0,0-29.4,31.2v9.2h-1.9a6.31,6.31,0,0,0-5.3,6.9v45.7a6.25,6.25,0,0,0,5.3,6.9h64.5a6.31,6.31,0,0,0,5.3-6.9V52.35A6.4,6.4,0,0,0,114.65,45.45Zm-26.2,29.8v13.8a2.88,2.88,0,0,1-2.8,2.9h-6.4a2.82,2.82,0,0,1-2.8-2.9V75.25a8.36,8.36,0,0,1,5.3-14.2h1.8a8.1,8.1,0,0,1,7.7,8.3A8.28,8.28,0,0,1,88.45,75.25Zm11.7-29.9H64.75v-9.1a17.79,17.79,0,0,1,35.5-2.3,8.84,8.84,0,0,1,0,2.3v9.1Z"/></svg>