<svg data-name="Warstwa 1" xmlns="http://www.w3.org/2000/svg" viewBox="0 0 24 24"><defs></defs><path d="M20,4H4A2,2,0,0,0,2,6l0,12a2,2,0,0,0,2,2H20a2,2,0,0,0,2-2L22,6A2,2,0,0,0,20,4Zm1,14a1.0012,1.0012,0,0,1-1,1h-16a1,1,0,0,1-1-1L3,6A1.0012,1.0012,0,0,1,4,5H20a1,1,0,0,1,1,1Z"/><path d="M16.8538,7.8457a.5016.5016,0,0,0-.7071,0L12,11.9927l-4.147-4.147A.4992.4992,0,0,0,7,8.2l-.0011.0054V15.5a.5.5,0,0,0,1,0V9.4061l3.6472,3.6472a.5014.5014,0,0,0,.7071,0L16,9.407V15.5a.5.5,0,0,0,1,0V8.2056l-.0007-.003A.498.498,0,0,0,16.8538,7.8457Z"/></svg>