<svg id="Warstwa_1" data-name="Warstwa 1" xmlns="http://www.w3.org/2000/svg" viewBox="0 0 24 24"><defs><style>.cls-1{fill:#969c9e;}</style></defs><path class="cls-1" d="M18.9422,5.0144,12.72,2.1636a1.7185,1.7185,0,0,0-1.44,0L5.0577,5.0144A1.8444,1.8444,0,0,0,4,6.6919V11c0,5.0874,3.4134,9.8449,8,11,4.5867-1.155,8-5.9125,8-11V6.6919A1.8443,1.8443,0,0,0,18.9422,5.0144ZM19,11c0,4.5854-2.9923,8.8191-7,9.9645C7.9923,19.8192,5,15.5855,5,11V6.6919a.85.85,0,0,1,.4744-.7684L11.7016,3.07a.719.719,0,0,1,.6018.0024l6.2221,2.8508A.85.85,0,0,1,19,6.6919Z"/><path class="cls-1" d="M15.3554,8.6463,11,13.0018,8.6449,10.6463a.5.5,0,1,0-.707.707l2.709,2.709a.5.5,0,0,0,.707,0l4.7085-4.709a.5.5,0,0,0-.707-.707Z"/></svg>