<svg id="Warstwa_1" data-name="Warstwa 1" xmlns="http://www.w3.org/2000/svg" viewBox="0 0 24 24">
  <defs>
    <style>
      .cls-1 {
        fill: #999b9d;
      }
    </style>
  </defs>
  <g>
    <path d="M17.24,2H7.38A1.07,1.07,0,0,0,6.31,3.08V20.93A1.07,1.07,0,0,0,7.38,22h9.86a1.07,1.07,0,0,0,1.07-1.07V3.08A1.07,1.07,0,0,0,17.24,2Zm0,18.93H7.38V18.24h9.86Zm0-3.76H7.38V6.87h9.86Zm0-11.38H7.38V3.08h9.86Z"/>
    <path d="M12.82,5.05h-1a.54.54,0,1,1,0-1.07h1a.54.54,0,1,1,0,1.07Z"/>
    <path d="M13.11,20.19H11.5a.54.54,0,0,1,0-1.07h1.62a.54.54,0,1,1,0,1.07Z"/>
  </g>
</svg>
