<?xml version="1.0" encoding="UTF-8"?><svg id="Warstwa_2" xmlns="http://www.w3.org/2000/svg" width="40" height="40" viewBox="0 0 40 40"><path id="globe_icon" d="M20,3.33C10.7934,3.33,3.33,10.7934,3.33,20s7.4634,16.67,16.67,16.67,16.67-7.4634,16.67-16.67h0c-.011-9.202-7.468-16.659-16.67-16.67Zm14,20.89h-4.87c.2025-1.3976,.3061-2.8078,.31-4.22-.001-1.5876-.1281-3.1725-.38-4.74h4.8c1.0231,2.9032,1.0862,6.0582,.18,9l-.04-.04Zm-21.44-4.22c.0057-1.5899,.1529-3.1762,.44-4.74h6v9h-6.11c-.221-1.4092-.3313-2.8336-.33-4.26ZM20.94,5.47c2.42,.64,4.51,3.66,5.63,7.79h-5.63V5.47Zm-2,0v7.75h-5.51c1.1-4.03,3.15-7.01,5.51-7.71v-.04Zm0,20.71v8.27c-2.46-.73-4.57-3.94-5.64-8.27h5.64Zm2,8.31v-8.27h5.76c-1.08,4.4-3.24,7.65-5.76,8.31v-.04Zm0-10.31V15.18h6.06c.2919,1.5901,.4391,3.2033,.44,4.82-.0008,1.4131-.1111,2.824-.33,4.22l-6.17-.04Zm12.06-10.92h-4.35c-.5412-2.4779-1.6086-4.8106-3.13-6.84,3.2249,1.3219,5.8757,3.7459,7.48,6.84ZM14.48,6.42c-1.5214,2.0294-2.5888,4.3621-3.13,6.84H7c1.6043-3.0941,4.2551-5.5181,7.48-6.84ZM6.14,15.26h4.8c-.4862,2.9785-.5098,6.0143-.07,9H6c-.9062-2.9418-.8431-6.0968,.18-9h-.04Zm.6,11h4.49c.5223,2.6646,1.6326,5.179,3.25,7.36-3.4154-1.4108-6.1773-4.0514-7.74-7.4v.04Zm18.78,7.36c1.6174-2.181,2.7277-4.6954,3.25-7.36h4.49c-1.5788,3.3185-4.3387,5.9286-7.74,7.32v.04Z"/></svg>