<svg id="Layer_2" width="20" height="20" data-name="Layer 2" xmlns="http://www.w3.org/2000/svg" viewBox="0 0 40 40">
    <g id="multiviewer">
        <path d="M11.25,6.5H5.42A2.25,2.25,0,0,0,3.17,8.75v3.17a2.24,2.24,0,0,0,2.25,2.24h5.83a2.24,2.24,0,0,0,2.25-2.24V8.75A2.25,2.25,0,0,0,11.25,6.5ZM5.16,8.75a.26.26,0,0,1,.26-.25h5.83a.25.25,0,0,1,.25.25v3.17a.25.25,0,0,1-.25.25H5.42a.26.26,0,0,1-.26-.25Z"/>
        <path d="M11.25,16.17H5.42a2.25,2.25,0,0,0-2.25,2.25v3.16a2.25,2.25,0,0,0,2.25,2.25h5.83a2.25,2.25,0,0,0,2.25-2.25V18.42A2.25,2.25,0,0,0,11.25,16.17ZM5.16,18.42a.26.26,0,0,1,.26-.25h5.83a.25.25,0,0,1,.25.25v3.16a.25.25,0,0,1-.25.25H5.42a.26.26,0,0,1-.26-.25Z"/>
        <path d="M11.25,25.84H5.42a2.24,2.24,0,0,0-2.25,2.24v3.17A2.25,2.25,0,0,0,5.42,33.5h5.83a2.25,2.25,0,0,0,2.25-2.25V28.08A2.24,2.24,0,0,0,11.25,25.84ZM5.16,28.08a.26.26,0,0,1,.26-.25h5.83a.25.25,0,0,1,.25.25v3.17a.25.25,0,0,1-.25.25H5.42a.26.26,0,0,1-.26-.25Z"/>
        <path d="M34.58,6.5H28.75A2.25,2.25,0,0,0,26.5,8.75v3.17a2.24,2.24,0,0,0,2.25,2.24h5.83a2.24,2.24,0,0,0,2.25-2.24V8.75A2.25,2.25,0,0,0,34.58,6.5ZM28.5,8.75a.25.25,0,0,1,.25-.25h5.83a.25.25,0,0,1,.25.25v3.17a.25.25,0,0,1-.25.25H28.75a.25.25,0,0,1-.25-.25Z"/>
        <path d="M34.58,16.17H28.75a2.25,2.25,0,0,0-2.25,2.25v3.16a2.25,2.25,0,0,0,2.25,2.25h5.83a2.25,2.25,0,0,0,2.25-2.25V18.42A2.25,2.25,0,0,0,34.58,16.17ZM28.5,18.42a.25.25,0,0,1,.25-.25h5.83a.25.25,0,0,1,.25.25v3.16a.25.25,0,0,1-.25.25H28.75a.25.25,0,0,1-.25-.25Z"/>
        <path d="M22.92,6.5H17.08a2.25,2.25,0,0,0-2.25,2.25v3.17a2.24,2.24,0,0,0,2.25,2.24h5.84a2.24,2.24,0,0,0,2.24-2.24V8.75A2.24,2.24,0,0,0,22.92,6.5ZM16.83,8.75a.25.25,0,0,1,.25-.25h5.84a.25.25,0,0,1,.25.25v3.17a.26.26,0,0,1-.25.25H17.08a.25.25,0,0,1-.25-.25Z"/>
        <path d="M22.92,16.17H17.08a2.25,2.25,0,0,0-2.25,2.25v3.16a2.25,2.25,0,0,0,2.25,2.25h5.84a2.24,2.24,0,0,0,2.24-2.25V18.42A2.24,2.24,0,0,0,22.92,16.17Zm-6.09,2.25a.25.25,0,0,1,.25-.25h5.84a.25.25,0,0,1,.25.25v3.16a.25.25,0,0,1-.25.25H17.08a.25.25,0,0,1-.25-.25Z"/>
        <path d="M22.92,25.84H17.08a2.24,2.24,0,0,0-2.25,2.24v3.17a2.25,2.25,0,0,0,2.25,2.25h5.84a2.24,2.24,0,0,0,2.24-2.25V28.08A2.24,2.24,0,0,0,22.92,25.84Zm-6.09,2.24a.25.25,0,0,1,.25-.25h5.84a.26.26,0,0,1,.25.25v3.17a.25.25,0,0,1-.25.25H17.08a.25.25,0,0,1-.25-.25Z"/>
    </g>
</svg>