<?xml version="1.0" encoding="UTF-8"?><svg id="Layer_1" xmlns="http://www.w3.org/2000/svg" width="40" height="40" viewBox="0 0 40 40"><path d="M28.6011,34.0757c1.1187-.0562,2.4424-1.1367,2.4424-2.02v-.0059l.0054,.0005c.4331,.0249,.8721,.0249,1.3052,0,1.5342-.124,2.7188-1.4282,2.6958-2.9668,.0039-.5195,.0088-1.0371,.0142-1.5552l.0005-.0474c.0229-2.3867,.0464-4.8545-.0332-7.2793-.3076-7.0488-5.3701-12.8569-12.312-14.124-.4058-.0723-.8198-.1279-1.2207-.1816-.1865-.0249-.3726-.0498-.5718-.0771l-1.8462,.001-.0239,.0029c-.082,.0229-.1655,.04-.2412,.0513-2.2842,.1519-4.521,.8643-6.4663,2.0586-4.4458,2.5596-7.1953,7.1479-7.3545,12.2715-.1138,2.1455-.085,4.3345-.0571,6.4517l.0005,.0439c.0107,.7979,.0215,1.5957,.0249,2.3936-.0083,.9023,.4106,1.7725,1.1206,2.3276,.6704,.5229,1.5073,.7593,2.353,.6636,.4053-.082,.8169,.1396,.9819,.5322,.6421,1.1636,1.9902,1.7339,3.2729,1.3882,1.3555-.3291,2.3169-1.5781,2.2866-2.9683,.0088-1.6797,.0063-3.3877,.0039-5.0396l-.0005-.3491c-.002-.8965-.0034-1.7939-.0034-2.689,.0146-.6616-.1987-1.3145-.6006-1.8369-.313-.4248-.7344-.7603-1.2183-.9697-1.5146-.6523-3.2783,.0454-3.9316,1.5537-.0449,.0952-.1274,.166-.2085,.1909-.5264,.0327-1.0254,.0513-1.5542,.0708l-.521,.0195-.0005-.0049c-.4546-5.1636,2.2085-10.0747,6.7886-12.5132,4.2705-2.5571,9.6191-2.2944,13.6274,.6709,3.9233,2.6094,6.105,7.1475,5.6934,11.8433v.0049l-.4639-.0171c-.519-.019-1.0093-.0371-1.501-.0688-.1274-.0166-.2344-.083-.2939-.1733-.4712-1.126-1.5571-1.853-2.7881-1.853-.7979,.0054-1.5464,.3218-2.1079,.8911s-.8677,1.3223-.8618,2.1182c-.0244,2.7261-.0244,5.4888,0,8.209-.0283,1.3647,.9155,2.5762,2.2461,2.8804,.3633,.0781,.7446,.1147,1.1318,.1128m3.0132-4.0049l-.0996-.0015c-.0894-.0015-.1807-.0024-.2734-.0024h-.0054l-.0078-6.1514,.0044-.0005c.3906-.0181,.7827-.0142,1.1602,.0083,.4854,.0596,.8477,.4707,.8428,.959,.0132,1.397,.0132,2.8145,0,4.2144-.0024,.52-.4111,.9458-.9312,.9702-.2271,.0132-.4492,.0093-.6899,.0039Zm-24.4644-.9736c-.0132-1.396-.0132-2.8135,0-4.2129v-.0005c.001-.2651,.1045-.5132,.291-.6987,.1865-.1846,.4331-.2866,.7012-.2866,.1079-.0034,.2178-.0044,.3296-.0044,.1011,0,.2036,.001,.3086,.002l.0815,.001c.0898,.001,.1816,.0015,.2754,.0015l.0088,6.1431-.0044,.0005c-.4009,.0225-.8145,.019-1.21-.0112-.4551-.0742-.791-.4746-.7817-.9336Zm5.0078-7.2119c.1333,0,.2666,.0269,.3936,.0806,.4077,.1724,.6562,.5845,.6182,1.0337l.0024,8.0088c.0112,.1548-.0156,.314-.0786,.4604-.1587,.3691-.5215,.6079-.9243,.6079-.1362,0-.2686-.0273-.3945-.0815-.4077-.1729-.6562-.5854-.6182-1.0342l-.0005-4.1147c0-.4351-.001-.8706-.0024-1.3071-.0024-.8398-.0049-1.7334,.0024-2.6138v-.0044c-.0054-.1431,.022-.2896,.0796-.4238,.1045-.2466,.2993-.438,.5479-.5386,.1211-.0488,.2476-.0732,.3745-.0732Zm17.0698,9.1562c.0054,.1421-.0225,.2886-.0801,.4243-.105,.2461-.2998,.437-.5488,.5376-.2451,.0996-.52,.0981-.7681-.0083-.4072-.1724-.6562-.5854-.6187-1.0342l-.0005-4.0127-.0015-.0898v-3.9116c-.0117-.1514,.0166-.3159,.0791-.4624,.1074-.2476,.3042-.4385,.5557-.5371,.2485-.0977,.519-.0933,.7642,.0137,.4072,.1729,.6558,.585,.6182,1.0337l.0005,4.2148c0,.3213,.0005,.6421,.0015,.9624l.001,.3184c.0024,.8188,.0049,1.6899-.0024,2.5513Z"/></svg>