<?xml version="1.0" encoding="utf-8"?>
<!-- Generator: Adobe Illustrator 22.0.1, SVG Export Plug-In . SVG Version: 6.00 Build 0)  -->
<svg version="1.1" id="Layer_1" xmlns="http://www.w3.org/2000/svg" xmlns:xlink="http://www.w3.org/1999/xlink" x="0px" y="0px"
	 viewBox="0 0 19.1 19" style="enable-background:new 0 0 19.1 19;" xml:space="preserve">
<style type="text/css">
	.st0{fill:#2aa5b5;}
</style>
<path class="st0" d="M16.4,12.3c-0.1-0.2-0.3-0.2-0.5-0.2c-2.3,0.6-4.7-0.6-5.5-2.9c-0.8-2.2,0-4.6,2-5.7c0.2-0.1,0.3-0.3,0.3-0.5
	c0-0.2-0.2-0.4-0.3-0.4C10.7,2,8.9,2,7.3,2.6c-3.8,1.4-5.7,5.7-4.2,9.5c1.4,3.8,5.7,5.7,9.5,4.2c1.7-0.7,3.1-1.9,3.9-3.5
	C16.6,12.6,16.5,12.4,16.4,12.3z M12.2,15.4C8.9,16.6,5.3,15,4,11.8C2.8,8.5,4.4,4.9,7.7,3.6c1-0.4,2.2-0.5,3.3-0.3
	c-1.8,1.5-2.4,4-1.5,6.3c0.9,2.3,3.2,3.8,5.6,3.7C14.3,14.2,13.3,15,12.2,15.4z"/>
</svg>
