<?xml version="1.0" encoding="UTF-8"?><svg xmlns="http://www.w3.org/2000/svg" viewBox="0 0 40 40"><defs></defs><path d="M26.29,15.16l1.47-1.47,6.3-6.3c.39-.39,.39-1.02,0-1.42-.4-.39-1.03-.39-1.42,0l-6.7,6.7L13.07,5.5c-.66-.37-1.41-.57-2.16-.57-2.26-.08-4.16,1.69-4.24,3.94V31.94l-3.08,3.08c-.39,.39-.39,1.03,0,1.42,.2,.19,.45,.29,.71,.29s.51-.1,.71-.29l1.4-1.4,.59-.59,1.66-1.66L26.29,15.16ZM8.66,8.87c.1-1.15,1.1-2.01,2.25-1.94,.41,0,.83,.11,1.19,.32l12.37,6.89-15.81,15.81V8.87Z"/><path d="M34.7,24.29l-21.63,12.06c-.66,.37-1.41,.56-2.16,.56-1,.04-1.94-.29-2.67-.86l1.45-1.45c.35,.22,.77,.34,1.22,.31,.41,0,.83-.1,1.19-.31l21.62-12.05c.38-.18,.68-.48,.86-.86,.42-.9,.04-1.97-.86-2.39l-5.61-3.13,1.47-1.47,5.12,2.85c.7,.36,1.27,.93,1.63,1.64,.96,1.86,.23,4.14-1.63,5.1Z"/></svg>