<?xml version="1.0" encoding="UTF-8" standalone="no"?>
<!DOCTYPE svg PUBLIC "-//W3C//DTD SVG 1.1//EN" "http://www.w3.org/Graphics/SVG/1.1/DTD/svg11.dtd">
<svg width="100%" height="100%" viewBox="0 0 48 48" version="1.1" xmlns="http://www.w3.org/2000/svg" xmlns:xlink="http://www.w3.org/1999/xlink" xml:space="preserve" xmlns:serif="http://www.serif.com/" style="fill-rule:evenodd;clip-rule:evenodd;stroke-linejoin:round;stroke-miterlimit:2;">
    <g id="open_tab_icon" transform="matrix(2.5,0,0,2.5,3.95567,48.0014)">
        <g id="Path_2112" transform="matrix(1,0,0,1,-2.169,0)">
            <path d="M17.369,-16L12.969,-16C12.75,-16 12.569,-15.819 12.569,-15.6C12.569,-15.381 12.75,-15.2 12.969,-15.2L16.8,-15.2L10.961,-9.357C10.886,-9.282 10.844,-9.18 10.844,-9.074C10.844,-8.968 10.886,-8.866 10.961,-8.791C11.036,-8.716 11.138,-8.674 11.244,-8.674C11.35,-8.674 11.451,-8.716 11.526,-8.791L17.368,-14.633L17.368,-10.798C17.368,-10.579 17.549,-10.398 17.768,-10.398C17.987,-10.398 18.168,-10.579 18.168,-10.798C18.168,-11.017 18.168,-10.806 18.168,-10.811L18.168,-15.2C18.168,-15.639 17.807,-16 17.368,-16" style="fill-rule:nonzero;"/>
        </g>
        <path id="Path_2113" d="M1.6,-15.2C1.493,-15.199 1.388,-15.178 1.289,-15.137C0.994,-15.011 0.802,-14.72 0.8,-14.4L0.8,-4.8C0.802,-4.477 0.997,-4.185 1.294,-4.06C1.391,-4.021 1.495,-4 1.6,-4L14.421,-4C14.508,-4.003 14.593,-4.019 14.675,-4.048C14.896,-4.13 15.07,-4.304 15.152,-4.524C15.184,-4.613 15.2,-4.706 15.2,-4.8L15.2,-8.394C15.2,-8.613 15.381,-8.794 15.6,-8.794C15.819,-8.794 16,-8.613 16,-8.394L16,-4.8C16,-3.922 15.278,-3.2 14.4,-3.2L1.6,-3.2C0.722,-3.2 0,-3.922 0,-4.8L0,-14.4C-0,-15.278 0.722,-16 1.6,-16L8.4,-16C8.413,-16.002 8.426,-16.002 8.439,-16C8.461,-15.998 8.483,-15.993 8.505,-15.987C8.524,-15.982 8.543,-15.975 8.561,-15.967C8.671,-15.919 8.755,-15.824 8.789,-15.709C8.8,-15.67 8.805,-15.629 8.804,-15.588C8.803,-15.554 8.797,-15.52 8.787,-15.488C8.757,-15.391 8.693,-15.309 8.606,-15.257C8.581,-15.242 8.555,-15.23 8.528,-15.221C8.501,-15.212 8.473,-15.206 8.445,-15.203C8.43,-15.202 8.416,-15.202 8.401,-15.203C8.394,-15.204 8.388,-15.204 8.381,-15.203L1.6,-15.203L1.6,-15.2Z" style="fill-rule:nonzero;"/>
    </g>
</svg>
