<?xml version="1.0" encoding="UTF-8" standalone="no"?>
<!DOCTYPE svg PUBLIC "-//W3C//DTD SVG 1.1//EN" "http://www.w3.org/Graphics/SVG/1.1/DTD/svg11.dtd">
<svg width="100%" height="100%" viewBox="0 0 18 15" version="1.1" xmlns="http://www.w3.org/2000/svg" xmlns:xlink="http://www.w3.org/1999/xlink" xml:space="preserve" xmlns:serif="http://www.serif.com/" style="fill-rule:evenodd;clip-rule:evenodd;stroke-linejoin:round;stroke-miterlimit:2;">
    <g id="Group_63" transform="matrix(1,0,0,1,0,15.999)">
        <g id="Path_2112" transform="matrix(1,0,0,1,-1.084,0)">
            <path d="M18.184,-16L13.234,-16C12.987,-16 12.784,-15.797 12.784,-15.55C12.784,-15.303 12.987,-15.1 13.234,-15.1L17.548,-15.1L10.975,-8.526C10.801,-8.351 10.801,-8.065 10.975,-7.89C11.06,-7.806 11.175,-7.759 11.294,-7.759C11.413,-7.759 11.528,-7.806 11.612,-7.89L18.185,-14.463L18.185,-10.149C18.185,-9.902 18.388,-9.699 18.635,-9.699C18.882,-9.699 19.085,-9.902 19.085,-10.149L19.085,-15.1C19.085,-15.594 18.679,-16 18.185,-16" style="fill-rule:nonzero;"/>
        </g>
        <path id="Path_2113" d="M1.8,-15.1C1.68,-15.099 1.561,-15.075 1.45,-15.029C1.119,-14.887 0.902,-14.56 0.9,-14.2L0.9,-3.4C0.902,-3.037 1.121,-2.709 1.456,-2.568C1.565,-2.524 1.682,-2.501 1.8,-2.5L16.223,-2.5C16.321,-2.503 16.417,-2.521 16.509,-2.554C16.757,-2.646 16.953,-2.842 17.045,-3.09C17.081,-3.189 17.099,-3.294 17.1,-3.4L17.1,-7.443C17.1,-7.69 17.303,-7.893 17.55,-7.893C17.797,-7.893 18,-7.69 18,-7.443L18,-3.4C18,-2.413 17.187,-1.6 16.2,-1.6L1.8,-1.6C0.813,-1.6 0,-2.413 0,-3.4L0,-14.2C0,-15.187 0.813,-16 1.8,-16L9.422,-16C9.422,-15.998 9.422,-15.997 9.422,-15.995L9.445,-15.995C9.46,-15.997 9.474,-15.997 9.489,-15.995C9.514,-15.992 9.539,-15.987 9.563,-15.98C9.584,-15.974 9.606,-15.967 9.626,-15.958C9.75,-15.904 9.844,-15.797 9.882,-15.667C9.895,-15.623 9.901,-15.576 9.899,-15.53C9.898,-15.491 9.891,-15.453 9.88,-15.416C9.847,-15.308 9.776,-15.215 9.68,-15.156C9.653,-15.14 9.623,-15.126 9.593,-15.116C9.562,-15.106 9.531,-15.099 9.499,-15.096C9.482,-15.094 9.466,-15.094 9.449,-15.096C9.441,-15.098 9.434,-15.1 9.426,-15.101L1.8,-15.101L1.8,-15.1Z" style="fill-rule:nonzero;"/>
    </g>
</svg>
