<svg id="Layer_2" data-name="Layer 2" xmlns="http://www.w3.org/2000/svg" viewBox="0 0 40 40"><g id="open_tab_icon" data-name="open tab icon"><path d="M35,6.5H25.83a1,1,0,0,0,0,2H33.4L21.53,20.39a1,1,0,0,0-.29.71,1,1,0,0,0,.29.71,1.05,1.05,0,0,0,.71.29,1,1,0,0,0,.71-.29L34.83,9.93v7.58a1,1,0,1,0,2,0V8.34A1.83,1.83,0,0,0,35,6.5Z"/><path d="M6.74,8.5a2.34,2.34,0,0,0-.65.12A1.52,1.52,0,0,0,5.17,10V30a1.53,1.53,0,0,0,.93,1.39,1.56,1.56,0,0,0,.57.11H33.38a2,2,0,0,0,.47-.09,1.56,1.56,0,0,0,.89-.89,1.54,1.54,0,0,0,.09-.52V22.51a1,1,0,0,1,2,0V30a3.5,3.5,0,0,1-3.5,3.5H6.67A3.5,3.5,0,0,1,3.17,30V10a3.5,3.5,0,0,1,3.5-3.5H20.94l.16,0,.14,0a1.05,1.05,0,0,1,.57.65,1,1,0,0,1,0,.3.78.78,0,0,1,0,.26,1,1,0,0,1-.45.57.72.72,0,0,1-.2.09.65.65,0,0,1-.2.05Z"/></g></svg>