<svg data-name="Warstwa 1" xmlns="http://www.w3.org/2000/svg" viewBox="0 0 24 24"><defs></defs><path d="M19.9875,13.68l-2.2-1.71,2.2-1.71a1.0071,1.0071,0,0,0,0-1.58l-6.76-5.26A1.987,1.987,0,0,0,12.0025,3a2.0221,2.0221,0,0,0-1.23.42l-6.76,5.27a1.0071,1.0071,0,0,0,0,1.58l2.195,1.705L4.0125,13.69a1.0071,1.0071,0,0,0,0,1.58l6.76,5.255a1.9852,1.9852,0,0,0,2.455-.01l6.76-5.255A1.0071,1.0071,0,0,0,19.9875,13.68Zm-15.36-4.205,6.75-5.26A1.0287,1.0287,0,0,1,12.0025,4a.985.985,0,0,1,.615.21l6.755,5.26-2.395,1.865-.815.635-3.555,2.76a.9694.9694,0,0,1-.615.215,1.0016,1.0016,0,0,1-.61-.21l-3.545-2.76-.815-.635Zm7.98,10.255a.9694.9694,0,0,1-.615.215,1.0016,1.0016,0,0,1-.61-.21l-6.755-5.26,2.395-1.865,3.75,2.915a1.9852,1.9852,0,0,0,2.455-.01l3.75-2.915,2.395,1.87Z"/></svg>