<svg xmlns="http://www.w3.org/2000/svg" width="15.996" height="16" viewBox="0 0 15.996 16">
  <g id="Group_1710" data-name="Group 1710" transform="translate(0 0)">
    <path id="Path_2225" data-name="Path 2225" d="M129.28,7.277V7.049q0-3.128,0-6.255a.725.725,0,0,1,1.442-.149c.007.079.006.159.006.238q0,3.085,0,6.17v.225c.267,0,.515-.006.763,0a.708.708,0,0,1,.66.5.689.689,0,0,1-.252.788.828.828,0,0,1-.422.148c-.983.013-1.965.012-2.948,0a.711.711,0,0,1-.7-.726.719.719,0,0,1,.715-.717c.238-.006.475,0,.742,0" transform="translate(-122.004 0)" fill="#fff"/>
    <path id="Path_2226" data-name="Path 2226" d="M288.93,117.345q0,2.343,0,4.685a.721.721,0,0,1-.892.741.687.687,0,0,1-.537-.534,1.2,1.2,0,0,1-.026-.287q0-4.609,0-9.217a1.2,1.2,0,0,1,.049-.368.71.71,0,0,1,.795-.47.728.728,0,0,1,.608.662c0,.062,0,.125,0,.187q0,2.3,0,4.6" transform="translate(-274.386 -106.794)" fill="#fff"/>
    <path id="Path_2227" data-name="Path 2227" d="M31.949,164.076c0-1.2,0-2.408,0-3.611a.722.722,0,0,1,.975-.7.686.686,0,0,1,.46.545,1.5,1.5,0,0,1,.02.271q0,3.5,0,7a1.278,1.278,0,0,1-.044.369.723.723,0,0,1-1.409-.214c-.007-.562,0-1.124,0-1.686q0-.988,0-1.976" transform="translate(-30.494 -152.447)" fill="#fff"/>
    <path id="Path_2228" data-name="Path 2228" d="M2.913,4.367c.254,0,.486-.005.717,0a.721.721,0,0,1,.7.5A.684.684,0,0,1,4.1,5.65a.864.864,0,0,1-.45.166c-.976.015-1.952.011-2.928.005A.722.722,0,0,1,0,5.12a.712.712,0,0,1,.636-.738c.263-.026.531-.005.819-.005v-.22c0-1.135,0-2.271,0-3.406A.724.724,0,0,1,2.366.03.741.741,0,0,1,2.912.8q0,1.669,0,3.338v.231" transform="translate(0 -0.006)" fill="#fff"/>
    <path id="Path_2229" data-name="Path 2229" d="M257.136,2.19c0-.486,0-.945,0-1.4a.737.737,0,0,1,.545-.751.724.724,0,0,1,.909.7c.006.414,0,.829,0,1.243v.209c.241,0,.472,0,.7,0a.724.724,0,0,1,.738.6.711.711,0,0,1-.668.85c-1,.013-2,.01-3,0a.723.723,0,0,1-.086-1.434,1.584,1.584,0,0,1,.254-.018c.192,0,.384,0,.6,0" transform="translate(-244.048 -0.012)" fill="#fff"/>
    <path id="Path_2230" data-name="Path 2230" d="M161.251,226.559c0,.739.005,1.477,0,2.216a.7.7,0,0,1-.549.674.711.711,0,0,1-.806-.362.85.85,0,0,1-.085-.359q-.009-2.165,0-4.329a.723.723,0,1,1,1.445,0c.005.721,0,1.443,0,2.165Z" transform="translate(-152.528 -213.471)" fill="#fff"/>
  </g>
</svg>
