<svg id="Layer_1" data-name="Layer 1" xmlns="http://www.w3.org/2000/svg" viewBox="0 0 16 16"><defs><style></style></defs><path d="M14.4135,3.65a.4969.4969,0,0,1-.24.45,5.074,5.074,0,0,1-1.69.63l-1.02,4.09a8.4243,8.4243,0,0,1,.81,3.34.5186.5186,0,0,1-.22.44.5653.5653,0,0,1-.28.08.5383.5383,0,0,1-.21-.05l-3.31-1.55-3.51,4.72a.4792.4792,0,0,1-.4.2.4061.4061,0,0,1-.21-.05.4807.4807,0,0,1-.27-.56l1.31-5.76-3.31-1.55a.5321.5321,0,0,1-.28-.4.4976.4976,0,0,1,.19-.45,8.1808,8.1808,0,0,1,3.06-1.51l2.44-3.42a5.0746,5.0746,0,0,1-.62-1.72.4958.4958,0,0,1,.19-.48.5118.5118,0,0,1,.52-.05l6.77,3.17A.5072.5072,0,0,1,14.4135,3.65Z"/></svg>