<svg id="Layer_1" data-name="Layer 1" xmlns="http://www.w3.org/2000/svg" viewBox="0 0 16 16"><defs><style></style></defs><path d="M14.13,3.22,7.36.05A.4918.4918,0,0,0,6.85.1a.503.503,0,0,0-.2.48A5.2163,5.2163,0,0,0,7.27,2.3L4.83,5.72A8.07,8.07,0,0,0,1.78,7.23a.5309.5309,0,0,0-.2.45.5207.5207,0,0,0,.29.4L5.18,9.63,3.86,15.39a.4867.4867,0,0,0,.28.56.3645.3645,0,0,0,.21.05.5067.5067,0,0,0,.4-.2l3.51-4.72,3.3,1.55a.501.501,0,0,0,.49-.03.4951.4951,0,0,0,.22-.44,8.0972,8.0972,0,0,0-.81-3.34l1.03-4.09a5.1052,5.1052,0,0,0,1.68-.63.5062.5062,0,0,0,.25-.45A.4982.4982,0,0,0,14.13,3.22ZM5.37,13.29l.73-3.22,1.23.57Zm6.66-9.51a.4886.4886,0,0,0-.43.38l-1.15,4.6a.5.5,0,0,0,.04.36,6.9236,6.9236,0,0,1,.71,2.24L8.31,10,5.97,8.9,3.08,7.54a6.7265,6.7265,0,0,1,2.15-.89.5111.5111,0,0,0,.31-.19L8.28,2.6a.4962.4962,0,0,0,0-.57,4.4152,4.4152,0,0,1-.34-.6L12.7,3.65A3.6118,3.6118,0,0,1,12.03,3.78Z"/></svg>