<svg id="Layer_1" data-name="Layer 1" xmlns="http://www.w3.org/2000/svg" xmlns:xlink="http://www.w3.org/1999/xlink" viewBox="0 0 100 100">
  <defs>
    <style>
      .cls-1 {
        fill: #2fb3c9;
      }

      .cls-2 {
        fill: url(#linear-gradient);
      }

      .cls-3 {
        fill: url(#linear-gradient-2);
      }

      .cls-4 {
        fill: url(#linear-gradient-3);
      }

      .cls-5 {
        fill: url(#Gradient_bez_nazwy_275);
      }

      .cls-6 {
        fill: url(#Gradient_bez_nazwy_275-2);
      }

      .cls-7 {
        fill: url(#Gradient_bez_nazwy_275-3);
      }
    </style>
    <linearGradient id="linear-gradient" x1="27.04" y1="-1440.41" x2="22.2" y2="-1368.13" gradientTransform="matrix(1, 0, 0, -1, 0, -1340.54)" gradientUnits="userSpaceOnUse">
      <stop offset="0.08" stop-color="#41c0d4"/>
      <stop offset="0.91" stop-color="#1fa7c0"/>
    </linearGradient>
    <linearGradient id="linear-gradient-2" x1="11.13" y1="-1377.73" x2="96.97" y2="-1368.7" xlink:href="#linear-gradient"/>
    <linearGradient id="linear-gradient-3" x1="103.24" y1="-1395.9" x2="39.4" y2="-1428.28" xlink:href="#linear-gradient"/>
    <linearGradient id="Gradient_bez_nazwy_275" data-name="Gradient bez nazwy 275" x1="23.6" y1="-1367.37" x2="22.85" y2="-1373.7" gradientTransform="matrix(1, 0, 0, -1, 0, -1340.54)" gradientUnits="userSpaceOnUse">
      <stop offset="0" stop-color="#080a09" stop-opacity="0.1"/>
      <stop offset="0.94" stop-color="#87236b" stop-opacity="0"/>
    </linearGradient>
    <linearGradient id="Gradient_bez_nazwy_275-2" x1="92.24" y1="-1379.95" x2="83" y2="-1373.31" xlink:href="#Gradient_bez_nazwy_275"/>
    <linearGradient id="Gradient_bez_nazwy_275-3" x1="40.14" y1="-1435.14" x2="48.6" y2="-1431.54" xlink:href="#Gradient_bez_nazwy_275"/>
  </defs>
  <g>
    <path class="cls-1" d="M104.88,53.34q0-.73,0-1.47l-.06-1.71a.49.49,0,0,1,0-.12c0-.55-.06-1.1-.1-1.65s-.07-1.1-.12-1.64c-.06-.72-.13-1.43-.19-2.13a99,99,0,0,0-2.62-14.53h0c-.81-3.17-1.78-6.26-2.88-9.28,0,0,0,0,0-.07-.06-.19-.18-.51-.19-.53-.2-.53-.4-1.05-.61-1.58,0,0-.28-.58-.43-.87a13.5,13.5,0,0,0-6-5.74.43.43,0,0,0-.12,0c-.62-.25-1.62-.62-1.9-.72a93.52,93.52,0,0,0-9.62-3Q76.21,7.3,72.36,6.6l-1.55-.25-1.56-.23L67.7,5.9l-1.54-.18h-.07l-1.53-.15L63,5.42l-1.59-.11-1.59-.1-1.6,0c-1.05,0-2.1-.06-3.16-.06l-1.69,0c-.49,0-1,0-1.47,0s-1,0-1,.06l-.69,0h-.11l-1.65.1-1.64.12-1.63.14-1.76.2L41.62,6l-.67.1c-.22,0-.44,0-.66.09h-.08l-.72.11-.72.11a1.18,1.18,0,0,1-.25,0l-.25,0-1.2.21L35.49,7l-1.58.33c-1.29.28-2.57.58-3.83.91h0c-3.18.82-6.28,1.79-9.33,2.91-.83.3-1.67.62-2.49,1A13.64,13.64,0,0,0,11.81,19c-.09.2-.17.42-.25.62Q10,23.73,8.8,28l0,.1c-.15.55-.31,1.1-.45,1.65L8.25,30A100.31,100.31,0,0,0,8.26,80c0,.09.05.18.07.27a93.46,93.46,0,0,0,3.14,9.9l0,.08c.13.35.26.68.4,1,0,0,0,0,0,0a13.62,13.62,0,0,0,7,6.91l1.13.43A95.37,95.37,0,0,0,30,101.76c1.37.35,5.16,1.21,7.62,1.63l1.85.31.87.12.93.14,1.33.17,1.51.18.7.07,1.78.16h.06c.39,0,.76,0,1.13.09l1.21.08,1.19.07h.65c.46,0,.94,0,1.41,0s.77,0,1.15,0l1.61,0c1.65,0,3.29,0,4.93-.12l1.65-.1,1.64-.12c.55,0,1.09-.09,1.63-.15.78-.07,1.57-.16,2.34-.26q.58-.06,1.17-.15c.23,0,.44,0,.67-.09l.66-.09,1.12-.17.9-.15,1.2-.22,1.58-.29,1.58-.33c1.29-.28,2.75-.63,4-1,0,0,6.25-1.68,9.38-3l2-.74a13.67,13.67,0,0,0,6.11-5.76c.21-.39.41-.8.59-1.22.09-.2.16-.41.24-.62,1.61-4.06,3.32-10.48,3.32-10.49.51-2,1-4,1.35-6,.08-.43.17-.87.24-1.31s.21-1.16.29-1.75l.06-.32c0-.41.13-.83.18-1.26s.15-1,.22-1.55l.18-1.57c.06-.51.12-1,.17-1.57l.13-1.58c0-.52.09-1.06.11-1.59s.08-1.06.1-1.59l.06-1.6c0-1,.05-2.1.05-3.16C104.9,54.46,104.89,53.9,104.88,53.34ZM81.12,55.28a5.54,5.54,0,0,1-.74,2.48s0,0,0,.05l-.16.24a5.79,5.79,0,0,1-.5.72l-1,1.07h0A79.71,79.71,0,0,1,41.29,81.46c-.65.17-1.3.32-2,.48h0a6.2,6.2,0,0,1-2.82-.3,5.56,5.56,0,0,1-3.09-2.88,6.57,6.57,0,0,1-.26-.61s0,0,0,0a.19.19,0,0,1,0-.07c-.14-.37-.23-.76-.34-1.15a80.36,80.36,0,0,1,.06-44l.33-1.12c.05-.17.15-.5.16-.51A7.16,7.16,0,0,1,34.17,30a5.83,5.83,0,0,1,1.28-1.16,5.73,5.73,0,0,1,4-.8l1.8.44A79.68,79.68,0,0,1,78.74,50.23c.33.33.65.67,1,1a6,6,0,0,1,1.41,3.47Z" transform="translate(-5 -5)"/>
    <g>
      <path class="cls-2" d="M39.44,28.13s-19.19-3.66-30.77-.06h0c-.16.55-.31,1.1-.45,1.66L8.15,30a100.55,100.55,0,0,0,0,50c0,.09,0,.18.07.28a94.38,94.38,0,0,0,3.14,9.91l0,.08c.13.35.26.69.4,1v0a13.57,13.57,0,0,0,7,6.92s1.13.45,1.13.45A97.31,97.31,0,0,0,30,101.85c1.37.36,5.17,1.22,7.63,1.64.61.11,1.23.21,1.85.3l.88.13.94.14,1.33.17,1.51.18.69.07,1.8.17C37.41,90.1,33.5,79.06,33.16,78.07c0,0,0,0,0,0v0c-.12-.38-.23-.76-.34-1.15a80.08,80.08,0,0,1,.06-43.92,7,7,0,0,1,1.35-2.84,6.67,6.67,0,0,1,1.28-1.16A5.7,5.7,0,0,1,39.44,28.13Z" transform="translate(-5 -5)"/>
      <path class="cls-3" d="M81.07,55.28A5.56,5.56,0,0,1,80.15,58c.47-.46,15.33-15.3,18.8-37.31l-.21-.6c-.2-.53-.4-1.06-.61-1.58,0,0-.28-.59-.44-.88a13.57,13.57,0,0,0-6-5.75l-.12-.05c-.62-.25-1.63-.62-1.91-.72a93,93,0,0,0-9.64-3q-3.75-1-7.6-1.64l-1.55-.26L69.29,6c-.52-.08-1.05-.14-1.57-.21l-1.54-.19h-.07l-1.53-.15L63,5.32,61.4,5.2l-1.6-.09-1.59-.06C57.16,5,56.1,5,55,5L53.35,5c-.5,0-1,0-1.48,0-.33,0-1,.06-1,.07l-.69,0H50l-1.65.1c-.56,0-1.11.07-1.65.12l-1.64.14-1.75.2-1.76.22L40.92,6l-.67.1h-.07l-.73.12c-.24,0-.48.06-.72.11l-.25,0-.24,0L37,6.64,35.44,7l-1.57.32c-1.29.28-2.58.58-3.84.91h0a97.11,97.11,0,0,0-9.33,2.91c-.84.3-1.68.62-2.51,1a13.66,13.66,0,0,0-6.44,6.86c-.08.2-.17.41-.24.62q-1.59,4.18-2.81,8.54c11.58-3.6,30.77.06,30.77.06l1.79.44A79.5,79.5,0,0,1,78.69,50.24c.33.33.66.67,1,1a5.87,5.87,0,0,1,1.41,3.47Z" transform="translate(-5 -5)"/>
      <path class="cls-4" d="M105,55c0-.57,0-1.13,0-1.69s0-1,0-1.48l-.06-1.72a.41.41,0,0,1,0-.11c0-.55-.06-1.1-.1-1.65s-.07-1.1-.12-1.65c-.06-.71-.13-1.43-.2-2.14A99.5,99.5,0,0,0,101.84,30h0A96.44,96.44,0,0,0,99,20.73c-3.47,22-18.33,36.85-18.8,37.31h0a6.65,6.65,0,0,1-.51.71c-.33.36-.68.71-1,1.07l0,0A79.57,79.57,0,0,1,41.32,81.41l-2,.47h0a6.1,6.1,0,0,1-2.82-.29,5.73,5.73,0,0,1-3.36-3.52c.34,1,4.25,12,13.46,26.58l1.19.09,1.2.08,1.2.07.65,0c.47,0,.94,0,1.42,0s.76,0,1.14,0L55,105c1.66,0,3.3,0,4.94-.12l1.65-.1c.55,0,1.1-.07,1.64-.12l1.64-.14c.79-.08,1.57-.16,2.35-.27q.58-.06,1.17-.15l.67-.09.66-.1c.38,0,.75-.1,1.12-.16l.89-.15,1.21-.21,1.59-.31,1.58-.32c1.29-.28,2.76-.63,4-1,0,0,6.27-1.69,9.41-3l2-.76a13.54,13.54,0,0,0,6.12-5.76,12.55,12.55,0,0,0,.6-1.22l.24-.63c1.61-4.07,3.32-10.5,3.32-10.51q.77-3,1.35-6c.09-.43.17-.87.25-1.31s.2-1.17.29-1.76c0-.1,0-.21.05-.31.06-.42.13-.84.19-1.26s.14-1,.21-1.56.13-1,.19-1.57.11-1.05.17-1.58l.13-1.58q.07-.8.12-1.59l.09-1.6.06-1.6C105,57.15,105,56.09,105,55Z" transform="translate(-5 -5)"/>
    </g>
    <g>
      <path class="cls-5" d="M39.42,28.13C38.64,28,20,24.54,8.67,28.07h0c-.14.55-.3,1.1-.44,1.66h0c0,.08,0,.16-.07.23v0A100.83,100.83,0,0,0,5.89,41.56c11-2,24.19-.57,24.19-.57l.89.13c.49-2.78,1.16-5.5,1.89-8.19a7.76,7.76,0,0,1,1.34-2.84,9.09,9.09,0,0,1,1.28-1.16A5.74,5.74,0,0,1,39.42,28.13Z" transform="translate(-5 -5)"/>
      <path class="cls-6" d="M99,20.73c-.06-.18-.13-.36-.2-.55a.09.09,0,0,0,0-.05c-.2-.53-.61-1.58-.61-1.58a8.86,8.86,0,0,0-.44-.87A13.58,13.58,0,0,0,94,13.35a13.11,13.11,0,0,0-2.32-1.42l-.12-.06-1.87-.71h0l-1.89-.68A74.45,74.45,0,0,1,73.65,39.69h0a6,6,0,0,1-.44.76l-.92,1.14,0,0c-.45.54-.89,1.07-1.35,1.6a78.4,78.4,0,0,1,7.78,7c.33.34.66.68,1,1a6,6,0,0,1,1.42,3.47v.55A5.74,5.74,0,0,1,80.16,58,74.43,74.43,0,0,0,97.36,28,61.74,61.74,0,0,0,99,20.73Z" transform="translate(-5 -5)"/>
      <path class="cls-7" d="M62,104.76A128.44,128.44,0,0,1,50.89,84.49s0,0,0,0a.08.08,0,0,1,0,0c-.14-.37-.27-.75-.4-1.13-.49-1.42-.94-2.85-1.34-4.31a79.24,79.24,0,0,1-7.8,2.43c-.65.16-1.34.33-2,.47a6.1,6.1,0,0,1-2.82-.29,5.7,5.7,0,0,1-3.33-3.47c.44,1.29,4.37,12.21,13.43,26.53l1.19.08q.6.06,1.2.09l1.2.07.65,0,1.42,0,1.14,0H55c1.66,0,3.3,0,4.94-.12l1.65-.1Z" transform="translate(-5 -5)"/>
    </g>
  </g>
</svg>
