<?xml version="1.0" encoding="UTF-8" standalone="no"?>
<!DOCTYPE svg PUBLIC "-//W3C//DTD SVG 1.1//EN" "http://www.w3.org/Graphics/SVG/1.1/DTD/svg11.dtd">
<svg width="100%" height="100%" viewBox="0 0 48 48" version="1.1" xmlns="http://www.w3.org/2000/svg" xmlns:xlink="http://www.w3.org/1999/xlink" xml:space="preserve" xmlns:serif="http://www.serif.com/" style="fill-rule:evenodd;clip-rule:evenodd;stroke-linejoin:round;stroke-miterlimit:2;">
    <g id="properties_icon" transform="matrix(2.66578,0,0,2.66578,7.95753,57.3155)">
        <path id="Path_2124" d="M11.253,-13.247C11.301,-9.891 9.174,-6.864 6,-5.772C2.827,-6.865 0.702,-9.892 0.75,-13.247L0.75,-16.479C0.748,-16.723 0.887,-16.948 1.106,-17.056L5.778,-19.2C5.848,-19.231 5.924,-19.246 6,-19.245C6.079,-19.245 6.157,-19.227 6.228,-19.194L10.9,-17.056C11.119,-16.948 11.258,-16.723 11.256,-16.479L11.253,-13.247ZM11.209,-17.738L6.542,-19.876C6.373,-19.957 6.188,-19.999 6,-20C5.813,-20 5.629,-19.96 5.46,-19.881L0.794,-17.738C0.308,-17.509 -0.002,-17.016 0,-16.479L0,-13.247C-0.048,-9.482 2.403,-6.11 6,-4.995C9.597,-6.11 12.049,-9.482 12,-13.247L12,-16.479C12.003,-17.016 11.692,-17.509 11.206,-17.738" style="fill-rule:nonzero;"/>
        <g id="Path_2125" transform="matrix(1,0,0,1,-0.947,0.224)">
            <path d="M9.466,-14.776L6.2,-11.509L4.432,-13.276C4.287,-13.421 4.047,-13.421 3.902,-13.276C3.832,-13.206 3.792,-13.11 3.792,-13.011C3.792,-12.912 3.832,-12.816 3.902,-12.746L5.934,-10.714C6.004,-10.643 6.1,-10.604 6.199,-10.604C6.299,-10.604 6.395,-10.643 6.465,-10.714L10,-14.246C10.145,-14.391 10.145,-14.631 10,-14.776C9.855,-14.921 9.615,-14.921 9.47,-14.776" style="fill-rule:nonzero;"/>
        </g>
    </g>
</svg>
