<svg id="Layer_2" data-name="Layer 2" xmlns="http://www.w3.org/2000/svg" viewBox="0 0 40 40"><path d="M20,36.84a19.28,19.28,0,0,0,13.49-18.5V11.16a3.24,3.24,0,0,0-1.85-2.94L21.27,3.47A2.92,2.92,0,0,0,20,3.18a3,3,0,0,0-1.27.27L8.37,8.21a3.24,3.24,0,0,0-1.86,2.95v7.18A19.27,19.27,0,0,0,20,36.84Zm11.5-18.5A17.09,17.09,0,0,1,20,34.77,17.13,17.13,0,0,1,8.5,18.34V11.16A1.26,1.26,0,0,1,9.2,10L19.57,5.27A1,1,0,0,1,20,5.18h0a1.13,1.13,0,0,1,.44.1L30.81,10a1.26,1.26,0,0,1,.7,1.13Z"/><path d="M25.48,15.32l-7.14,7.14-3.81-3.8a1,1,0,0,0-1.41,0,1,1,0,0,0-.29.7,1,1,0,0,0,.29.71l4.51,4.51a1,1,0,0,0,.71.29,1.05,1.05,0,0,0,.71-.29l7.85-7.85a1,1,0,0,0,.29-.7,1,1,0,0,0-1.7-.71"/></svg>