<svg id="Layer_2" data-name="Layer 2" xmlns="http://www.w3.org/2000/svg" viewBox="0 0 40 40"><g id="output_icon" data-name="output icon"><path d="M19.62,3.24a.94.94,0,0,1,.76,0,1.46,1.46,0,0,1,.33.21l5.83,5.84a1,1,0,0,1,0,1.42,1,1,0,0,1-.7.29,1,1,0,0,1-.71-.29L21,6.58V25.49a1,1,0,0,1-2,0V6.58l-4.13,4.13a1,1,0,0,1-.71.29,1,1,0,0,1-.7-.29,1,1,0,0,1,0-1.42l5.83-5.84A1.11,1.11,0,0,1,19.62,3.24Z"/><path d="M30,19h-3.2a1,1,0,0,0-1,1h0a1,1,0,0,0,1,1H30a1.45,1.45,0,0,1,1,.43,1.48,1.48,0,0,1,.45,1.06V33.35A1.49,1.49,0,0,1,30,34.84H10.05A1.48,1.48,0,0,1,9,34.39a1.45,1.45,0,0,1-.43-1V22.49A1.49,1.49,0,0,1,10.05,21h3.2a1,1,0,0,0,1-1h0a1,1,0,0,0-1-1h-3.2a3.49,3.49,0,0,0-3.49,3.49V33.35a3.49,3.49,0,0,0,3.49,3.49H30a3.49,3.49,0,0,0,3.49-3.49V22.49A3.49,3.49,0,0,0,30,19Z"/></g></svg>