<?xml version="1.0" encoding="UTF-8" standalone="no"?>
<!DOCTYPE svg PUBLIC "-//W3C//DTD SVG 1.1//EN" "http://www.w3.org/Graphics/SVG/1.1/DTD/svg11.dtd">
<svg width="100%" height="100%" viewBox="0 0 48 48" version="1.1" xmlns="http://www.w3.org/2000/svg" xmlns:xlink="http://www.w3.org/1999/xlink" xml:space="preserve" xmlns:serif="http://www.serif.com/" style="fill-rule:evenodd;clip-rule:evenodd;stroke-linejoin:round;stroke-miterlimit:2;">
    <g id="output_icon" transform="matrix(5.84665e-17,-0.95483,0.95483,5.84665e-17,1.08408,47.9159)">
        <g transform="matrix(1.28258e-16,2.09461,-2.09461,1.28258e-16,26.2293,30.6295)">
            <path d="M0,-5.111C0.195,-4.917 0.513,-4.917 0.708,-5.111C0.902,-5.305 0.902,-5.624 0.708,-5.818L-2.81,-9.336C-2.811,-9.337 -2.811,-9.338 -2.812,-9.339C-2.85,-9.377 -2.896,-9.401 -2.94,-9.423C-2.952,-9.429 -2.961,-9.44 -2.973,-9.445C-3.034,-9.47 -3.1,-9.484 -3.165,-9.484C-3.231,-9.484 -3.297,-9.47 -3.358,-9.445C-3.376,-9.437 -3.389,-9.423 -3.405,-9.414C-3.445,-9.391 -3.485,-9.372 -3.52,-9.339C-3.52,-9.338 -3.521,-9.337 -3.521,-9.336L-7.038,-5.818C-7.232,-5.624 -7.232,-5.305 -7.038,-5.111C-6.844,-4.917 -6.525,-4.917 -6.331,-5.111L-3.665,-7.777L-3.665,3.873C-3.665,4.148 -3.44,4.373 -3.165,4.373C-2.891,4.373 -2.665,4.148 -2.665,3.873L-2.665,-7.777L0,-5.111Z" style="fill-rule:nonzero;"/>
        </g>
        <g transform="matrix(1.28258e-16,2.09461,-2.09461,1.28258e-16,4,36.5677)">
            <path d="M0,-10.548L-2.431,-10.548L-2.431,-9.548L0,-9.548C0.26,-9.548 0.52,-9.447 0.7,-9.258C0.89,-9.068 1,-8.818 1,-8.548L1,-2C1,-1.45 0.55,-1 0,-1L-12,-1C-12.271,-1 -12.521,-1.11 -12.71,-1.3C-12.9,-1.48 -13,-1.74 -13,-2L-13,-8.548C-13,-9.098 -12.55,-9.548 -12,-9.548L-9.57,-9.548L-9.57,-10.548L-12,-10.548C-13.11,-10.548 -14,-9.657 -14,-8.548L-14,-2C-14,-0.9 -13.11,0 -12,0L0,0C1.1,0 2,-0.9 2,-2L2,-8.548C2,-9.657 1.1,-10.548 0,-10.548" style="fill-rule:nonzero;"/>
        </g>
    </g>
</svg>
