<svg id="Layer_2" width="20" height="20" data-name="Layer 2" xmlns="http://www.w3.org/2000/svg" viewBox="0 0 40 40">
    <g id="replay_icon" data-name="replay icon">
        <path d="M34.73,20A14.73,14.73,0,1,1,14.36,6.43V9.82a1,1,0,0,0,2,0V4.26a1,1,0,0,0-1-1H9.81a1,1,0,0,0,0,2h2.32a16.68,16.68,0,1,0,8.77-2,1,1,0,0,0-.67.26,1.06,1.06,0,0,0-.31.75,1,1,0,0,0,.94,1A14.78,14.78,0,0,1,34.73,20Z"/>
        <path d="M23.91,27.22a1,1,0,0,1-.85-.48l-2.17-3.56a8.73,8.73,0,0,0-.62-.92,3.1,3.1,0,0,0-.59-.61,1.76,1.76,0,0,0-.62-.33,2.69,2.69,0,0,0-.74-.1H17.11v5a1,1,0,0,1-2,0V14.64A1.86,1.86,0,0,1,17,12.78h2.52a6.22,6.22,0,0,1,1.75.24,3.86,3.86,0,0,1,1.42.74,3.52,3.52,0,0,1,1,1.24,4.37,4.37,0,0,1,.1,3.12A3.31,3.31,0,0,1,23,19.27a3.86,3.86,0,0,1-1,.86,4.73,4.73,0,0,1-.79.37l-.15.06.28.2a4.18,4.18,0,0,1,.53.5,7.62,7.62,0,0,1,.48.64c.15.23.33.5.52.81l1.86,3a1,1,0,0,1,0,1A1,1,0,0,1,23.91,27.22Zm-4.67-12.6H17.67a.49.49,0,0,0-.5.49v4.21h2a3.47,3.47,0,0,0,1.07-.17,2.57,2.57,0,0,0,.84-.5,2.29,2.29,0,0,0,.54-.77,2.56,2.56,0,0,0,.2-1.06,2,2,0,0,0-.66-1.61,3,3,0,0,0-1.79-.6h-.18Z"/>
    </g>
</svg>