<svg id="Layer_2" data-name="Layer 2" xmlns="http://www.w3.org/2000/svg" viewBox="0 0 40 40"><g id="replay_icon" data-name="replay icon"><path d="M34.73,20A14.73,14.73,0,1,1,14.36,6.43V9.82a1,1,0,0,0,2,0V4.26a1,1,0,0,0-1-1H9.81a1,1,0,0,0,0,2h2.32a16.68,16.68,0,1,0,8.77-2,1,1,0,0,0-.67.26,1.06,1.06,0,0,0-.31.75,1,1,0,0,0,.94,1A14.78,14.78,0,0,1,34.73,20Z"/></g><path d="M16.25,17.29c0-.66,0-1.29,0-1.91a3.75,3.75,0,0,1,7.49-.14c0,.67,0,1.34,0,2h.87a.94.94,0,0,1,1,1v7.36a.94.94,0,0,1-1,1q-4.59,0-9.2,0a.94.94,0,0,1-1-1V18.32a.94.94,0,0,1,1-1Zm7.47,7.49v-5.6H16.26v5.6Zm-1.85-7.5V15.56a2.06,2.06,0,0,0,0-.35A1.88,1.88,0,0,0,20,13.54a1.84,1.84,0,0,0-1.88,1.59c-.07.71,0,1.42,0,2.15Z"/></svg>