<?xml version="1.0" encoding="utf-8"?>
<!-- Generator: Adobe Illustrator 23.0.3, SVG Export Plug-In . SVG Version: 6.00 Build 0)  -->
<svg version="1.1" id="Warstwa_1" xmlns="http://www.w3.org/2000/svg" xmlns:xlink="http://www.w3.org/1999/xlink" x="0px" y="0px"
	 viewBox="0 0 24 24" style="enable-background:new 0 0 24 24;" xml:space="preserve">
<path d="M21,4h-2V3.5C19,3.2,18.8,3,18.5,3S18,3.2,18,3.5V4h-3V3.5C15,3.2,14.8,3,14.5,3S14,3.2,14,3.5V4h-4V3.5C10,3.2,9.8,3,9.5,3
	S9,3.2,9,3.5V4H6V3.5C6,3.2,5.8,3,5.5,3S5,3.2,5,3.5V4H3C2.4,4,2,4.4,2,5v12c0,1.1,0.9,2,2,2h4c1.6,2.2,4.8,2.7,7,1
	c0.4-0.3,0.7-0.6,1-1h4c1.1,0,2-0.9,2-2V5C22,4.4,21.6,4,21,4z M5,5v0.5C5,5.8,5.2,6,5.5,6S6,5.8,6,5.5V5h3v0.5C9,5.8,9.2,6,9.5,6
	S10,5.8,10,5.5V5h4v0.5C14,5.8,14.2,6,14.5,6S15,5.8,15,5.5V5h3v0.5C18,5.8,18.2,6,18.5,6S19,5.8,19,5.5V5h2v2H3V5H5z M12,20
	c-2.2,0-4-1.8-4-4s1.8-4,4-4s4,1.8,4,4C16,18.2,14.2,20,12,20z M20,18h-3.4c1.1-2.5,0-5.5-2.6-6.6s-5.5,0-6.6,2.6
	c-0.6,1.3-0.6,2.7,0,4H4c-0.6,0-1-0.4-1-1V8h18v9C21,17.6,20.6,18,20,18z"/>
<path d="M13.5,16H12v-2.5c0-0.3-0.2-0.5-0.5-0.5h-0.1c-0.3,0-0.5,0.2-0.5,0.5v3l0,0c0,0.3,0.2,0.5,0.5,0.5h2.1
	c0.3,0,0.5-0.2,0.5-0.5S13.8,16,13.5,16z"/>
</svg>
