<svg id="Warstwa_1" data-name="Warstwa 1" xmlns="http://www.w3.org/2000/svg" viewBox="0 0 24 24"><defs><style>.cls-1{fill:#969c9e;}</style></defs><path d="M21,5H19V4.5a.5.5,0,1,0-1,0V5H15V4.5a.5.5,0,0,0-1,0V5H10V4.5a.5.5,0,0,0-1,0V5H6V4.5a.5.5,0,0,0-1,0V5H3A1,1,0,0,0,2,6L2,18a2,2,0,0,0,2,2H8.0061a4.9868,4.9868,0,0,0,7.9874,0H20a2,2,0,0,0,2-2L22,6A1,1,0,0,0,21,5ZM5,6v.5a.5.5,0,0,0,1,0V6H9v.5a.5.5,0,0,0,1,0V6h4v.5a.5.5,0,0,0,1,0V6h3v.5a.5.5,0,1,0,1,0V6h2V8H3V6Zm7,15a4,4,0,1,1,4-4A4.005,4.005,0,0,1,12,21Zm8-2H16.5814a5.0005,5.0005,0,1,0-9.1632,0H4a1,1,0,0,1-1-1V9H21l0,9A1.0011,1.0011,0,0,1,20,19Z"/><path d="M13.5,17H12V14.5a.5016.5016,0,0,0-.5-.5h-.0834a.5016.5016,0,0,0-.5.5v3h0a.5014.5014,0,0,0,.5.5H13.5a.5.5,0,0,0,0-1Z"/></svg>
