<?xml version="1.0" encoding="utf-8"?>
<!-- Generator: Adobe Illustrator 23.0.3, SVG Export Plug-In . SVG Version: 6.00 Build 0)  -->
<svg version="1.1" id="Warstwa_1" xmlns="http://www.w3.org/2000/svg" xmlns:xlink="http://www.w3.org/1999/xlink" x="0px" y="0px"
	 viewBox="0 0 24 24" style="enable-background:new 0 0 24 24;" xml:space="preserve">
<path d="M21,3h-2V2.5C19,2.2,18.8,2,18.5,2S18,2.2,18,2.5V3h-3V2.5C15,2.2,14.8,2,14.5,2S14,2.2,14,2.5V3h-4V2.5C10,2.2,9.8,2,9.5,2
	S9,2.2,9,2.5V3H6V2.5C6,2.2,5.8,2,5.5,2S5,2.2,5,2.5V3H3C2.4,3,2,3.4,2,4v12c0,1.1,0.9,2,2,2h4c1.6,2.2,4.8,2.7,7,1
	c0.4-0.3,0.7-0.6,1-1h4c1.1,0,2-0.9,2-2V4C22,3.4,21.6,3,21,3z M5,4v0.5C5,4.8,5.2,5,5.5,5S6,4.8,6,4.5V4h3v0.5C9,4.8,9.2,5,9.5,5
	S10,4.8,10,4.5V4h4v0.5C14,4.8,14.2,5,14.5,5S15,4.8,15,4.5V4h3v0.5C18,4.8,18.2,5,18.5,5S19,4.8,19,4.5V4h2v2H3V4H5z M12,19
	c-2.2,0-4-1.8-4-4s1.8-4,4-4s4,1.8,4,4C16,17.2,14.2,19,12,19z M20,17h-3.4c1.1-2.5,0-5.5-2.6-6.6s-5.5,0-6.6,2.6
	c-0.6,1.3-0.6,2.7,0,4H4c-0.6,0-1-0.4-1-1V7h18v9C21,16.6,20.6,17,20,17z"/>
<path d="M13.5,15H12v-2.5c0-0.3-0.2-0.5-0.5-0.5h-0.1c-0.3,0-0.5,0.2-0.5,0.5v3l0,0c0,0.3,0.2,0.5,0.5,0.5h2.1
	c0.3,0,0.5-0.2,0.5-0.5S13.8,15,13.5,15z"/>
</svg>
