<?xml version="1.0" encoding="UTF-8" standalone="no"?>
<!DOCTYPE svg PUBLIC "-//W3C//DTD SVG 1.1//EN" "http://www.w3.org/Graphics/SVG/1.1/DTD/svg11.dtd">
<svg width="100%" height="100%" viewBox="0 0 48 48" version="1.1" xmlns="http://www.w3.org/2000/svg" xmlns:xlink="http://www.w3.org/1999/xlink" xml:space="preserve" xmlns:serif="http://www.serif.com/" style="fill-rule:evenodd;clip-rule:evenodd;stroke-linejoin:round;stroke-miterlimit:2;">
    <g transform="matrix(2.66804,0,0,2.66804,-3409.79,-1205.99)">
        <g id="scissors_icon">
            <path id="scissors" d="M1288.08,465.6L1283.76,457.283C1283.38,456.487 1283.64,455.518 1284.38,455.027C1284.4,455.011 1284.43,455.002 1284.46,455.002C1284.51,455.002 1284.56,455.031 1284.58,455.077C1284.59,455.089 1288.49,462.612 1288.49,462.612C1288.98,462.084 1289.67,461.784 1290.4,461.783C1290.4,461.783 1290.4,461.783 1290.4,461.783C1291.83,461.783 1293.01,462.961 1293.01,464.393C1293.01,465.825 1291.83,467.003 1290.4,467.003C1289.43,467.003 1288.53,466.46 1288.09,465.598L1288.08,465.6ZM1289.04,464.372C1289.04,465.12 1289.65,465.735 1290.4,465.735C1291.15,465.735 1291.77,465.119 1291.77,464.37C1291.77,463.621 1291.15,463.005 1290.4,463.005C1289.65,463.006 1289.04,463.623 1289.04,464.372ZM1282.4,466.707C1281.54,466.259 1280.99,465.365 1280.99,464.395C1280.99,462.964 1282.17,461.788 1283.6,461.788C1284.32,461.788 1285.01,462.087 1285.5,462.613L1285.7,462.235L1286.68,464.126L1285.92,465.604C1285.47,466.465 1284.58,467.007 1283.61,467.007C1283.19,467.007 1282.78,466.905 1282.4,466.71L1282.4,466.707ZM1282.22,464.372C1282.23,465.12 1282.84,465.735 1283.59,465.735C1284.34,465.735 1284.95,465.119 1284.95,464.37C1284.95,463.621 1284.34,463.005 1283.59,463.005C1282.84,463.006 1282.22,463.623 1282.22,464.372ZM1287.31,459.132L1289.41,455.078C1289.43,455.033 1289.48,455.005 1289.53,455.005C1289.56,455.005 1289.59,455.013 1289.61,455.028C1290.34,455.519 1290.61,456.487 1290.23,457.284L1288.28,461.022L1287.31,459.132Z" style="fill-rule:nonzero;"/>
        </g>
    </g>
</svg>
