<svg xmlns="http://www.w3.org/2000/svg" viewBox="0 0 861.321 861.321">
	<path d="M662.979 164.127c37.5-91.9-20.299-144.6-44.199-161.7-4.899-3.5-11.899-1.8-14.7 3.5l-150.899 290.6 70.399 135.6 139.399-268zM100.579 839.526c91.6 47.7 204.5 12.2 252.2-79.3l.3.2 55-105.9-70.399-135.6-14.101 27.1a185.788 185.788 0 0 0-51.399-38.699c-91.8-47-203.3-11.4-251 80-47.701 91.6-12.101 204.5 79.399 252.199zm85.6-265.399c54.1 0 98 43.899 98 98 0 54.1-43.9 98-98 98s-98-43.9-98-98c0-54.101 43.8-98 98-98z"/>
	<path d="M840.078 587.327c-33.398-64.101-98.199-100.7-165.6-100.7-28.699 0-57.899 6.7-85.399 20.7-19.8 10.199-37.1 23.399-51.399 38.699 0 0-280-539.2-280.5-540.1-2.601-5.1-9.7-7.1-14.7-3.5-24 17.1-81.8 69.8-44.2 161.7l309.901 596.2.3-.2c33.3 63.899 98.5 100.6 165.899 100.6 29.1 0 58.699-6.8 86.301-21.2 91.598-47.699 127.198-160.599 79.397-252.199zm-164.898 182.8c-54.101 0-98-43.9-98-98 0-54.101 43.899-98 98-98 54.1 0 98 43.899 98 98 0 54.1-43.901 98-98 98z"/>
</svg>
