<svg xmlns="http://www.w3.org/2000/svg" width="660" height="655" viewBox="0 0 660 655">
  <path id="scissors" d="M389.645,578.362l-.239.149L151.961,124.533C123.123,54.581,167.448,14.416,185.8,1.39a7.838,7.838,0,0,1,11.282,2.7c.393.64,214.929,411.26,214.929,411.26a143.635,143.635,0,0,1,231.705,31.461c36.652,69.7,9.349,155.685-60.844,192.013A143.373,143.373,0,0,1,516.783,655C465.085,655,415.119,627.031,389.645,578.362Zm52.637-67c0,41.2,33.638,74.622,75.091,74.622s75.091-33.426,75.091-74.622-33.638-74.624-75.091-74.624S442.281,470.165,442.281,511.36ZM77.073,638.829c-70.1-36.328-97.4-122.308-60.85-192.013a143.837,143.837,0,0,1,231.754-31.461l10.785-20.649L312.676,497.94,270.585,578.61l-.252-.149C244.8,627.115,194.9,654.977,143.208,654.975A143.562,143.562,0,0,1,77.073,638.829Zm-9.5-127.468c0,41.2,33.644,74.622,75.091,74.622s75.091-33.426,75.091-74.622-33.638-74.624-75.091-74.624C101.16,436.737,67.571,470.165,67.571,511.36Zm279.689-286L462.912,4.094a7.715,7.715,0,0,1,11.227-2.7c18.354,13.027,62.624,53.191,33.884,123.143L401.228,328.59Z" fill="#2aa5b5"/>
</svg>
