<?xml version="1.0" encoding="UTF-8" standalone="no"?>
<!DOCTYPE svg PUBLIC "-//W3C//DTD SVG 1.1//EN" "http://www.w3.org/Graphics/SVG/1.1/DTD/svg11.dtd">
<svg width="100%" height="100%" viewBox="0 0 48 48" version="1.1" xmlns="http://www.w3.org/2000/svg" xmlns:xlink="http://www.w3.org/1999/xlink" xml:space="preserve" xmlns:serif="http://www.serif.com/" style="fill-rule:evenodd;clip-rule:evenodd;stroke-linejoin:round;stroke-miterlimit:2;">
    <g transform="matrix(1.88,0,0,1.88,9.88,28.7197)">
        <g id="download_icon">
            <path d="M0,-5.021C0,-7.778 2.243,-10.021 5,-10.021C7.757,-10.021 10,-7.778 10,-5.021C10,-2.264 7.757,-0.021 5,-0.021C2.243,-0.021 0,-2.264 0,-5.021M15.875,5.146L9.579,-1.149C10.464,-2.194 11,-3.544 11,-5.021C11,-8.334 8.313,-11.021 5,-11.021C1.686,-11.021 -1,-8.334 -1,-5.021C-1,-1.708 1.686,0.979 5,0.979C6.477,0.979 7.827,0.443 8.872,-0.442L15.167,5.853C15.265,5.951 15.393,6 15.521,6C15.649,6 15.777,5.951 15.875,5.853C16.07,5.658 16.07,5.341 15.875,5.146" style="fill-rule:nonzero;"/>
        </g>
    </g>
</svg>
