<?xml version="1.0" encoding="UTF-8" standalone="no"?>
<!DOCTYPE svg PUBLIC "-//W3C//DTD SVG 1.1//EN" "http://www.w3.org/Graphics/SVG/1.1/DTD/svg11.dtd">
<svg width="100%" height="100%" viewBox="0 0 18 19" version="1.1" xmlns="http://www.w3.org/2000/svg" xmlns:xlink="http://www.w3.org/1999/xlink" xml:space="preserve" xmlns:serif="http://www.serif.com/" style="fill-rule:evenodd;clip-rule:evenodd;stroke-linejoin:round;stroke-miterlimit:2;">
    <g transform="matrix(1,0,0,1,-694.308,-472.699)">
        <g transform="matrix(1,0,0,1,708.528,473.699)">
            <path d="M0,16.391C-1.1,16.391 -2,15.491 -2,14.391C-2,13.29 -1.1,12.391 0,12.391C1.11,12.391 2,13.29 2,14.391C2,15.491 1.11,16.391 0,16.391M-11.22,10.191C-12.329,10.191 -13.22,9.301 -13.22,8.191C-13.22,7.09 -12.329,6.201 -11.22,6.201C-10.119,6.201 -9.22,7.09 -9.22,8.191C-9.22,9.301 -10.119,10.191 -11.22,10.191M0,0C1.11,0 2,0.901 2,2C2,3.101 1.11,4 0,4C-0.729,4 -1.38,3.601 -1.729,3.011C-1.729,2.991 -1.739,2.971 -1.76,2.951C-1.76,2.931 -1.77,2.911 -1.779,2.891C-1.789,2.88 -1.789,2.87 -1.8,2.861C-1.93,2.601 -2,2.311 -2,2C-2,0.901 -1.1,0 0,0M0,11.391C-0.88,11.391 -1.68,11.771 -2.229,12.391L-8.3,8.861C-8.25,8.641 -8.22,8.42 -8.22,8.191C-8.22,7.88 -8.27,7.58 -8.359,7.301L-2.38,3.821C-1.829,4.54 -0.97,5 0,5C1.66,5 3,3.661 3,2C3,0.34 1.66,-1 0,-1C-1.649,-1 -3,0.34 -3,2C-3,2.33 -2.949,2.641 -2.84,2.931L-8.819,6.401C-9.369,5.67 -10.239,5.201 -11.22,5.201C-12.88,5.201 -14.22,6.54 -14.22,8.191C-14.22,9.851 -12.88,11.191 -11.22,11.191C-10.159,11.191 -9.22,10.63 -8.68,9.79L-2.76,13.231C-2.92,13.59 -3,13.981 -3,14.391C-3,16.051 -1.649,17.391 0,17.391C1.66,17.391 3,16.051 3,14.391C3,12.731 1.66,11.391 0,11.391" />
        </g>
    </g>
</svg>
