<svg version="1.1" id="Layer_2" width="20" height="20" xmlns="http://www.w3.org/2000/svg" xmlns:xlink="http://www.w3.org/1999/xlink" x="0px" y="0px"
    viewBox="0 0 40 40" style="enable-background:new 0 0 40 40;" xml:space="preserve">
    <g id="sip" transform="matrix(1.11108,0,0,1.11108,-607.927,-275.992)">
        <path d="M576.4,265.5l-22.5,0c-0.5,0-0.9,0.4-0.9,0.9c0,0.5,0.4,0.9,0.9,0.9h22.5c0.5,0,0.9-0.4,0.9-0.9
            C577.3,265.9,576.9,265.5,576.4,265.5z"/>
        <path d="M571.9,251.3l-13.5,0c-0.5,0-0.9,0.4-0.9,0.9c0,0.5,0.4,0.9,0.9,0.9h13.5c0.5,0,0.9-0.4,0.9-0.9
            C572.8,251.7,572.4,251.3,571.9,251.3z"/>
        <path d="M574.9,272.6h-19.5c-0.5,0-0.9,0.4-0.9,0.9c0,0.5,0.4,0.9,0.9,0.9h19.5c0.5,0,0.9-0.4,0.9-0.9
            C575.8,273,575.4,272.6,574.9,272.6z"/>
        <path d="M574.9,258.4h-19.5c-0.5,0-0.9,0.4-0.9,0.9c0,0.5,0.4,0.9,0.9,0.9h19.5c0.5,0,0.9-0.4,0.9-0.9
            C575.8,258.8,575.4,258.4,574.9,258.4z"/>
        <path d="M571.9,279.7l-13.5,0c-0.5,0-0.9,0.4-0.9,0.9c0,0.5,0.4,0.9,0.9,0.9h13.5c0.5,0,0.9-0.4,0.9-0.9
            C572.8,280.1,572.4,279.7,571.9,279.7z"/>
    </g>
</svg>