<svg xmlns="http://www.w3.org/2000/svg" width="14" height="14" viewBox="0 0 14 14">
  <g id="Group_1045" data-name="Group 1045" transform="translate(-21.262 -0.275)">
    <path id="Path_2046" data-name="Path 2046" d="M28.262.275a7,7,0,1,0,7,7A7,7,0,0,0,28.262.275Zm0,13.125a6.125,6.125,0,1,1,6.125-6.125A6.125,6.125,0,0,1,28.262,13.4Z" fill="#646a6c"/>
    <path id="Path_2047" data-name="Path 2047" d="M28.7,7.109V3.049a.438.438,0,1,0-.875,0V7.266a.445.445,0,0,0,.131.333l3.132,3.132a.438.438,0,0,0,.619,0l0,0a.438.438,0,0,0,0-.612Z" fill="#646a6c"/>
  </g>
</svg>
