<svg id="Layer_2" data-name="Layer 2" xmlns="http://www.w3.org/2000/svg" viewBox="0 0 40 40"><g id="storage"><path d="M36.67,13.32c0-4.49-8.59-6.91-16.67-6.91S3.33,8.83,3.33,13.32h0V26.68c0,4.48,8.59,6.9,16.67,6.9s16.67-2.42,16.67-6.9V13.33h0ZM20,8.41c8.39,0,14.67,2.59,14.67,4.91s-6.28,4.9-14.67,4.9S5.33,15.63,5.33,13.32,11.61,8.41,20,8.41Zm0,23.17c-8.39,0-14.67-2.59-14.67-4.9V23.4c3,2.29,9,3.5,14.67,3.5s11.66-1.21,14.67-3.5v3.28C34.67,29,28.39,31.58,20,31.58Zm0-6.68c-8.39,0-14.67-2.58-14.67-4.9V16.72c3,2.29,9,3.5,14.67,3.5S31.66,19,34.67,16.72V20C34.67,22.32,28.39,24.9,20,24.9Z"/></g></svg>