<?xml version="1.0" encoding="UTF-8"?><svg id="Layer_1" xmlns="http://www.w3.org/2000/svg" width="40" height="40" viewBox="0 0 40 40"><path d="M12.5679,26.6362H4.5942c-.5518,0-1.001,.4492-1.001,1.001s.4492,1.0005,1.001,1.0005h7.9736c.5518,0,1.0005-.4487,1.0005-1.0005s-.4487-1.001-1.0005-1.001Z"/><path d="M36.5566,25.269c0-9.1377-7.4336-16.5713-16.5713-16.5713S3.4141,16.1313,3.4141,25.269c0,.8428,.064,1.6899,.1904,2.5186,.0405,.2642,.1821,.4971,.3979,.6558,.2163,.1587,.4829,.2246,.7422,.1836,.5459-.084,.9219-.5957,.8394-1.1411-.1118-.729-.1685-1.4751-.1685-2.2168,0-8.0337,6.5361-14.5698,14.5698-14.5698s14.5698,6.5361,14.5698,14.5698c0,.7417-.0566,1.4878-.1685,2.2173-.0825,.5449,.2935,1.0566,.8389,1.1406,.5444,.0771,1.0586-.3047,1.1406-.8394,.1265-.8315,.1904-1.6792,.1904-2.5186Z"/><path d="M19.9854,24.2319c-1.2148,0-2.2031,.9883-2.2031,2.2026s.9883,2.2031,2.2031,2.2031,2.2026-.9883,2.2026-2.2031-.9883-2.2026-2.2026-2.2026Z"/><path d="M19.9839,26.397c-.0059,.002-.021,.0186-.021,.0376,0,.0244,.0444,.0254,.0444,0,0-.019-.0151-.0356-.0234-.0376Z"/><path d="M19.9854,25.3447c-.6011,0-1.0903,.4888-1.0903,1.0898s.4893,1.0903,1.0903,1.0903,1.0903-.4893,1.0903-1.0903-.4893-1.0898-1.0903-1.0898Z"/><path d="M20.9663,26.4375l.0166-5.8892c.0015-.5518-.4463-1.002-.998-1.0034-.5532,0-1.0024,.4473-1.0034,.9976l-.0166,5.8896c-.0015,.5518,.4463,1.002,.998,1.0034,.5532,0,1.002-.4478,1.0034-.998Z"/><rect x="18.9844" y="9.8101" width="2.0015" height="5.4331" rx=".8882" ry=".8882"/><path d="M11.0337,18.9448l-3.166-1.8281c-.1396-.0801-.292-.1187-.4429-.1187-.3071,0-.6064,.1592-.771,.4438l-.1123,.1948c-.2446,.4243-.0991,.9688,.3252,1.2139l3.166,1.8281c.4243,.2437,.9688,.1001,1.2139-.3252l.1123-.1948c.2446-.4243,.0991-.9688-.3252-1.2139Z"/><path d="M33.3164,17.4424c-.1187-.2061-.3101-.353-.5391-.4141-.0767-.0205-.1543-.0308-.2314-.0308-.1538,0-.3057,.04-.4429,.1191l-3.1665,1.8281c-.4238,.2451-.5698,.7896-.3252,1.2139l.1128,.1943c.1187,.2061,.3101,.353,.5391,.4141,.2305,.0625,.4688,.0303,.6743-.0884l3.1665-1.8281c.4238-.2451,.5698-.7896,.3252-1.2139l-.1128-.1943Z"/><path d="M35.3755,26.6362h-7.9736c-.5518,0-1.001,.4492-1.001,1.001s.4492,1.0005,1.001,1.0005h7.9736c.5518,0,1.0005-.4487,1.0005-1.0005s-.4487-1.001-1.0005-1.001Z"/></svg>