<svg xmlns="http://www.w3.org/2000/svg" width="710.633" height="559.317" viewBox="0 0 710.633 559.317">
  <path id="Stream_icon" data-name="Stream icon" d="M288.471,531.467A95.014,95.014,0,0,1,422.593,396.85c36.912,37.06,37.06,97.508.154,134.617a94.849,94.849,0,0,1-134.276,0ZM140.533,321.839c-18.653-18.7-8.045-60.35,30.293-83.689,113-68.641,255.965-68.742,368.92-.3,38.393,23.244,49.051,64.842,30.447,83.5-18.6,18.7-59.56,6.957-99.877-12.83a261.492,261.492,0,0,0-229.906.446c-26,12.888-52.326,22.31-72.737,22.31C156.518,331.27,147.127,328.452,140.533,321.839Zm-131.51-132c-18.6-18.705-8.088-60.058,28.228-86.458,189.042-137.628,447.182-137.877,636.077-.544,36.316,26.4,46.881,67.7,28.326,86.356-18.61,18.6-59.314,7.455-96.528-17.666C454.865,69.977,256,70.269,105.544,172.223c-24.35,16.493-50.237,26.944-70.432,26.941C24.492,199.164,15.433,196.269,9.023,189.84Z"/>
</svg>
