<svg xmlns="http://www.w3.org/2000/svg" width="11.267" height="11.321" viewBox="0 0 11.267 11.321">
  <g id="icon" transform="translate(-390.5 -394.453)">
    <circle id="Ellipse_63" data-name="Ellipse 63" cx="4" cy="4" r="4" transform="translate(392 395)" fill="#fff"/>
    <path id="Path_2140" data-name="Path 2140" d="M5.183,10.274H5.062c-.042-.008-.084-.02-.126-.025-.216-.022-.433-.031-.647-.065a4.924,4.924,0,0,1-2.8-1.449A5.013,5.013,0,0,1,0,4.92,5.064,5.064,0,0,1,.236,3.572,5.134,5.134,0,0,1,5.961.072a5.037,5.037,0,0,1,3.4,2.182,4.9,4.9,0,0,1,.879,2.669,1.054,1.054,0,0,0,.025.146V5.19c-.009.049-.019.1-.026.146a9.828,9.828,0,0,1-.133.98,5.119,5.119,0,0,1-4.779,3.933,1.026,1.026,0,0,0-.146.025M4.293,5.551l-.05,0a.482.482,0,0,0-.058-.095q-.467-.471-.937-.938c-.147-.147-.244-.146-.393,0l-.66.661a.225.225,0,0,0,0,.379L4.065,7.44c.155.155.243.155.4,0l2.6-2.6.98-.98c.146-.146.147-.239,0-.384q-.322-.324-.646-.647c-.169-.169-.257-.168-.428,0Q5.662,4.146,4.353,5.457a.508.508,0,0,0-.06.094" transform="translate(391 395)" fill="#77b74b" stroke="rgba(0,0,0,0)" stroke-width="1"/>
  </g>
</svg>
