<svg id="Layer_1" xmlns="http://www.w3.org/2000/svg" viewBox="0 0 132 132"><style>.st0{fill:url(#SVGID_1_)}.st1{fill:url(#SVGID_2_)}.st2{fill:url(#SVGID_3_)}.st3{fill:url(#SVGID_4_)}.st4{fill:url(#SVGID_5_)}.st5{fill:url(#SVGID_6_)}</style><linearGradient id="SVGID_1_" gradientUnits="userSpaceOnUse" x1="13.361" y1="1483.053" x2="45.569" y2="1571.545" gradientTransform="translate(0 -1450.536)"><stop offset=".095" stop-color="#1d9aaa"/><stop offset=".901" stop-color="#2aadb7"/></linearGradient><path class="st0" d="M45.8 31.1s-24.9-4.8-40-.1c-.2.7-.4 1.4-.6 2.2l-.1.3C2.4 43.9 1 54.7 1 66c0 11.2 1.4 22.2 4.1 32.5 0 .1.1.2.1.4 1.1 4.4 2.5 8.7 4.1 12.9v.1c.2.5.3.9.5 1.3 1.8 4 5 7.2 9.1 9l1.5.6c4.3 1.6 8.6 3 13.1 4.1 1.8.5 6.7 1.6 9.9 2.1.8.1 1.6.3 2.4.4.4.1.8.1 1.1.2.4.1.8.1 1.2.2.4.1 1.5.2 1.7.2.7.1 1.3.2 2 .2.3 0 .6.1.9.1.8.1 1.5.1 2.3.2-12-18.9-17.1-33.3-17.5-34.6-.2-.5-.3-1-.4-1.5-2.6-9-4-18.6-4-28.4 0-10 1.4-19.6 4-28.7.1-.5.5-2.3 1.7-3.7.5-.6.7-.8 1.7-1.5 1.7-1 3.4-1.3 5.3-1z"/><linearGradient id="SVGID_2_" gradientUnits="userSpaceOnUse" x1="8.97" y1="1493.378" x2="120.556" y2="1481.65" gradientTransform="translate(0 -1450.536)"><stop offset=".102" stop-color="#2aadb7"/><stop offset=".905" stop-color="#1d9aaa"/></linearGradient><path class="st1" d="M99.9 66.4c-.1 1.2-.5 2.4-1.2 3.6.6-.6 19.9-19.9 24.4-48.5-.1-.2-.3-.7-.3-.8-.3-.7-.5-1.4-.8-2 0 0-.4-.8-.6-1.1-1.8-3.2-4.5-5.9-7.8-7.5 0 0-.1 0-.2-.1-.8-.3-2.1-.8-2.5-.9-4-1.6-9.7-3.2-12.5-3.9-3.2-.8-6.5-1.5-9.9-2.1-.7-.1-1.3-.2-2-.3s-1.3-.2-2-.3-1.4-.2-2-.3c-.7-.1-1.3-.2-2-.2h-.1c-.7-.1-1.3-.1-2-.2s-1.4-.1-2.1-.2c-.7 0-1.4-.1-2.1-.1s-1.4-.1-2.1-.1-1.4-.1-2.1-.1C68.8 1 67.4 1 66 1h-4.1c-.4 0-1.3.1-1.3.1h-1c-.7 0-1.4.1-2.1.1-.7 0-1.4.1-2.1.2-.7.1-1.4.1-2.1.2-.8.1-1.5.2-2.3.3s-1.5.2-2.3.3c-.3 0-.6.1-.9.1-.3 0-.6.1-.9.1h-.1l-.9.1c-.3 0-.6.1-.9.1h-.3c-.1 0-.2 0-.3.1-.5.1-1 .2-1.6.3-.7.1-1.4.3-2.1.4-.7.1-1.4.3-2 .4-1.7.4-3.3.8-5 1.2-4.1 1.1-8.2 2.3-12.1 3.8L18.3 10c-3.7 1.9-6.7 5-8.4 8.9-.1.3-.2.5-.3.8C8 23.5 6.8 27.2 5.8 31c15.1-4.7 40 .1 40 .1.8.2 1.6.4 2.3.6 18.8 4.8 35.6 14.7 48.7 28.2l1.3 1.3c1.1 1.4 1.8 3 1.8 4.5v.7z"/><linearGradient id="SVGID_3_" gradientUnits="userSpaceOnUse" x1="58.834" y1="1582.167" x2="116.12" y2="1508.844" gradientTransform="translate(0 -1450.536)"><stop offset=".095" stop-color="#1d9aaa"/><stop offset=".898" stop-color="#2aadb7"/></linearGradient><path class="st2" d="M130.9 66v-2.2-1.9c0-.7 0-1.5-.1-2.2v-.1c0-.7-.1-1.4-.1-2.1 0-.7-.1-1.4-.2-2.1-.1-.9-.2-1.9-.3-2.8-.7-6.5-1.8-12.8-3.4-18.9-1.1-4.1-2.3-8.1-3.8-12.1-4.5 28.5-23.8 47.8-24.4 48.4-.2.3-.4.6-.7.9-.4.5-.9.9-1.3 1.4-13.1 13.4-29.7 23.3-48.5 28-.8.2-1.7.4-2.5.6-1.3.2-2.6 0-3.7-.4-2-.7-3.5-2.3-4.4-4.6.4 1.3 5.5 15.6 17.5 34.6.5 0 1 .1 1.5.1s1 .1 1.6.1c.5 0 1 .1 1.6.1h.8c.6 0 1.2 0 1.8.1h3.6c2.2 0 4.3 0 6.4-.2.7 0 1.4-.1 2.1-.1s1.4-.1 2.1-.2c.7-.1 1.4-.1 2.1-.2l3-.3c.5-.1 1-.1 1.5-.2.3 0 .6-.1.9-.1s.6-.1.9-.1c.5-.1 1-.1 1.5-.2.3 0 1.2-.2 1.2-.2.5-.1 1-.2 1.6-.3.7-.1 1.4-.3 2.1-.4.7-.1 1.4-.3 2-.4 1.7-.4 3.6-.8 5.2-1.3 0 0 8.1-2.2 12.2-3.8l2.6-1c3.4-1.6 6.2-4.2 8-7.5.3-.5.5-1 .8-1.6.1-.3.2-.5.3-.8 2.1-5.3 4.3-13.6 4.3-13.7.7-2.6 1.3-5.2 1.8-7.9.1-.6.2-1.1.3-1.7.1-.8.3-1.5.4-2.3 0-.1 0-.3.1-.4.1-.5.2-1.1.2-1.6.1-.7.2-1.4.3-2 .1-.7.2-1.4.2-2 .1-.7.1-1.4.2-2l.2-2.1c.1-.7.1-1.4.1-2.1s.1-1.4.1-2.1.1-1.4.1-2.1c.2-1.2.2-2.6.2-4z"/><linearGradient id="SVGID_4_" gradientUnits="userSpaceOnUse" x1="25.141" y1="1479.909" x2="24.165" y2="1488.149" gradientTransform="translate(0 -1450.536)"><stop offset="0" stop-color="#080a09" stop-opacity=".1"/><stop offset=".943" stop-color="#87236b" stop-opacity="0"/></linearGradient><path class="st3" d="M45.7 31.1c-1-.2-25.2-4.7-40-.1-.2.7-.4 1.4-.6 2.2 0 .1-.1.2-.1.3-1.3 4.9-2.2 9.9-2.9 15.1 14.2-2.6 31.4-.7 31.4-.7.4.1.8.1 1.2.2.6-3.6 1.5-7.2 2.5-10.7.3-1.2.9-2.8 1.7-3.7.5-.6 1-1 1.7-1.5 1.5-1.1 3.3-1.4 5.1-1.1z"/><linearGradient id="SVGID_5_" gradientUnits="userSpaceOnUse" x1="114.438" y1="1496.248" x2="102.427" y2="1487.609" gradientTransform="translate(0 -1450.536)"><stop offset="0" stop-color="#080a09" stop-opacity=".1"/><stop offset=".943" stop-color="#87236b" stop-opacity="0"/></linearGradient><path class="st4" d="M123.1 21.4c-.1-.2-.2-.5-.3-.7v-.1c-.3-.7-.8-2.1-.8-2.1-.2-.4-.4-.8-.6-1.1-1.2-2.2-2.9-4.1-4.8-5.6-.9-.7-1.9-1.3-3-1.9-.1 0-.1-.1-.2-.1l-2.4-.9h-.1c-.8-.3-1.6-.6-2.5-.9-5.1 22.3-17.8 37.4-18.3 38-.2.3-.4.7-.6 1l-1.2 1.5c-.6.7-1.2 1.4-1.7 2.1 3.6 2.8 6.9 5.9 10.1 9.1L98 61c1.2 1.4 1.8 3 1.8 4.5v.7c-.1 1.2-.5 2.4-1.2 3.6.5-.5 15.8-15.7 22.4-39.1.9-2.8 1.6-6 2.1-9.3z"/><linearGradient id="SVGID_6_" gradientUnits="userSpaceOnUse" x1="46.526" y1="1568.046" x2="57.523" y2="1563.365" gradientTransform="translate(0 -1450.536)"><stop offset="0" stop-color="#080a09" stop-opacity=".1"/><stop offset=".943" stop-color="#87236b" stop-opacity="0"/></linearGradient><path class="st5" d="M74.8 130.7c-9.5-14.6-13.9-25.3-14.4-26.3v-.1c-.2-.5-.4-1-.5-1.5-.6-1.8-1.2-3.7-1.7-5.6-3.3 1.2-6.7 2.3-10.1 3.2-.8.2-1.7.4-2.6.6-1.3.2-2.6 0-3.7-.4-1.9-.7-3.5-2.3-4.3-4.5.6 1.7 5.7 15.9 17.5 34.5.5 0 1 .1 1.5.1s1 .1 1.6.1c.5 0 1 .1 1.6.1h.8c.6 0 1.2 0 1.8.1h3.6c2.2 0 4.3-.1 6.4-.2.7 0 1.4-.1 2.1-.1h.4z"/></svg>