<svg id="Warstwa_1" data-name="Warstwa 1" xmlns="http://www.w3.org/2000/svg" viewBox="0 0 24 24">
  <defs>
    <style>
      .cls-1 {
        fill: #969c9e;
      }
    </style>
  </defs>
  <g>
    <path d="M12,5.5a8,8,0,1,0,8,8A8,8,0,0,0,12,5.5Zm0,15a7,7,0,1,1,7-7A7,7,0,0,1,12,20.5Z"/>
    <path d="M12.5,13.31V8.67a.5.5,0,0,0-1,0v4.82a.51.51,0,0,0,.15.38l3.58,3.58a.5.5,0,0,0,.71,0,.5.5,0,0,0,0-.7Z"/>
    <path d="M8.5,3.5h7A.5.5,0,0,0,16,3a.51.51,0,0,0-.5-.5h-7A.51.51,0,0,0,8,3,.5.5,0,0,0,8.5,3.5Z"/>
  </g>
</svg>
