<?xml version="1.0" encoding="utf-8"?>
<!-- Generator: Adobe Illustrator 26.3.1, SVG Export Plug-In . SVG Version: 6.00 Build 0)  -->
<svg version="1.1" id="Layer_1" xmlns:serif="http://www.serif.com/"
	 xmlns="http://www.w3.org/2000/svg" xmlns:xlink="http://www.w3.org/1999/xlink" x="0px" y="0px" viewBox="0 0 40 40"
	 style="enable-background:new 0 0 40 40;" xml:space="preserve">
<style type="text/css">
	.st0{opacity:0.4;}
	.st1{fill:none;stroke:#E20613;stroke-width:0.1;stroke-miterlimit:10;}
	.st2{fill:#E20613;}
</style>
<symbol  id="material_x5F_system_x5F_icon_x5F_keylines_6" viewBox="0 -48 48 48">
	<g class="st0">
		<line class="st1" x1="24" y1="0" x2="24" y2="-48"/>
		<line class="st1" x1="48" y1="-24" x2="0" y2="-24"/>
		<line class="st1" x1="48" y1="-16" x2="0" y2="-16"/>
		<line class="st1" x1="48" y1="-32" x2="0" y2="-32"/>
		<line class="st1" x1="32" y1="-48" x2="32" y2="0"/>
		<line class="st1" x1="16" y1="-48" x2="16" y2="0"/>
		<line class="st1" x1="47.7" y1="-0.3" x2="0.2" y2="-47.8"/>
		<line class="st1" x1="0.2" y1="-0.3" x2="47.7" y2="-47.8"/>
		<path class="st1" d="M24-14c-5.5,0-10-4.5-10-10c0-5.5,4.5-10,10-10c5.5,0,10,4.5,10,10C34-18.5,29.5-14,24-14z"/>
		<path class="st1" d="M24-4C12.9-4,4-12.9,4-24c0-11.1,8.9-20,20-20c11.1,0,20,8.9,20,20C44-12.9,35.1-4,24-4z"/>
		<path class="st1" d="M38-6H10c-2.2,0-4-1.8-4-4v-28c0-2.2,1.8-4,4-4h28c2.2,0,4,1.8,4,4v28C42-7.8,40.2-6,38-6z"/>
		<path class="st1" d="M40-8H8c-2.2,0-4-1.8-4-4v-24c0-2.2,1.8-4,4-4h32c2.2,0,4,1.8,4,4l0,24C44-9.8,42.2-8,40-8z"/>
		<path class="st1" d="M40-40v32c0,2.2-1.8,4-4,4H12C9.8-4,8-5.8,8-8v-32c0-2.2,1.8-4,4-4h24C38.2-44,40-42.2,40-40z"/>
		<g>
			<path class="st2" d="M47.9-0.1v-47.8H0.1v47.8H47.9 M48,0H0v-48h48V0L48,0z"/>
		</g>
	</g>
</symbol>
<use xlink:href="#material_x5F_system_x5F_icon_x5F_keylines_6"  width="48" height="48" id="XMLID_2_" x="0" y="-48" transform="matrix(0.8333 0 0 -0.8333 1.899626e-04 0)" style="display:none;overflow:visible;"/>
<path d="M30.6,11.8l6,15.7c0.1,0.3,0.1,0.7,0,1c-0.1,0.3-0.4,0.5-0.7,0.7c-0.3,0.1-0.7,0.1-1,0s-0.5-0.4-0.6-0.7l-1.5-4h-7.9l-1.5,4
	c-0.1,0.3-0.3,0.6-0.6,0.7c-0.3,0.1-0.6,0.2-1,0c-0.3-0.1-0.6-0.3-0.7-0.7c-0.1-0.3-0.1-0.6,0-1l6-15.7c0.3-0.8,0.9-1.2,1.7-1.2h0.1
	C29.7,10.6,30.2,11,30.6,11.8z M25.8,22.2h6.1l-3-8.6L25.8,22.2z"/>
<g>
	<path d="M8.1,20c0-2.8-1.1-5.5-2.9-7.6c-0.4-0.4-1-0.4-1.4-0.1s-0.4,1-0.1,1.4c3.2,3.6,3.2,9,0,12.6c-0.4,0.4-0.3,1,0.1,1.4
		c0.4,0.4,1,0.3,1.4-0.1C7,25.6,8.1,22.8,8.1,20z"/>
	<path d="M13,20c0-4.4-1.6-8.7-4.5-12C8.2,7.5,7.6,7.4,7.1,7.7C6.7,7.9,6.5,8.6,6.8,9C6.9,9.1,6.9,9.2,7,9.3
		c5.4,6.1,5.4,15.3,0,21.4c-0.4,0.4-0.4,1,0,1.4c0,0,0,0,0,0c0.4,0.4,1,0.3,1.4-0.1C11.4,28.7,13,24.4,13,20z"/>
	<path d="M11.8,36.5C20,27,20,13,11.9,3.6c-0.4-0.4-1-0.5-1.4-0.1s-0.5,1-0.1,1.4l0,0c7.5,8.7,7.4,21.6-0.1,30.3
		c-0.4,0.4-0.3,1.1,0.1,1.4S11.5,36.9,11.8,36.5z"/>
</g>
</svg>
