<svg id="Layer_2" data-name="Layer 2" xmlns="http://www.w3.org/2000/svg" viewBox="0 0 40 40"><g id="Upload_icon"><path d="M19.55,14.76a1.35,1.35,0,0,0-.26.18L13.43,20.8a1,1,0,0,0,.69,1.73,1,1,0,0,0,.73-.32L19,18.07V32.33a1,1,0,0,0,2,0V18.07l4.15,4.15a1,1,0,0,0,1.73-.69,1,1,0,0,0-.32-.73L20.71,15a1.21,1.21,0,0,0-.33-.21,1.34,1.34,0,0,0-.38-.08A1.08,1.08,0,0,0,19.55,14.76Z"/><path d="M9.28,18.62a1,1,0,0,0,1.14-.79,3.2,3.2,0,0,0-.16-1.07,6.8,6.8,0,0,1-.08-1A7.37,7.37,0,0,1,23.6,11.83a1.66,1.66,0,0,0,1.39.94,1.53,1.53,0,0,0,.75-.2,6.56,6.56,0,0,1,1-.56,3.41,3.41,0,0,1,1.18-.21,3.58,3.58,0,0,1,3.57,3.58,4.4,4.4,0,0,1-.24,1.24c-.07.15-.2.43-.28.57a1.13,1.13,0,0,0-.24.61.92.92,0,0,0,.71.88,2.52,2.52,0,0,1,.68.18,3.15,3.15,0,0,1,.52.21,4,4,0,0,1,2.08,4.42,4,4,0,0,1-3.1,3,3.38,3.38,0,0,1-.7.1H24.16a1,1,0,0,0-1,1,1,1,0,0,0,1,1H30.9a6.05,6.05,0,0,0,5.92-6,6,6,0,0,0-3.62-5.49,5.44,5.44,0,0,0,.29-1.75,5.57,5.57,0,0,0-8.35-4.83A9.46,9.46,0,0,0,17.5,6.67a9.34,9.34,0,0,0-9.32,9.1c0,.31,0,.62.05.93a6,6,0,0,0,.95,11.91h5a1,1,0,0,0,0-2h-5a4,4,0,0,1-4-4c0-.13,0-.26,0-.39A4.11,4.11,0,0,1,9.28,18.62Z"/></g></svg>