<svg id="Layer_2" data-name="Layer 2" xmlns="http://www.w3.org/2000/svg" viewBox="0 0 40 40"><g id="video_icon" data-name="video icon"><path d="M20,36.74A16.74,16.74,0,1,1,36.74,20,16.76,16.76,0,0,1,20,36.74ZM20,5.26A14.74,14.74,0,1,0,34.74,20,14.75,14.75,0,0,0,20,5.26Z"/><path d="M16.91,27.4a2,2,0,0,1-2-1.89v-11a1.92,1.92,0,0,1,2.05-1.86,2.08,2.08,0,0,1,1,.24l9.89,5.52a1.82,1.82,0,0,1,1,1.61,1.85,1.85,0,0,1-1,1.62L18,27.12A2.16,2.16,0,0,1,16.91,27.4Zm0-12.79s-.06,0-.06,0l0,10.74a0,0,0,0,0,.05,0L26.69,20s0,0,0-.06Z"/></g></svg>