<?xml version="1.0" encoding="UTF-8"?><svg id="Layer_2" xmlns="http://www.w3.org/2000/svg" width="40" height="40" viewBox="0 0 40 40"><defs><style>.cls-1{fill:#0a0a0a;}</style></defs><path class="cls-1" d="M23.1147,32.9492c-.1914,0-.3828-.0552-.5488-.1641l-8.8525-5.8105H6.0542c-.5522,0-1-.4478-1-1V13.9805c0-.5522,.4478-1,1-1h7.6577l8.8574-5.7676c.3071-.2002,.6997-.2158,1.022-.041,.3228,.1748,.5234,.5122,.5234,.8789V31.9492c0,.3677-.2017,.7056-.5249,.8799-.1484,.0801-.312,.1201-.4751,.1201ZM7.0542,24.9746h6.958c.1948,0,.3857,.0571,.5488,.1641l7.5537,4.958V9.8955l-7.5601,4.9229c-.1626,.106-.3521,.1621-.5459,.1621H7.0542v9.9941Z"/><path d="M34.9453,14.4892c0,.5394-.439,.9783-.9778,.9783h-6.9333c-.5394,0-.9783-.439-.9783-.9783s.439-.9783,.9783-.9783h6.9333c.5389,0,.9778,.439,.9778,.9783Zm-3.9333,4.5319h-3.9778c-.5394,0-.9783,.439-.9783,.9783s.439,.9783,.9783,.9783h3.9778c.5394,0,.9783-.439,.9783-.9783s-.439-.9783-.9783-.9783Zm-3,5.5102h-.9778c-.5394,0-.9783,.439-.9783,.9778,0,.5394,.439,.9788,.9783,.9788h.9778c.5394,0,.9788-.4394,.9788-.9788,0-.5389-.4394-.9778-.9788-.9778Z"/></svg>