<svg id="Layer_2" data-name="Layer 2" xmlns="http://www.w3.org/2000/svg" viewBox="0 0 40 40"><defs></defs><path d="M24.35,23.37a1,1,0,0,1-.28.68,1,1,0,0,1-1.36,0L21,22.43V35.69a1,1,0,0,1-2,0V22.43l-1.62,1.74A1,1,0,0,1,15.9,22.7l3.4-3.42a1,1,0,0,1,1.35,0l3.42,3.42A1,1,0,0,1,24.35,23.37Z"/><path d="M32.33,9.35H22.52A.77.77,0,0,1,21.87,9l-1.35-2.1A1.82,1.82,0,0,0,19,6.06L7.67,6a3.52,3.52,0,0,0-3.5,3.5v21A3.52,3.52,0,0,0,7.67,34h6.66a1,1,0,0,0,1-1h0a1,1,0,0,0-1-1H7.67a1.5,1.5,0,0,1-1.5-1.5v-21A1.5,1.5,0,0,1,7.67,8l11.23,0,1.28,2a2.76,2.76,0,0,0,2.34,1.28h9.81a1.51,1.51,0,0,1,1.5,1.51V30.49a1.5,1.5,0,0,1-1.5,1.5H25.66a1,1,0,0,0-1,1h0a1,1,0,0,0,1,1h6.67a3.52,3.52,0,0,0,3.5-3.5V12.84A3.5,3.5,0,0,0,32.33,9.35Z"/></svg>